M48
;GenerationSoftware,Autodesk,EAGLE,9.6.2*%
;CreationDate,2021-03-29T07:02:19Z*%
FMAT,2
ICI,OFF
METRIC,TZ,000.000
T7C0.350
T6C0.914
T5C0.920
T4C1.016
T3C2.300
T2C3.302
%
G90
M71
T2
X12065Y3785
X12065Y50825
T3
X52070Y41580
X52070Y29540
T4
X13335Y21793
X10795Y12116
X13335Y43866
X13335Y41097
X13335Y38354
X13335Y35585
X13335Y32817
X13335Y30074
X13335Y27305
X13335Y24536
X10795Y20396
X13335Y19025
X13335Y16256
X13335Y13513
X13335Y10744
X10795Y14884
X10795Y17653
X10795Y23165
X10795Y25933
X10795Y28677
X10795Y31445
X10795Y34214
X10795Y36957
X10795Y39726
X10795Y42494
T5
X49360Y36810
X47360Y34310
X49360Y34310
X47360Y36810
T6
X27305Y50165
X44450Y50165
X46990Y47625
X46990Y50165
X49530Y47625
X49530Y50165
X22225Y47625
X22225Y50165
X24765Y47625
X24765Y50165
X27305Y47625
X29845Y47625
X29845Y50165
X32385Y47625
X32385Y50165
X44450Y47625
X21590Y42545
X24130Y42545
T7
X22860Y38100
X24130Y16510
X34290Y26670
X29210Y40640
X26035Y9525
X24765Y31115
X31115Y30480
X27940Y19685
X26035Y22860
X22225Y23495
X18415Y30912
X27051Y18161
X39116Y12319
X32337Y21336
X30480Y25400
X32385Y13970
X39370Y13970
X36500Y16256
X29845Y26924
X22860Y13970
X48641Y10414
X45720Y8890
X28575Y27940
X24130Y24765
X25400Y18161
X15875Y32385
X17145Y29845
X19685Y28575
X32385Y45085
X31496Y17018
X31496Y19558
X31496Y22098
X26924Y24511
X45085Y12700
X45085Y28575
X41275Y25400
X34290Y22860
M30