G04 EAGLE Gerber RS-274X export*
G75*
%MOMM*%
%FSLAX34Y34*%
%LPD*%
%INSilkscreen Top*%
%IPPOS*%
%AMOC8*
5,1,8,0,0,1.08239X$1,22.5*%
G01*
%ADD10C,0.101600*%
%ADD11C,0.203200*%
%ADD12C,0.884400*%
%ADD13C,0.050800*%
%ADD14C,0.152400*%
%ADD15C,0.127000*%
%ADD16R,2.413000X0.254000*%
%ADD17R,1.651000X1.016000*%
%ADD18R,0.508000X53.086000*%
%ADD19R,0.762000X40.640000*%
%ADD20R,7.239000X0.812800*%
%ADD21R,4.699000X0.812800*%
%ADD22C,0.177800*%
%ADD23C,0.400000*%
%ADD24C,0.076200*%
%ADD25R,0.325000X0.425000*%
%ADD26R,0.350000X0.350000*%


D10*
X285242Y75551D02*
X285242Y72954D01*
X285240Y72855D01*
X285234Y72755D01*
X285225Y72656D01*
X285212Y72558D01*
X285195Y72460D01*
X285174Y72362D01*
X285149Y72266D01*
X285121Y72171D01*
X285089Y72077D01*
X285054Y71984D01*
X285015Y71892D01*
X284972Y71802D01*
X284927Y71714D01*
X284877Y71627D01*
X284825Y71543D01*
X284769Y71460D01*
X284711Y71380D01*
X284649Y71302D01*
X284584Y71227D01*
X284516Y71154D01*
X284446Y71084D01*
X284373Y71016D01*
X284298Y70951D01*
X284220Y70889D01*
X284140Y70831D01*
X284057Y70775D01*
X283973Y70723D01*
X283886Y70673D01*
X283798Y70628D01*
X283708Y70585D01*
X283616Y70546D01*
X283523Y70511D01*
X283429Y70479D01*
X283334Y70451D01*
X283238Y70426D01*
X283140Y70405D01*
X283042Y70388D01*
X282944Y70375D01*
X282845Y70366D01*
X282745Y70360D01*
X282646Y70358D01*
X276154Y70358D01*
X276055Y70360D01*
X275955Y70366D01*
X275856Y70375D01*
X275758Y70388D01*
X275660Y70406D01*
X275562Y70426D01*
X275466Y70451D01*
X275370Y70479D01*
X275276Y70511D01*
X275183Y70546D01*
X275092Y70585D01*
X275002Y70628D01*
X274913Y70673D01*
X274827Y70723D01*
X274742Y70775D01*
X274660Y70831D01*
X274580Y70890D01*
X274502Y70951D01*
X274426Y71016D01*
X274353Y71084D01*
X274283Y71154D01*
X274215Y71227D01*
X274150Y71303D01*
X274089Y71381D01*
X274030Y71461D01*
X273974Y71543D01*
X273922Y71628D01*
X273873Y71714D01*
X273827Y71803D01*
X273784Y71893D01*
X273745Y71984D01*
X273710Y72077D01*
X273678Y72171D01*
X273650Y72267D01*
X273625Y72363D01*
X273605Y72461D01*
X273587Y72559D01*
X273574Y72657D01*
X273565Y72756D01*
X273559Y72855D01*
X273557Y72955D01*
X273558Y72954D02*
X273558Y75551D01*
X276154Y79916D02*
X273558Y83162D01*
X285242Y83162D01*
X285242Y86407D02*
X285242Y79916D01*
X183642Y75551D02*
X183642Y72954D01*
X183640Y72855D01*
X183634Y72755D01*
X183625Y72656D01*
X183612Y72558D01*
X183595Y72460D01*
X183574Y72362D01*
X183549Y72266D01*
X183521Y72171D01*
X183489Y72077D01*
X183454Y71984D01*
X183415Y71892D01*
X183372Y71802D01*
X183327Y71714D01*
X183277Y71627D01*
X183225Y71543D01*
X183169Y71460D01*
X183111Y71380D01*
X183049Y71302D01*
X182984Y71227D01*
X182916Y71154D01*
X182846Y71084D01*
X182773Y71016D01*
X182698Y70951D01*
X182620Y70889D01*
X182540Y70831D01*
X182457Y70775D01*
X182373Y70723D01*
X182286Y70673D01*
X182198Y70628D01*
X182108Y70585D01*
X182016Y70546D01*
X181923Y70511D01*
X181829Y70479D01*
X181734Y70451D01*
X181638Y70426D01*
X181540Y70405D01*
X181442Y70388D01*
X181344Y70375D01*
X181245Y70366D01*
X181145Y70360D01*
X181046Y70358D01*
X174554Y70358D01*
X174455Y70360D01*
X174355Y70366D01*
X174256Y70375D01*
X174158Y70388D01*
X174060Y70406D01*
X173962Y70426D01*
X173866Y70451D01*
X173770Y70479D01*
X173676Y70511D01*
X173583Y70546D01*
X173492Y70585D01*
X173402Y70628D01*
X173313Y70673D01*
X173227Y70723D01*
X173142Y70775D01*
X173060Y70831D01*
X172980Y70890D01*
X172902Y70951D01*
X172826Y71016D01*
X172753Y71084D01*
X172683Y71154D01*
X172615Y71227D01*
X172550Y71303D01*
X172489Y71381D01*
X172430Y71461D01*
X172374Y71543D01*
X172322Y71628D01*
X172273Y71714D01*
X172227Y71803D01*
X172184Y71893D01*
X172145Y71984D01*
X172110Y72077D01*
X172078Y72171D01*
X172050Y72267D01*
X172025Y72363D01*
X172005Y72461D01*
X171987Y72559D01*
X171974Y72657D01*
X171965Y72756D01*
X171959Y72855D01*
X171957Y72955D01*
X171958Y72954D02*
X171958Y75551D01*
X171958Y83486D02*
X171960Y83593D01*
X171966Y83699D01*
X171976Y83805D01*
X171989Y83911D01*
X172007Y84017D01*
X172028Y84121D01*
X172053Y84225D01*
X172082Y84328D01*
X172114Y84429D01*
X172151Y84529D01*
X172191Y84628D01*
X172234Y84726D01*
X172281Y84822D01*
X172332Y84916D01*
X172386Y85008D01*
X172443Y85098D01*
X172503Y85186D01*
X172567Y85271D01*
X172634Y85354D01*
X172704Y85435D01*
X172776Y85513D01*
X172852Y85589D01*
X172930Y85661D01*
X173011Y85731D01*
X173094Y85798D01*
X173179Y85862D01*
X173267Y85922D01*
X173357Y85979D01*
X173449Y86033D01*
X173543Y86084D01*
X173639Y86131D01*
X173737Y86174D01*
X173836Y86214D01*
X173936Y86251D01*
X174037Y86283D01*
X174140Y86312D01*
X174244Y86337D01*
X174348Y86358D01*
X174454Y86376D01*
X174560Y86389D01*
X174666Y86399D01*
X174772Y86405D01*
X174879Y86407D01*
X171958Y83486D02*
X171960Y83365D01*
X171966Y83244D01*
X171976Y83124D01*
X171989Y83003D01*
X172007Y82884D01*
X172028Y82764D01*
X172053Y82646D01*
X172082Y82529D01*
X172115Y82412D01*
X172151Y82297D01*
X172192Y82183D01*
X172235Y82070D01*
X172283Y81958D01*
X172334Y81849D01*
X172389Y81741D01*
X172447Y81634D01*
X172508Y81530D01*
X172573Y81428D01*
X172641Y81328D01*
X172712Y81230D01*
X172786Y81134D01*
X172863Y81041D01*
X172944Y80951D01*
X173027Y80863D01*
X173113Y80778D01*
X173202Y80695D01*
X173293Y80616D01*
X173387Y80539D01*
X173483Y80466D01*
X173581Y80396D01*
X173682Y80329D01*
X173785Y80265D01*
X173890Y80205D01*
X173997Y80147D01*
X174105Y80094D01*
X174215Y80044D01*
X174327Y79998D01*
X174440Y79955D01*
X174555Y79916D01*
X177151Y85433D02*
X177073Y85512D01*
X176993Y85588D01*
X176910Y85661D01*
X176824Y85731D01*
X176737Y85798D01*
X176646Y85862D01*
X176554Y85922D01*
X176460Y85980D01*
X176363Y86034D01*
X176265Y86084D01*
X176165Y86131D01*
X176064Y86175D01*
X175961Y86215D01*
X175856Y86251D01*
X175751Y86283D01*
X175644Y86312D01*
X175537Y86337D01*
X175428Y86359D01*
X175319Y86376D01*
X175210Y86390D01*
X175100Y86399D01*
X174989Y86405D01*
X174879Y86407D01*
X177151Y85434D02*
X183642Y79916D01*
X183642Y86407D01*
D11*
X355000Y88700D02*
X355000Y190700D01*
X355000Y88700D02*
X407000Y88700D01*
X407000Y190700D01*
X355000Y190700D01*
D12*
X364750Y181700D03*
D10*
X356507Y194968D02*
X356507Y206652D01*
X355209Y194968D02*
X357805Y194968D01*
X357805Y206652D02*
X355209Y206652D01*
X364969Y194968D02*
X367565Y194968D01*
X364969Y194968D02*
X364870Y194970D01*
X364770Y194976D01*
X364671Y194985D01*
X364573Y194998D01*
X364475Y195015D01*
X364377Y195036D01*
X364281Y195061D01*
X364186Y195089D01*
X364092Y195121D01*
X363999Y195156D01*
X363907Y195195D01*
X363817Y195238D01*
X363729Y195283D01*
X363642Y195333D01*
X363558Y195385D01*
X363475Y195441D01*
X363395Y195499D01*
X363317Y195561D01*
X363242Y195626D01*
X363169Y195694D01*
X363099Y195764D01*
X363031Y195837D01*
X362966Y195912D01*
X362904Y195990D01*
X362846Y196070D01*
X362790Y196153D01*
X362738Y196237D01*
X362688Y196324D01*
X362643Y196412D01*
X362600Y196502D01*
X362561Y196594D01*
X362526Y196687D01*
X362494Y196781D01*
X362466Y196876D01*
X362441Y196972D01*
X362420Y197070D01*
X362403Y197168D01*
X362390Y197266D01*
X362381Y197365D01*
X362375Y197465D01*
X362373Y197564D01*
X362372Y197564D02*
X362372Y204056D01*
X362373Y204056D02*
X362375Y204155D01*
X362381Y204255D01*
X362390Y204354D01*
X362403Y204452D01*
X362420Y204550D01*
X362441Y204648D01*
X362466Y204744D01*
X362494Y204839D01*
X362526Y204933D01*
X362561Y205026D01*
X362600Y205118D01*
X362643Y205208D01*
X362688Y205296D01*
X362738Y205383D01*
X362790Y205467D01*
X362846Y205550D01*
X362904Y205630D01*
X362966Y205708D01*
X363031Y205783D01*
X363099Y205856D01*
X363169Y205926D01*
X363242Y205994D01*
X363317Y206059D01*
X363395Y206121D01*
X363475Y206179D01*
X363558Y206235D01*
X363642Y206287D01*
X363729Y206337D01*
X363817Y206382D01*
X363907Y206425D01*
X363999Y206464D01*
X364091Y206499D01*
X364186Y206531D01*
X364281Y206559D01*
X364377Y206584D01*
X364475Y206605D01*
X364573Y206622D01*
X364671Y206635D01*
X364770Y206644D01*
X364870Y206650D01*
X364969Y206652D01*
X367565Y206652D01*
X371931Y204056D02*
X375176Y206652D01*
X375176Y194968D01*
X371931Y194968D02*
X378422Y194968D01*
D13*
X207010Y160021D02*
X206516Y160015D01*
X206022Y159997D01*
X205528Y159967D01*
X205035Y159925D01*
X204544Y159871D01*
X204054Y159805D01*
X203565Y159727D01*
X203079Y159637D01*
X202595Y159535D01*
X202114Y159422D01*
X201635Y159297D01*
X201160Y159161D01*
X200688Y159012D01*
X200220Y158853D01*
X199756Y158682D01*
X199297Y158500D01*
X198841Y158307D01*
X198391Y158102D01*
X197946Y157887D01*
X197506Y157661D01*
X197072Y157424D01*
X196644Y157177D01*
X196221Y156920D01*
X195806Y156652D01*
X195396Y156375D01*
X194994Y156087D01*
X194599Y155790D01*
X194211Y155483D01*
X193831Y155167D01*
X193458Y154842D01*
X193094Y154507D01*
X192738Y154164D01*
X192390Y153813D01*
X192051Y153453D01*
X191721Y153085D01*
X191400Y152709D01*
X191088Y152325D01*
X190785Y151934D01*
X190492Y151535D01*
X190209Y151130D01*
D14*
X184150Y151130D02*
X184150Y161290D01*
D13*
X275590Y160020D02*
X276084Y160014D01*
X276578Y159996D01*
X277072Y159966D01*
X277564Y159924D01*
X278056Y159870D01*
X278546Y159804D01*
X279034Y159726D01*
X279521Y159636D01*
X280004Y159535D01*
X280486Y159421D01*
X280964Y159296D01*
X281439Y159160D01*
X281911Y159012D01*
X282379Y158852D01*
X282843Y158681D01*
X283303Y158499D01*
X283758Y158306D01*
X284209Y158102D01*
X284654Y157887D01*
X285094Y157661D01*
X285528Y157424D01*
X285956Y157177D01*
X286378Y156920D01*
X286794Y156652D01*
X287203Y156374D01*
X287606Y156087D01*
X288001Y155790D01*
X288389Y155483D01*
X288769Y155167D01*
X289141Y154841D01*
X289506Y154507D01*
X289862Y154164D01*
X290210Y153813D01*
X290549Y153453D01*
X290879Y153085D01*
X291200Y152709D01*
X291512Y152325D01*
X291815Y151934D01*
X292107Y151535D01*
X292391Y151130D01*
D14*
X298450Y151130D02*
X298450Y161290D01*
D13*
X275590Y127000D02*
X207010Y127000D01*
X207010Y119380D02*
X275590Y119380D01*
X275590Y152400D02*
X207010Y152400D01*
D14*
X186690Y115570D02*
X295910Y115570D01*
X296010Y115572D01*
X296109Y115578D01*
X296209Y115588D01*
X296307Y115601D01*
X296406Y115619D01*
X296503Y115640D01*
X296599Y115665D01*
X296695Y115694D01*
X296789Y115727D01*
X296882Y115763D01*
X296973Y115803D01*
X297063Y115847D01*
X297151Y115894D01*
X297237Y115944D01*
X297321Y115998D01*
X297403Y116055D01*
X297482Y116115D01*
X297560Y116179D01*
X297634Y116245D01*
X297706Y116314D01*
X297775Y116386D01*
X297841Y116460D01*
X297905Y116538D01*
X297965Y116617D01*
X298022Y116699D01*
X298076Y116783D01*
X298126Y116869D01*
X298173Y116957D01*
X298217Y117047D01*
X298257Y117138D01*
X298293Y117231D01*
X298326Y117325D01*
X298355Y117421D01*
X298380Y117517D01*
X298401Y117614D01*
X298419Y117713D01*
X298432Y117811D01*
X298442Y117911D01*
X298448Y118010D01*
X298450Y118110D01*
X298450Y128270D01*
D13*
X281126Y128270D02*
X280853Y128142D01*
X280577Y128020D01*
X280298Y127905D01*
X280017Y127797D01*
X279733Y127695D01*
X279447Y127600D01*
X279159Y127512D01*
X278869Y127430D01*
X278576Y127356D01*
X278283Y127289D01*
X277987Y127228D01*
X277691Y127175D01*
X277393Y127129D01*
X277094Y127089D01*
X276794Y127057D01*
X276493Y127032D01*
X276193Y127014D01*
X275891Y127004D01*
X275590Y127000D01*
X281126Y151130D02*
X280853Y151258D01*
X280577Y151380D01*
X280298Y151495D01*
X280017Y151603D01*
X279733Y151705D01*
X279447Y151800D01*
X279159Y151888D01*
X278869Y151970D01*
X278576Y152044D01*
X278283Y152111D01*
X277987Y152172D01*
X277691Y152225D01*
X277393Y152271D01*
X277094Y152311D01*
X276794Y152343D01*
X276493Y152368D01*
X276193Y152386D01*
X275891Y152396D01*
X275590Y152400D01*
X292390Y128271D02*
X292107Y127866D01*
X291814Y127467D01*
X291512Y127076D01*
X291200Y126692D01*
X290879Y126316D01*
X290549Y125948D01*
X290210Y125588D01*
X289862Y125237D01*
X289506Y124894D01*
X289141Y124559D01*
X288769Y124234D01*
X288389Y123918D01*
X288001Y123611D01*
X287606Y123314D01*
X287203Y123026D01*
X286794Y122749D01*
X286379Y122481D01*
X285956Y122224D01*
X285528Y121977D01*
X285094Y121740D01*
X284654Y121514D01*
X284209Y121299D01*
X283759Y121095D01*
X283303Y120901D01*
X282844Y120719D01*
X282380Y120548D01*
X281912Y120389D01*
X281440Y120241D01*
X280965Y120104D01*
X280486Y119979D01*
X280005Y119866D01*
X279521Y119764D01*
X279035Y119674D01*
X278547Y119596D01*
X278057Y119530D01*
X277565Y119476D01*
X277072Y119434D01*
X276579Y119404D01*
X276085Y119386D01*
X275590Y119380D01*
X207010Y119380D02*
X206516Y119386D01*
X206022Y119404D01*
X205528Y119434D01*
X205036Y119476D01*
X204544Y119530D01*
X204054Y119596D01*
X203566Y119674D01*
X203079Y119764D01*
X202596Y119865D01*
X202114Y119979D01*
X201636Y120104D01*
X201161Y120240D01*
X200689Y120388D01*
X200221Y120548D01*
X199757Y120719D01*
X199297Y120901D01*
X198842Y121094D01*
X198391Y121298D01*
X197946Y121513D01*
X197506Y121739D01*
X197072Y121976D01*
X196644Y122223D01*
X196222Y122480D01*
X195806Y122748D01*
X195397Y123026D01*
X194994Y123313D01*
X194599Y123610D01*
X194211Y123917D01*
X193831Y124233D01*
X193459Y124559D01*
X193094Y124893D01*
X192738Y125236D01*
X192390Y125587D01*
X192051Y125947D01*
X191721Y126315D01*
X191400Y126691D01*
X191088Y127075D01*
X190785Y127466D01*
X190493Y127865D01*
X190209Y128270D01*
X201474Y128270D02*
X201747Y128142D01*
X202023Y128020D01*
X202302Y127905D01*
X202583Y127797D01*
X202867Y127695D01*
X203153Y127600D01*
X203441Y127512D01*
X203731Y127430D01*
X204024Y127356D01*
X204317Y127289D01*
X204613Y127228D01*
X204909Y127175D01*
X205207Y127129D01*
X205506Y127089D01*
X205806Y127057D01*
X206107Y127032D01*
X206407Y127014D01*
X206709Y127004D01*
X207010Y127000D01*
X201474Y151130D02*
X201747Y151258D01*
X202023Y151380D01*
X202302Y151495D01*
X202583Y151603D01*
X202867Y151705D01*
X203153Y151800D01*
X203441Y151888D01*
X203731Y151970D01*
X204024Y152044D01*
X204317Y152111D01*
X204613Y152172D01*
X204909Y152225D01*
X205207Y152271D01*
X205506Y152311D01*
X205806Y152343D01*
X206107Y152368D01*
X206407Y152386D01*
X206709Y152396D01*
X207010Y152400D01*
D14*
X184150Y128270D02*
X184150Y118110D01*
X184152Y118010D01*
X184158Y117911D01*
X184168Y117811D01*
X184181Y117713D01*
X184199Y117614D01*
X184220Y117517D01*
X184245Y117421D01*
X184274Y117325D01*
X184307Y117231D01*
X184343Y117138D01*
X184383Y117047D01*
X184427Y116957D01*
X184474Y116869D01*
X184524Y116783D01*
X184578Y116699D01*
X184635Y116617D01*
X184695Y116538D01*
X184759Y116460D01*
X184825Y116386D01*
X184894Y116314D01*
X184966Y116245D01*
X185040Y116179D01*
X185118Y116115D01*
X185197Y116055D01*
X185279Y115998D01*
X185363Y115944D01*
X185449Y115894D01*
X185537Y115847D01*
X185627Y115803D01*
X185718Y115763D01*
X185811Y115727D01*
X185905Y115694D01*
X186001Y115665D01*
X186097Y115640D01*
X186194Y115619D01*
X186293Y115601D01*
X186391Y115588D01*
X186491Y115578D01*
X186590Y115572D01*
X186690Y115570D01*
D13*
X207010Y160020D02*
X275590Y160020D01*
D14*
X295910Y163830D02*
X186690Y163830D01*
X295910Y163830D02*
X296010Y163828D01*
X296109Y163822D01*
X296209Y163812D01*
X296307Y163799D01*
X296406Y163781D01*
X296503Y163760D01*
X296599Y163735D01*
X296695Y163706D01*
X296789Y163673D01*
X296882Y163637D01*
X296973Y163597D01*
X297063Y163553D01*
X297151Y163506D01*
X297237Y163456D01*
X297321Y163402D01*
X297403Y163345D01*
X297482Y163285D01*
X297560Y163221D01*
X297634Y163155D01*
X297706Y163086D01*
X297775Y163014D01*
X297841Y162940D01*
X297905Y162862D01*
X297965Y162783D01*
X298022Y162701D01*
X298076Y162617D01*
X298126Y162531D01*
X298173Y162443D01*
X298217Y162353D01*
X298257Y162262D01*
X298293Y162169D01*
X298326Y162075D01*
X298355Y161979D01*
X298380Y161883D01*
X298401Y161786D01*
X298419Y161687D01*
X298432Y161589D01*
X298442Y161489D01*
X298448Y161390D01*
X298450Y161290D01*
X186690Y163830D02*
X186590Y163828D01*
X186491Y163822D01*
X186391Y163812D01*
X186293Y163799D01*
X186194Y163781D01*
X186097Y163760D01*
X186001Y163735D01*
X185905Y163706D01*
X185811Y163673D01*
X185718Y163637D01*
X185627Y163597D01*
X185537Y163553D01*
X185449Y163506D01*
X185363Y163456D01*
X185279Y163402D01*
X185197Y163345D01*
X185118Y163285D01*
X185040Y163221D01*
X184966Y163155D01*
X184894Y163086D01*
X184825Y163014D01*
X184759Y162940D01*
X184695Y162862D01*
X184635Y162783D01*
X184578Y162701D01*
X184524Y162617D01*
X184474Y162531D01*
X184427Y162443D01*
X184383Y162353D01*
X184343Y162262D01*
X184307Y162169D01*
X184274Y162075D01*
X184245Y161979D01*
X184220Y161883D01*
X184199Y161786D01*
X184181Y161687D01*
X184168Y161589D01*
X184158Y161489D01*
X184152Y161390D01*
X184150Y161290D01*
X238760Y146050D02*
X238760Y133350D01*
X243840Y133350D01*
X243840Y146050D01*
X238760Y146050D01*
X234950Y146050D02*
X234950Y139700D01*
X234950Y133350D01*
D13*
X234950Y139700D02*
X231140Y139700D01*
D14*
X247650Y139700D02*
X247650Y146050D01*
X247650Y139700D02*
X247650Y133350D01*
D13*
X247650Y139700D02*
X251460Y139700D01*
D15*
X191389Y176276D02*
X191389Y181356D01*
X191391Y181467D01*
X191397Y181577D01*
X191406Y181688D01*
X191420Y181798D01*
X191437Y181907D01*
X191458Y182016D01*
X191483Y182124D01*
X191512Y182231D01*
X191544Y182337D01*
X191580Y182442D01*
X191620Y182545D01*
X191663Y182647D01*
X191710Y182748D01*
X191761Y182847D01*
X191814Y182944D01*
X191871Y183038D01*
X191932Y183131D01*
X191995Y183222D01*
X192062Y183311D01*
X192132Y183397D01*
X192205Y183480D01*
X192280Y183562D01*
X192358Y183640D01*
X192440Y183715D01*
X192523Y183788D01*
X192609Y183858D01*
X192698Y183925D01*
X192789Y183988D01*
X192882Y184049D01*
X192977Y184106D01*
X193073Y184159D01*
X193172Y184210D01*
X193273Y184257D01*
X193375Y184300D01*
X193478Y184340D01*
X193583Y184376D01*
X193689Y184408D01*
X193796Y184437D01*
X193904Y184462D01*
X194013Y184483D01*
X194122Y184500D01*
X194232Y184514D01*
X194343Y184523D01*
X194453Y184529D01*
X194564Y184531D01*
X194675Y184529D01*
X194785Y184523D01*
X194896Y184514D01*
X195006Y184500D01*
X195115Y184483D01*
X195224Y184462D01*
X195332Y184437D01*
X195439Y184408D01*
X195545Y184376D01*
X195650Y184340D01*
X195753Y184300D01*
X195855Y184257D01*
X195956Y184210D01*
X196055Y184159D01*
X196152Y184106D01*
X196246Y184049D01*
X196339Y183988D01*
X196430Y183925D01*
X196519Y183858D01*
X196605Y183788D01*
X196688Y183715D01*
X196770Y183640D01*
X196848Y183562D01*
X196923Y183480D01*
X196996Y183397D01*
X197066Y183311D01*
X197133Y183222D01*
X197196Y183131D01*
X197257Y183038D01*
X197314Y182944D01*
X197367Y182847D01*
X197418Y182748D01*
X197465Y182647D01*
X197508Y182545D01*
X197548Y182442D01*
X197584Y182337D01*
X197616Y182231D01*
X197645Y182124D01*
X197670Y182016D01*
X197691Y181907D01*
X197708Y181798D01*
X197722Y181688D01*
X197731Y181577D01*
X197737Y181467D01*
X197739Y181356D01*
X197739Y176276D01*
X197737Y176165D01*
X197731Y176055D01*
X197722Y175944D01*
X197708Y175834D01*
X197691Y175725D01*
X197670Y175616D01*
X197645Y175508D01*
X197616Y175401D01*
X197584Y175295D01*
X197548Y175190D01*
X197508Y175087D01*
X197465Y174985D01*
X197418Y174884D01*
X197367Y174785D01*
X197314Y174688D01*
X197257Y174594D01*
X197196Y174501D01*
X197133Y174410D01*
X197066Y174321D01*
X196996Y174235D01*
X196923Y174152D01*
X196848Y174070D01*
X196770Y173992D01*
X196688Y173917D01*
X196605Y173844D01*
X196519Y173774D01*
X196430Y173707D01*
X196339Y173644D01*
X196246Y173583D01*
X196151Y173526D01*
X196055Y173473D01*
X195956Y173422D01*
X195855Y173375D01*
X195753Y173332D01*
X195650Y173292D01*
X195545Y173256D01*
X195439Y173224D01*
X195332Y173195D01*
X195224Y173170D01*
X195115Y173149D01*
X195006Y173132D01*
X194896Y173118D01*
X194785Y173109D01*
X194675Y173103D01*
X194564Y173101D01*
X194453Y173103D01*
X194343Y173109D01*
X194232Y173118D01*
X194122Y173132D01*
X194013Y173149D01*
X193904Y173170D01*
X193796Y173195D01*
X193689Y173224D01*
X193583Y173256D01*
X193478Y173292D01*
X193375Y173332D01*
X193273Y173375D01*
X193172Y173422D01*
X193073Y173473D01*
X192977Y173526D01*
X192882Y173583D01*
X192789Y173644D01*
X192698Y173707D01*
X192609Y173774D01*
X192523Y173844D01*
X192440Y173917D01*
X192358Y173992D01*
X192280Y174070D01*
X192205Y174152D01*
X192132Y174235D01*
X192062Y174321D01*
X191995Y174410D01*
X191932Y174501D01*
X191871Y174594D01*
X191814Y174689D01*
X191761Y174785D01*
X191710Y174884D01*
X191663Y174985D01*
X191620Y175087D01*
X191580Y175190D01*
X191544Y175295D01*
X191512Y175401D01*
X191483Y175508D01*
X191458Y175616D01*
X191437Y175725D01*
X191420Y175834D01*
X191406Y175944D01*
X191397Y176055D01*
X191391Y176165D01*
X191389Y176276D01*
X196469Y175641D02*
X199009Y173101D01*
X202450Y181991D02*
X205625Y184531D01*
X205625Y173101D01*
X202450Y173101D02*
X208800Y173101D01*
D14*
X-54610Y82550D02*
X-54610Y80010D01*
X-54608Y79870D01*
X-54602Y79730D01*
X-54593Y79590D01*
X-54579Y79451D01*
X-54562Y79312D01*
X-54541Y79174D01*
X-54516Y79036D01*
X-54487Y78899D01*
X-54455Y78763D01*
X-54418Y78628D01*
X-54378Y78494D01*
X-54335Y78361D01*
X-54287Y78229D01*
X-54237Y78098D01*
X-54182Y77969D01*
X-54124Y77842D01*
X-54063Y77716D01*
X-53998Y77592D01*
X-53929Y77470D01*
X-53858Y77350D01*
X-53783Y77232D01*
X-53705Y77115D01*
X-53623Y77001D01*
X-53539Y76890D01*
X-53451Y76781D01*
X-53361Y76674D01*
X-53267Y76569D01*
X-53171Y76468D01*
X-53072Y76369D01*
X-52971Y76273D01*
X-52866Y76179D01*
X-52759Y76089D01*
X-52650Y76001D01*
X-52539Y75917D01*
X-52425Y75835D01*
X-52308Y75757D01*
X-52190Y75682D01*
X-52070Y75611D01*
X-51948Y75542D01*
X-51824Y75477D01*
X-51698Y75416D01*
X-51571Y75358D01*
X-51442Y75303D01*
X-51311Y75253D01*
X-51179Y75205D01*
X-51046Y75162D01*
X-50912Y75122D01*
X-50777Y75085D01*
X-50641Y75053D01*
X-50504Y75024D01*
X-50366Y74999D01*
X-50228Y74978D01*
X-50089Y74961D01*
X-49950Y74947D01*
X-49810Y74938D01*
X-49670Y74932D01*
X-49530Y74930D01*
X-54610Y466090D02*
X-54608Y466230D01*
X-54602Y466370D01*
X-54593Y466510D01*
X-54579Y466649D01*
X-54562Y466788D01*
X-54541Y466926D01*
X-54516Y467064D01*
X-54487Y467201D01*
X-54455Y467337D01*
X-54418Y467472D01*
X-54378Y467606D01*
X-54335Y467739D01*
X-54287Y467871D01*
X-54237Y468002D01*
X-54182Y468131D01*
X-54124Y468258D01*
X-54063Y468384D01*
X-53998Y468508D01*
X-53929Y468630D01*
X-53858Y468750D01*
X-53783Y468868D01*
X-53705Y468985D01*
X-53623Y469099D01*
X-53539Y469210D01*
X-53451Y469319D01*
X-53361Y469426D01*
X-53267Y469531D01*
X-53171Y469632D01*
X-53072Y469731D01*
X-52971Y469827D01*
X-52866Y469921D01*
X-52759Y470011D01*
X-52650Y470099D01*
X-52539Y470183D01*
X-52425Y470265D01*
X-52308Y470343D01*
X-52190Y470418D01*
X-52070Y470489D01*
X-51948Y470558D01*
X-51824Y470623D01*
X-51698Y470684D01*
X-51571Y470742D01*
X-51442Y470797D01*
X-51311Y470847D01*
X-51179Y470895D01*
X-51046Y470938D01*
X-50912Y470978D01*
X-50777Y471015D01*
X-50641Y471047D01*
X-50504Y471076D01*
X-50366Y471101D01*
X-50228Y471122D01*
X-50089Y471139D01*
X-49950Y471153D01*
X-49810Y471162D01*
X-49670Y471168D01*
X-49530Y471170D01*
X-49530Y78740D02*
X3810Y78740D01*
X3810Y467360D01*
X-49530Y467360D01*
X44450Y58420D02*
X44450Y7620D01*
X13970Y7620D01*
X44450Y7620D02*
X45720Y7620D01*
X13970Y7620D02*
X13970Y33020D01*
X13970Y7620D02*
X8890Y7620D01*
X3810Y7620D01*
X3810Y538480D02*
X8890Y538480D01*
X13970Y538480D01*
X44450Y538480D01*
X45720Y538480D01*
X16510Y58420D02*
X16510Y33020D01*
X8890Y33020D02*
X8890Y7620D01*
X8890Y33020D02*
X8890Y58420D01*
X8890Y33020D02*
X13970Y33020D01*
X16510Y33020D01*
X16510Y58420D02*
X13970Y58420D01*
X8890Y58420D01*
X45720Y58420D02*
X45720Y7620D01*
X45720Y58420D02*
X44450Y58420D01*
X13970Y58420D02*
X13970Y59690D01*
X13970Y486410D01*
X44450Y66040D02*
X44448Y65882D01*
X44442Y65723D01*
X44432Y65565D01*
X44418Y65408D01*
X44401Y65250D01*
X44379Y65094D01*
X44354Y64937D01*
X44324Y64782D01*
X44291Y64627D01*
X44254Y64473D01*
X44213Y64320D01*
X44168Y64168D01*
X44119Y64018D01*
X44067Y63868D01*
X44011Y63720D01*
X43951Y63573D01*
X43888Y63428D01*
X43821Y63285D01*
X43751Y63143D01*
X43677Y63003D01*
X43599Y62865D01*
X43518Y62729D01*
X43434Y62595D01*
X43347Y62463D01*
X43256Y62333D01*
X43162Y62206D01*
X43065Y62081D01*
X42964Y61958D01*
X42861Y61838D01*
X42755Y61721D01*
X42646Y61606D01*
X42534Y61494D01*
X42419Y61385D01*
X42302Y61279D01*
X42182Y61176D01*
X42059Y61075D01*
X41934Y60978D01*
X41807Y60884D01*
X41677Y60793D01*
X41545Y60706D01*
X41411Y60622D01*
X41275Y60541D01*
X41137Y60463D01*
X40997Y60389D01*
X40855Y60319D01*
X40712Y60252D01*
X40567Y60189D01*
X40420Y60129D01*
X40272Y60073D01*
X40122Y60021D01*
X39972Y59972D01*
X39820Y59927D01*
X39667Y59886D01*
X39513Y59849D01*
X39358Y59816D01*
X39203Y59786D01*
X39046Y59761D01*
X38890Y59739D01*
X38732Y59722D01*
X38575Y59708D01*
X38417Y59698D01*
X38258Y59692D01*
X38100Y59690D01*
X44450Y58420D02*
X44450Y67310D01*
X44450Y69850D01*
X38100Y59690D02*
X13970Y59690D01*
X44450Y69850D02*
X52070Y69850D01*
X44450Y69850D02*
X44450Y476250D01*
X52070Y476250D02*
X52070Y69850D01*
X52070Y476250D02*
X44450Y476250D01*
X44450Y478790D01*
X44450Y487680D01*
X45720Y487680D02*
X45720Y538480D01*
X13970Y513080D02*
X8890Y513080D01*
X13970Y513080D02*
X13970Y538480D01*
X8890Y538480D02*
X8890Y513080D01*
X16510Y513080D02*
X16510Y487680D01*
X16510Y513080D02*
X13970Y513080D01*
X8890Y487680D02*
X8890Y58420D01*
X8890Y487680D02*
X8890Y513080D01*
X13970Y487680D02*
X16510Y487680D01*
X13970Y487680D02*
X8890Y487680D01*
X13970Y486410D02*
X38100Y486410D01*
X13970Y486410D02*
X13970Y487680D01*
X38100Y486410D02*
X38258Y486408D01*
X38417Y486402D01*
X38575Y486392D01*
X38732Y486378D01*
X38890Y486361D01*
X39046Y486339D01*
X39203Y486314D01*
X39358Y486284D01*
X39513Y486251D01*
X39667Y486214D01*
X39820Y486173D01*
X39972Y486128D01*
X40122Y486079D01*
X40272Y486027D01*
X40420Y485971D01*
X40567Y485911D01*
X40712Y485848D01*
X40855Y485781D01*
X40997Y485711D01*
X41137Y485637D01*
X41275Y485559D01*
X41411Y485478D01*
X41545Y485394D01*
X41677Y485307D01*
X41807Y485216D01*
X41934Y485122D01*
X42059Y485025D01*
X42182Y484924D01*
X42302Y484821D01*
X42419Y484715D01*
X42534Y484606D01*
X42646Y484494D01*
X42755Y484379D01*
X42861Y484262D01*
X42964Y484142D01*
X43065Y484019D01*
X43162Y483894D01*
X43256Y483767D01*
X43347Y483637D01*
X43434Y483505D01*
X43518Y483371D01*
X43599Y483235D01*
X43677Y483097D01*
X43751Y482957D01*
X43821Y482815D01*
X43888Y482672D01*
X43951Y482527D01*
X44011Y482380D01*
X44067Y482232D01*
X44119Y482082D01*
X44168Y481932D01*
X44213Y481780D01*
X44254Y481627D01*
X44291Y481473D01*
X44324Y481318D01*
X44354Y481163D01*
X44379Y481006D01*
X44401Y480850D01*
X44418Y480692D01*
X44432Y480535D01*
X44442Y480377D01*
X44448Y480218D01*
X44450Y480060D01*
X152400Y13970D02*
X146050Y7620D01*
X45720Y7620D01*
X152400Y13970D02*
X152400Y62230D01*
X147320Y67310D01*
X44450Y67310D01*
X44450Y478790D02*
X147320Y478790D01*
X152400Y483870D01*
X152400Y533400D01*
X147320Y538480D01*
X45720Y538480D01*
X-19050Y323850D02*
X-19050Y300990D01*
X-41910Y300990D01*
X-41910Y304800D01*
X-22860Y304800D01*
X-22860Y320040D01*
X-41910Y320040D01*
X-41910Y323850D01*
X-19050Y323850D01*
X-19050Y284480D02*
X-19050Y261620D01*
X-41910Y261620D01*
X-41910Y265430D01*
X-22860Y265430D01*
X-22860Y280670D01*
X-41910Y280670D01*
X-41910Y284480D01*
X-19050Y284480D01*
X-19050Y245110D02*
X-19050Y222250D01*
X-41910Y222250D01*
X-41910Y226060D01*
X-22860Y226060D01*
X-22860Y241300D01*
X-41910Y241300D01*
X-41910Y245110D01*
X-19050Y245110D01*
X44450Y487680D02*
X45720Y487680D01*
X44450Y487680D02*
X44450Y538480D01*
X3810Y538480D02*
X3810Y467360D01*
X-2540Y471170D02*
X-49530Y471170D01*
X-2540Y471170D02*
X-2382Y471172D01*
X-2223Y471178D01*
X-2065Y471188D01*
X-1908Y471202D01*
X-1750Y471219D01*
X-1594Y471241D01*
X-1437Y471266D01*
X-1282Y471296D01*
X-1127Y471329D01*
X-973Y471366D01*
X-820Y471407D01*
X-668Y471452D01*
X-518Y471501D01*
X-368Y471553D01*
X-220Y471609D01*
X-73Y471669D01*
X72Y471732D01*
X215Y471799D01*
X357Y471869D01*
X497Y471943D01*
X635Y472021D01*
X771Y472102D01*
X905Y472186D01*
X1037Y472273D01*
X1167Y472364D01*
X1294Y472458D01*
X1419Y472555D01*
X1542Y472656D01*
X1662Y472759D01*
X1779Y472865D01*
X1894Y472974D01*
X2006Y473086D01*
X2115Y473201D01*
X2221Y473318D01*
X2324Y473438D01*
X2425Y473561D01*
X2522Y473686D01*
X2616Y473813D01*
X2707Y473943D01*
X2794Y474075D01*
X2878Y474209D01*
X2959Y474345D01*
X3037Y474483D01*
X3111Y474623D01*
X3181Y474765D01*
X3248Y474908D01*
X3311Y475053D01*
X3371Y475200D01*
X3427Y475348D01*
X3479Y475498D01*
X3528Y475648D01*
X3573Y475800D01*
X3614Y475953D01*
X3651Y476107D01*
X3684Y476262D01*
X3714Y476417D01*
X3739Y476574D01*
X3761Y476730D01*
X3778Y476888D01*
X3792Y477045D01*
X3802Y477203D01*
X3808Y477362D01*
X3810Y477520D01*
X3810Y78740D02*
X3810Y7620D01*
X-2540Y74930D02*
X-49530Y74930D01*
X-2540Y74930D02*
X-2382Y74928D01*
X-2223Y74922D01*
X-2065Y74912D01*
X-1908Y74898D01*
X-1750Y74881D01*
X-1594Y74859D01*
X-1437Y74834D01*
X-1282Y74804D01*
X-1127Y74771D01*
X-973Y74734D01*
X-820Y74693D01*
X-668Y74648D01*
X-518Y74599D01*
X-368Y74547D01*
X-220Y74491D01*
X-73Y74431D01*
X72Y74368D01*
X215Y74301D01*
X357Y74231D01*
X497Y74157D01*
X635Y74079D01*
X771Y73998D01*
X905Y73914D01*
X1037Y73827D01*
X1167Y73736D01*
X1294Y73642D01*
X1419Y73545D01*
X1542Y73444D01*
X1662Y73341D01*
X1779Y73235D01*
X1894Y73126D01*
X2006Y73014D01*
X2115Y72899D01*
X2221Y72782D01*
X2324Y72662D01*
X2425Y72539D01*
X2522Y72414D01*
X2616Y72287D01*
X2707Y72157D01*
X2794Y72025D01*
X2878Y71891D01*
X2959Y71755D01*
X3037Y71617D01*
X3111Y71477D01*
X3181Y71335D01*
X3248Y71192D01*
X3311Y71047D01*
X3371Y70900D01*
X3427Y70752D01*
X3479Y70602D01*
X3528Y70452D01*
X3573Y70300D01*
X3614Y70147D01*
X3651Y69993D01*
X3684Y69838D01*
X3714Y69683D01*
X3739Y69526D01*
X3761Y69370D01*
X3778Y69212D01*
X3792Y69055D01*
X3802Y68897D01*
X3808Y68738D01*
X3810Y68580D01*
X-19050Y340360D02*
X-19050Y363220D01*
X-19050Y340360D02*
X-41910Y340360D01*
X-41910Y344170D01*
X-22860Y344170D01*
X-22860Y359410D01*
X-41910Y359410D01*
X-41910Y363220D01*
X-19050Y363220D01*
X-19050Y205740D02*
X-19050Y182880D01*
X-41910Y182880D01*
X-41910Y186690D01*
X-22860Y186690D01*
X-22860Y201930D01*
X-41910Y201930D01*
X-41910Y205740D01*
X-19050Y205740D01*
X-19050Y379730D02*
X-19050Y402590D01*
X-19050Y379730D02*
X-41910Y379730D01*
X-41910Y383540D01*
X-22860Y383540D01*
X-22860Y398780D01*
X-41910Y398780D01*
X-41910Y402590D01*
X-19050Y402590D01*
X-19050Y166370D02*
X-19050Y143510D01*
X-41910Y143510D01*
X-41910Y147320D01*
X-22860Y147320D01*
X-22860Y162560D01*
X-41910Y162560D01*
X-41910Y166370D01*
X-19050Y166370D01*
X-1270Y463550D02*
X-54610Y463550D01*
X-54610Y466090D01*
X-54610Y82550D02*
X-1270Y82550D01*
X-54610Y82550D02*
X-54610Y463550D01*
X104140Y37846D02*
X104145Y38251D01*
X104160Y38656D01*
X104185Y39061D01*
X104220Y39464D01*
X104264Y39867D01*
X104319Y40269D01*
X104383Y40669D01*
X104457Y41067D01*
X104541Y41463D01*
X104635Y41858D01*
X104738Y42249D01*
X104851Y42639D01*
X104973Y43025D01*
X105105Y43408D01*
X105246Y43788D01*
X105397Y44164D01*
X105556Y44537D01*
X105725Y44905D01*
X105903Y45269D01*
X106089Y45629D01*
X106285Y45984D01*
X106489Y46334D01*
X106701Y46679D01*
X106922Y47018D01*
X107152Y47353D01*
X107389Y47681D01*
X107634Y48003D01*
X107888Y48320D01*
X108148Y48630D01*
X108417Y48933D01*
X108693Y49230D01*
X108976Y49520D01*
X109266Y49803D01*
X109563Y50079D01*
X109866Y50348D01*
X110176Y50608D01*
X110493Y50862D01*
X110815Y51107D01*
X111143Y51344D01*
X111478Y51574D01*
X111817Y51795D01*
X112162Y52007D01*
X112512Y52211D01*
X112867Y52407D01*
X113227Y52593D01*
X113591Y52771D01*
X113959Y52940D01*
X114332Y53099D01*
X114708Y53250D01*
X115088Y53391D01*
X115471Y53523D01*
X115857Y53645D01*
X116247Y53758D01*
X116638Y53861D01*
X117033Y53955D01*
X117429Y54039D01*
X117827Y54113D01*
X118227Y54177D01*
X118629Y54232D01*
X119032Y54276D01*
X119435Y54311D01*
X119840Y54336D01*
X120245Y54351D01*
X120650Y54356D01*
X121055Y54351D01*
X121460Y54336D01*
X121865Y54311D01*
X122268Y54276D01*
X122671Y54232D01*
X123073Y54177D01*
X123473Y54113D01*
X123871Y54039D01*
X124267Y53955D01*
X124662Y53861D01*
X125053Y53758D01*
X125443Y53645D01*
X125829Y53523D01*
X126212Y53391D01*
X126592Y53250D01*
X126968Y53099D01*
X127341Y52940D01*
X127709Y52771D01*
X128073Y52593D01*
X128433Y52407D01*
X128788Y52211D01*
X129138Y52007D01*
X129483Y51795D01*
X129822Y51574D01*
X130157Y51344D01*
X130485Y51107D01*
X130807Y50862D01*
X131124Y50608D01*
X131434Y50348D01*
X131737Y50079D01*
X132034Y49803D01*
X132324Y49520D01*
X132607Y49230D01*
X132883Y48933D01*
X133152Y48630D01*
X133412Y48320D01*
X133666Y48003D01*
X133911Y47681D01*
X134148Y47353D01*
X134378Y47018D01*
X134599Y46679D01*
X134811Y46334D01*
X135015Y45984D01*
X135211Y45629D01*
X135397Y45269D01*
X135575Y44905D01*
X135744Y44537D01*
X135903Y44164D01*
X136054Y43788D01*
X136195Y43408D01*
X136327Y43025D01*
X136449Y42639D01*
X136562Y42249D01*
X136665Y41858D01*
X136759Y41463D01*
X136843Y41067D01*
X136917Y40669D01*
X136981Y40269D01*
X137036Y39867D01*
X137080Y39464D01*
X137115Y39061D01*
X137140Y38656D01*
X137155Y38251D01*
X137160Y37846D01*
X137155Y37441D01*
X137140Y37036D01*
X137115Y36631D01*
X137080Y36228D01*
X137036Y35825D01*
X136981Y35423D01*
X136917Y35023D01*
X136843Y34625D01*
X136759Y34229D01*
X136665Y33834D01*
X136562Y33443D01*
X136449Y33053D01*
X136327Y32667D01*
X136195Y32284D01*
X136054Y31904D01*
X135903Y31528D01*
X135744Y31155D01*
X135575Y30787D01*
X135397Y30423D01*
X135211Y30063D01*
X135015Y29708D01*
X134811Y29358D01*
X134599Y29013D01*
X134378Y28674D01*
X134148Y28339D01*
X133911Y28011D01*
X133666Y27689D01*
X133412Y27372D01*
X133152Y27062D01*
X132883Y26759D01*
X132607Y26462D01*
X132324Y26172D01*
X132034Y25889D01*
X131737Y25613D01*
X131434Y25344D01*
X131124Y25084D01*
X130807Y24830D01*
X130485Y24585D01*
X130157Y24348D01*
X129822Y24118D01*
X129483Y23897D01*
X129138Y23685D01*
X128788Y23481D01*
X128433Y23285D01*
X128073Y23099D01*
X127709Y22921D01*
X127341Y22752D01*
X126968Y22593D01*
X126592Y22442D01*
X126212Y22301D01*
X125829Y22169D01*
X125443Y22047D01*
X125053Y21934D01*
X124662Y21831D01*
X124267Y21737D01*
X123871Y21653D01*
X123473Y21579D01*
X123073Y21515D01*
X122671Y21460D01*
X122268Y21416D01*
X121865Y21381D01*
X121460Y21356D01*
X121055Y21341D01*
X120650Y21336D01*
X120245Y21341D01*
X119840Y21356D01*
X119435Y21381D01*
X119032Y21416D01*
X118629Y21460D01*
X118227Y21515D01*
X117827Y21579D01*
X117429Y21653D01*
X117033Y21737D01*
X116638Y21831D01*
X116247Y21934D01*
X115857Y22047D01*
X115471Y22169D01*
X115088Y22301D01*
X114708Y22442D01*
X114332Y22593D01*
X113959Y22752D01*
X113591Y22921D01*
X113227Y23099D01*
X112867Y23285D01*
X112512Y23481D01*
X112162Y23685D01*
X111817Y23897D01*
X111478Y24118D01*
X111143Y24348D01*
X110815Y24585D01*
X110493Y24830D01*
X110176Y25084D01*
X109866Y25344D01*
X109563Y25613D01*
X109266Y25889D01*
X108976Y26172D01*
X108693Y26462D01*
X108417Y26759D01*
X108148Y27062D01*
X107888Y27372D01*
X107634Y27689D01*
X107389Y28011D01*
X107152Y28339D01*
X106922Y28674D01*
X106701Y29013D01*
X106489Y29358D01*
X106285Y29708D01*
X106089Y30063D01*
X105903Y30423D01*
X105725Y30787D01*
X105556Y31155D01*
X105397Y31528D01*
X105246Y31904D01*
X105105Y32284D01*
X104973Y32667D01*
X104851Y33053D01*
X104738Y33443D01*
X104635Y33834D01*
X104541Y34229D01*
X104457Y34625D01*
X104383Y35023D01*
X104319Y35423D01*
X104264Y35825D01*
X104220Y36228D01*
X104185Y36631D01*
X104160Y37036D01*
X104145Y37441D01*
X104140Y37846D01*
X104140Y508254D02*
X104145Y508659D01*
X104160Y509064D01*
X104185Y509469D01*
X104220Y509872D01*
X104264Y510275D01*
X104319Y510677D01*
X104383Y511077D01*
X104457Y511475D01*
X104541Y511871D01*
X104635Y512266D01*
X104738Y512657D01*
X104851Y513047D01*
X104973Y513433D01*
X105105Y513816D01*
X105246Y514196D01*
X105397Y514572D01*
X105556Y514945D01*
X105725Y515313D01*
X105903Y515677D01*
X106089Y516037D01*
X106285Y516392D01*
X106489Y516742D01*
X106701Y517087D01*
X106922Y517426D01*
X107152Y517761D01*
X107389Y518089D01*
X107634Y518411D01*
X107888Y518728D01*
X108148Y519038D01*
X108417Y519341D01*
X108693Y519638D01*
X108976Y519928D01*
X109266Y520211D01*
X109563Y520487D01*
X109866Y520756D01*
X110176Y521016D01*
X110493Y521270D01*
X110815Y521515D01*
X111143Y521752D01*
X111478Y521982D01*
X111817Y522203D01*
X112162Y522415D01*
X112512Y522619D01*
X112867Y522815D01*
X113227Y523001D01*
X113591Y523179D01*
X113959Y523348D01*
X114332Y523507D01*
X114708Y523658D01*
X115088Y523799D01*
X115471Y523931D01*
X115857Y524053D01*
X116247Y524166D01*
X116638Y524269D01*
X117033Y524363D01*
X117429Y524447D01*
X117827Y524521D01*
X118227Y524585D01*
X118629Y524640D01*
X119032Y524684D01*
X119435Y524719D01*
X119840Y524744D01*
X120245Y524759D01*
X120650Y524764D01*
X121055Y524759D01*
X121460Y524744D01*
X121865Y524719D01*
X122268Y524684D01*
X122671Y524640D01*
X123073Y524585D01*
X123473Y524521D01*
X123871Y524447D01*
X124267Y524363D01*
X124662Y524269D01*
X125053Y524166D01*
X125443Y524053D01*
X125829Y523931D01*
X126212Y523799D01*
X126592Y523658D01*
X126968Y523507D01*
X127341Y523348D01*
X127709Y523179D01*
X128073Y523001D01*
X128433Y522815D01*
X128788Y522619D01*
X129138Y522415D01*
X129483Y522203D01*
X129822Y521982D01*
X130157Y521752D01*
X130485Y521515D01*
X130807Y521270D01*
X131124Y521016D01*
X131434Y520756D01*
X131737Y520487D01*
X132034Y520211D01*
X132324Y519928D01*
X132607Y519638D01*
X132883Y519341D01*
X133152Y519038D01*
X133412Y518728D01*
X133666Y518411D01*
X133911Y518089D01*
X134148Y517761D01*
X134378Y517426D01*
X134599Y517087D01*
X134811Y516742D01*
X135015Y516392D01*
X135211Y516037D01*
X135397Y515677D01*
X135575Y515313D01*
X135744Y514945D01*
X135903Y514572D01*
X136054Y514196D01*
X136195Y513816D01*
X136327Y513433D01*
X136449Y513047D01*
X136562Y512657D01*
X136665Y512266D01*
X136759Y511871D01*
X136843Y511475D01*
X136917Y511077D01*
X136981Y510677D01*
X137036Y510275D01*
X137080Y509872D01*
X137115Y509469D01*
X137140Y509064D01*
X137155Y508659D01*
X137160Y508254D01*
X137155Y507849D01*
X137140Y507444D01*
X137115Y507039D01*
X137080Y506636D01*
X137036Y506233D01*
X136981Y505831D01*
X136917Y505431D01*
X136843Y505033D01*
X136759Y504637D01*
X136665Y504242D01*
X136562Y503851D01*
X136449Y503461D01*
X136327Y503075D01*
X136195Y502692D01*
X136054Y502312D01*
X135903Y501936D01*
X135744Y501563D01*
X135575Y501195D01*
X135397Y500831D01*
X135211Y500471D01*
X135015Y500116D01*
X134811Y499766D01*
X134599Y499421D01*
X134378Y499082D01*
X134148Y498747D01*
X133911Y498419D01*
X133666Y498097D01*
X133412Y497780D01*
X133152Y497470D01*
X132883Y497167D01*
X132607Y496870D01*
X132324Y496580D01*
X132034Y496297D01*
X131737Y496021D01*
X131434Y495752D01*
X131124Y495492D01*
X130807Y495238D01*
X130485Y494993D01*
X130157Y494756D01*
X129822Y494526D01*
X129483Y494305D01*
X129138Y494093D01*
X128788Y493889D01*
X128433Y493693D01*
X128073Y493507D01*
X127709Y493329D01*
X127341Y493160D01*
X126968Y493001D01*
X126592Y492850D01*
X126212Y492709D01*
X125829Y492577D01*
X125443Y492455D01*
X125053Y492342D01*
X124662Y492239D01*
X124267Y492145D01*
X123871Y492061D01*
X123473Y491987D01*
X123073Y491923D01*
X122671Y491868D01*
X122268Y491824D01*
X121865Y491789D01*
X121460Y491764D01*
X121055Y491749D01*
X120650Y491744D01*
X120245Y491749D01*
X119840Y491764D01*
X119435Y491789D01*
X119032Y491824D01*
X118629Y491868D01*
X118227Y491923D01*
X117827Y491987D01*
X117429Y492061D01*
X117033Y492145D01*
X116638Y492239D01*
X116247Y492342D01*
X115857Y492455D01*
X115471Y492577D01*
X115088Y492709D01*
X114708Y492850D01*
X114332Y493001D01*
X113959Y493160D01*
X113591Y493329D01*
X113227Y493507D01*
X112867Y493693D01*
X112512Y493889D01*
X112162Y494093D01*
X111817Y494305D01*
X111478Y494526D01*
X111143Y494756D01*
X110815Y494993D01*
X110493Y495238D01*
X110176Y495492D01*
X109866Y495752D01*
X109563Y496021D01*
X109266Y496297D01*
X108976Y496580D01*
X108693Y496870D01*
X108417Y497167D01*
X108148Y497470D01*
X107888Y497780D01*
X107634Y498097D01*
X107389Y498419D01*
X107152Y498747D01*
X106922Y499082D01*
X106701Y499421D01*
X106489Y499766D01*
X106285Y500116D01*
X106089Y500471D01*
X105903Y500831D01*
X105725Y501195D01*
X105556Y501563D01*
X105397Y501936D01*
X105246Y502312D01*
X105105Y502692D01*
X104973Y503075D01*
X104851Y503461D01*
X104738Y503851D01*
X104635Y504242D01*
X104541Y504637D01*
X104457Y505033D01*
X104383Y505431D01*
X104319Y505831D01*
X104264Y506233D01*
X104220Y506636D01*
X104185Y507039D01*
X104160Y507444D01*
X104145Y507849D01*
X104140Y508254D01*
D15*
X127635Y455930D02*
X130175Y452755D01*
X127635Y455930D02*
X139065Y455930D01*
X139065Y452755D02*
X139065Y459105D01*
X127635Y78740D02*
X130175Y75565D01*
X127635Y78740D02*
X139065Y78740D01*
X139065Y75565D02*
X139065Y81915D01*
X139065Y86995D02*
X139065Y90170D01*
X139063Y90281D01*
X139057Y90391D01*
X139048Y90502D01*
X139034Y90612D01*
X139017Y90721D01*
X138996Y90830D01*
X138971Y90938D01*
X138942Y91045D01*
X138910Y91151D01*
X138874Y91256D01*
X138834Y91359D01*
X138791Y91461D01*
X138744Y91562D01*
X138693Y91661D01*
X138640Y91758D01*
X138583Y91852D01*
X138522Y91945D01*
X138459Y92036D01*
X138392Y92125D01*
X138322Y92211D01*
X138249Y92294D01*
X138174Y92376D01*
X138096Y92454D01*
X138014Y92529D01*
X137931Y92602D01*
X137845Y92672D01*
X137756Y92739D01*
X137665Y92802D01*
X137572Y92863D01*
X137478Y92920D01*
X137381Y92973D01*
X137282Y93024D01*
X137181Y93071D01*
X137079Y93114D01*
X136976Y93154D01*
X136871Y93190D01*
X136765Y93222D01*
X136658Y93251D01*
X136550Y93276D01*
X136441Y93297D01*
X136332Y93314D01*
X136222Y93328D01*
X136111Y93337D01*
X136001Y93343D01*
X135890Y93345D01*
X135779Y93343D01*
X135669Y93337D01*
X135558Y93328D01*
X135448Y93314D01*
X135339Y93297D01*
X135230Y93276D01*
X135122Y93251D01*
X135015Y93222D01*
X134909Y93190D01*
X134804Y93154D01*
X134701Y93114D01*
X134599Y93071D01*
X134498Y93024D01*
X134399Y92973D01*
X134303Y92920D01*
X134208Y92863D01*
X134115Y92802D01*
X134024Y92739D01*
X133935Y92672D01*
X133849Y92602D01*
X133766Y92529D01*
X133684Y92454D01*
X133606Y92376D01*
X133531Y92294D01*
X133458Y92211D01*
X133388Y92125D01*
X133321Y92036D01*
X133258Y91945D01*
X133197Y91852D01*
X133140Y91757D01*
X133087Y91661D01*
X133036Y91562D01*
X132989Y91461D01*
X132946Y91359D01*
X132906Y91256D01*
X132870Y91151D01*
X132838Y91045D01*
X132809Y90938D01*
X132784Y90830D01*
X132763Y90721D01*
X132746Y90612D01*
X132732Y90502D01*
X132723Y90391D01*
X132717Y90281D01*
X132715Y90170D01*
X127635Y90805D02*
X127635Y86995D01*
X127635Y90805D02*
X127637Y90905D01*
X127643Y91004D01*
X127653Y91104D01*
X127666Y91202D01*
X127684Y91301D01*
X127705Y91398D01*
X127730Y91494D01*
X127759Y91590D01*
X127792Y91684D01*
X127828Y91777D01*
X127868Y91868D01*
X127912Y91958D01*
X127959Y92046D01*
X128009Y92132D01*
X128063Y92216D01*
X128120Y92298D01*
X128180Y92377D01*
X128244Y92455D01*
X128310Y92529D01*
X128379Y92601D01*
X128451Y92670D01*
X128525Y92736D01*
X128603Y92800D01*
X128682Y92860D01*
X128764Y92917D01*
X128848Y92971D01*
X128934Y93021D01*
X129022Y93068D01*
X129112Y93112D01*
X129203Y93152D01*
X129296Y93188D01*
X129390Y93221D01*
X129486Y93250D01*
X129582Y93275D01*
X129679Y93296D01*
X129778Y93314D01*
X129876Y93327D01*
X129976Y93337D01*
X130075Y93343D01*
X130175Y93345D01*
X130275Y93343D01*
X130374Y93337D01*
X130474Y93327D01*
X130572Y93314D01*
X130671Y93296D01*
X130768Y93275D01*
X130864Y93250D01*
X130960Y93221D01*
X131054Y93188D01*
X131147Y93152D01*
X131238Y93112D01*
X131328Y93068D01*
X131416Y93021D01*
X131502Y92971D01*
X131586Y92917D01*
X131668Y92860D01*
X131747Y92800D01*
X131825Y92736D01*
X131899Y92670D01*
X131971Y92601D01*
X132040Y92529D01*
X132106Y92455D01*
X132170Y92377D01*
X132230Y92298D01*
X132287Y92216D01*
X132341Y92132D01*
X132391Y92046D01*
X132438Y91958D01*
X132482Y91868D01*
X132522Y91777D01*
X132558Y91684D01*
X132591Y91590D01*
X132620Y91494D01*
X132645Y91398D01*
X132666Y91301D01*
X132684Y91202D01*
X132697Y91104D01*
X132707Y91004D01*
X132713Y90905D01*
X132715Y90805D01*
X132715Y88265D01*
X103505Y452755D02*
X100965Y455930D01*
X112395Y455930D01*
X112395Y452755D02*
X112395Y459105D01*
X109855Y464185D02*
X100965Y466725D01*
X109855Y464185D02*
X109855Y470535D01*
X107315Y468630D02*
X112395Y468630D01*
X105093Y84456D02*
X104989Y84454D01*
X104884Y84448D01*
X104780Y84439D01*
X104677Y84426D01*
X104574Y84408D01*
X104472Y84388D01*
X104370Y84363D01*
X104270Y84335D01*
X104170Y84303D01*
X104072Y84267D01*
X103975Y84228D01*
X103880Y84186D01*
X103786Y84140D01*
X103694Y84090D01*
X103604Y84038D01*
X103516Y83982D01*
X103430Y83922D01*
X103346Y83860D01*
X103265Y83795D01*
X103186Y83727D01*
X103109Y83655D01*
X103036Y83582D01*
X102964Y83505D01*
X102896Y83426D01*
X102831Y83345D01*
X102769Y83261D01*
X102709Y83175D01*
X102653Y83087D01*
X102601Y82997D01*
X102551Y82905D01*
X102505Y82811D01*
X102463Y82716D01*
X102424Y82619D01*
X102388Y82521D01*
X102356Y82421D01*
X102328Y82321D01*
X102303Y82219D01*
X102283Y82117D01*
X102265Y82014D01*
X102252Y81911D01*
X102243Y81807D01*
X102237Y81702D01*
X102235Y81598D01*
X102237Y81480D01*
X102243Y81361D01*
X102252Y81243D01*
X102265Y81126D01*
X102283Y81009D01*
X102303Y80892D01*
X102328Y80776D01*
X102356Y80661D01*
X102389Y80548D01*
X102424Y80435D01*
X102464Y80323D01*
X102506Y80213D01*
X102553Y80104D01*
X102603Y79996D01*
X102656Y79891D01*
X102713Y79787D01*
X102773Y79685D01*
X102836Y79585D01*
X102903Y79487D01*
X102972Y79391D01*
X103045Y79298D01*
X103121Y79207D01*
X103199Y79118D01*
X103281Y79032D01*
X103365Y78949D01*
X103451Y78868D01*
X103541Y78791D01*
X103632Y78716D01*
X103726Y78644D01*
X103823Y78575D01*
X103921Y78510D01*
X104022Y78447D01*
X104125Y78388D01*
X104229Y78332D01*
X104335Y78280D01*
X104443Y78231D01*
X104552Y78186D01*
X104663Y78144D01*
X104775Y78106D01*
X107315Y83503D02*
X107240Y83579D01*
X107161Y83654D01*
X107080Y83725D01*
X106996Y83794D01*
X106910Y83859D01*
X106822Y83921D01*
X106732Y83981D01*
X106640Y84037D01*
X106545Y84090D01*
X106449Y84139D01*
X106351Y84185D01*
X106252Y84228D01*
X106151Y84267D01*
X106049Y84302D01*
X105946Y84334D01*
X105842Y84362D01*
X105737Y84387D01*
X105630Y84408D01*
X105524Y84425D01*
X105417Y84438D01*
X105309Y84447D01*
X105201Y84453D01*
X105093Y84455D01*
X107315Y83503D02*
X113665Y78105D01*
X113665Y84455D01*
X113665Y89535D02*
X113665Y93345D01*
X113663Y93445D01*
X113657Y93544D01*
X113647Y93644D01*
X113634Y93742D01*
X113616Y93841D01*
X113595Y93938D01*
X113570Y94034D01*
X113541Y94130D01*
X113508Y94224D01*
X113472Y94317D01*
X113432Y94408D01*
X113388Y94498D01*
X113341Y94586D01*
X113291Y94672D01*
X113237Y94756D01*
X113180Y94838D01*
X113120Y94917D01*
X113056Y94995D01*
X112990Y95069D01*
X112921Y95141D01*
X112849Y95210D01*
X112775Y95276D01*
X112697Y95340D01*
X112618Y95400D01*
X112536Y95457D01*
X112452Y95511D01*
X112366Y95561D01*
X112278Y95608D01*
X112188Y95652D01*
X112097Y95692D01*
X112004Y95728D01*
X111910Y95761D01*
X111814Y95790D01*
X111718Y95815D01*
X111621Y95836D01*
X111522Y95854D01*
X111424Y95867D01*
X111324Y95877D01*
X111225Y95883D01*
X111125Y95885D01*
X109855Y95885D01*
X109755Y95883D01*
X109656Y95877D01*
X109556Y95867D01*
X109458Y95854D01*
X109359Y95836D01*
X109262Y95815D01*
X109166Y95790D01*
X109070Y95761D01*
X108976Y95728D01*
X108883Y95692D01*
X108792Y95652D01*
X108702Y95608D01*
X108614Y95561D01*
X108528Y95511D01*
X108444Y95457D01*
X108362Y95400D01*
X108283Y95340D01*
X108205Y95276D01*
X108131Y95210D01*
X108059Y95141D01*
X107990Y95069D01*
X107924Y94995D01*
X107860Y94917D01*
X107800Y94838D01*
X107743Y94756D01*
X107689Y94672D01*
X107639Y94586D01*
X107592Y94498D01*
X107548Y94408D01*
X107508Y94317D01*
X107472Y94224D01*
X107439Y94130D01*
X107410Y94034D01*
X107385Y93938D01*
X107364Y93841D01*
X107346Y93742D01*
X107333Y93644D01*
X107323Y93544D01*
X107317Y93445D01*
X107315Y93345D01*
X107315Y89535D01*
X102235Y89535D01*
X102235Y95885D01*
X59056Y528638D02*
X59054Y528742D01*
X59048Y528847D01*
X59039Y528951D01*
X59026Y529054D01*
X59008Y529157D01*
X58988Y529259D01*
X58963Y529361D01*
X58935Y529461D01*
X58903Y529561D01*
X58867Y529659D01*
X58828Y529756D01*
X58786Y529851D01*
X58740Y529945D01*
X58690Y530037D01*
X58638Y530127D01*
X58582Y530215D01*
X58522Y530301D01*
X58460Y530385D01*
X58395Y530466D01*
X58327Y530545D01*
X58255Y530622D01*
X58182Y530695D01*
X58105Y530767D01*
X58026Y530835D01*
X57945Y530900D01*
X57861Y530962D01*
X57775Y531022D01*
X57687Y531078D01*
X57597Y531130D01*
X57505Y531180D01*
X57411Y531226D01*
X57316Y531268D01*
X57219Y531307D01*
X57121Y531343D01*
X57021Y531375D01*
X56921Y531403D01*
X56819Y531428D01*
X56717Y531448D01*
X56614Y531466D01*
X56511Y531479D01*
X56407Y531488D01*
X56302Y531494D01*
X56198Y531496D01*
X56198Y531495D02*
X56080Y531493D01*
X55961Y531487D01*
X55843Y531478D01*
X55726Y531465D01*
X55609Y531447D01*
X55492Y531427D01*
X55376Y531402D01*
X55261Y531374D01*
X55148Y531341D01*
X55035Y531306D01*
X54923Y531266D01*
X54813Y531224D01*
X54704Y531177D01*
X54596Y531127D01*
X54491Y531074D01*
X54387Y531017D01*
X54285Y530957D01*
X54185Y530894D01*
X54087Y530827D01*
X53991Y530758D01*
X53898Y530685D01*
X53807Y530609D01*
X53718Y530531D01*
X53632Y530449D01*
X53549Y530365D01*
X53468Y530279D01*
X53391Y530189D01*
X53316Y530098D01*
X53244Y530004D01*
X53175Y529907D01*
X53110Y529809D01*
X53047Y529708D01*
X52988Y529605D01*
X52932Y529501D01*
X52880Y529395D01*
X52831Y529287D01*
X52786Y529178D01*
X52744Y529067D01*
X52706Y528955D01*
X58103Y526416D02*
X58179Y526491D01*
X58254Y526570D01*
X58325Y526651D01*
X58394Y526735D01*
X58459Y526821D01*
X58521Y526909D01*
X58581Y526999D01*
X58637Y527091D01*
X58690Y527186D01*
X58739Y527282D01*
X58785Y527380D01*
X58828Y527479D01*
X58867Y527580D01*
X58902Y527682D01*
X58934Y527785D01*
X58962Y527889D01*
X58987Y527994D01*
X59008Y528101D01*
X59025Y528207D01*
X59038Y528314D01*
X59047Y528422D01*
X59053Y528530D01*
X59055Y528638D01*
X58103Y526415D02*
X52705Y520065D01*
X59055Y520065D01*
X63515Y520065D02*
X64150Y520065D01*
X63515Y520065D02*
X63515Y520700D01*
X64150Y520700D01*
X64150Y520065D01*
X63197Y517525D01*
X68707Y520065D02*
X72517Y520065D01*
X72617Y520067D01*
X72716Y520073D01*
X72816Y520083D01*
X72914Y520096D01*
X73013Y520114D01*
X73110Y520135D01*
X73206Y520160D01*
X73302Y520189D01*
X73396Y520222D01*
X73489Y520258D01*
X73580Y520298D01*
X73670Y520342D01*
X73758Y520389D01*
X73844Y520439D01*
X73928Y520493D01*
X74010Y520550D01*
X74089Y520610D01*
X74167Y520674D01*
X74241Y520740D01*
X74313Y520809D01*
X74382Y520881D01*
X74448Y520955D01*
X74512Y521033D01*
X74572Y521112D01*
X74629Y521194D01*
X74683Y521278D01*
X74733Y521364D01*
X74780Y521452D01*
X74824Y521542D01*
X74864Y521633D01*
X74900Y521726D01*
X74933Y521820D01*
X74962Y521916D01*
X74987Y522012D01*
X75008Y522109D01*
X75026Y522208D01*
X75039Y522306D01*
X75049Y522406D01*
X75055Y522505D01*
X75057Y522605D01*
X75057Y523875D01*
X75055Y523975D01*
X75049Y524074D01*
X75039Y524174D01*
X75026Y524272D01*
X75008Y524371D01*
X74987Y524468D01*
X74962Y524564D01*
X74933Y524660D01*
X74900Y524754D01*
X74864Y524847D01*
X74824Y524938D01*
X74780Y525028D01*
X74733Y525116D01*
X74683Y525202D01*
X74629Y525286D01*
X74572Y525368D01*
X74512Y525447D01*
X74448Y525525D01*
X74382Y525599D01*
X74313Y525671D01*
X74241Y525740D01*
X74167Y525806D01*
X74089Y525870D01*
X74010Y525930D01*
X73928Y525987D01*
X73844Y526041D01*
X73758Y526091D01*
X73670Y526138D01*
X73580Y526182D01*
X73489Y526222D01*
X73396Y526258D01*
X73302Y526291D01*
X73206Y526320D01*
X73110Y526345D01*
X73013Y526366D01*
X72914Y526384D01*
X72816Y526397D01*
X72716Y526407D01*
X72617Y526413D01*
X72517Y526415D01*
X68707Y526415D01*
X68707Y531495D01*
X75057Y531495D01*
X82677Y531495D02*
X80137Y522605D01*
X86487Y522605D01*
X84582Y525145D02*
X84582Y520065D01*
X34925Y428117D02*
X23495Y428117D01*
X29845Y431927D01*
X23495Y435737D01*
X34925Y435737D01*
X23495Y444818D02*
X23497Y444922D01*
X23503Y445027D01*
X23512Y445131D01*
X23525Y445234D01*
X23543Y445337D01*
X23563Y445439D01*
X23588Y445541D01*
X23616Y445641D01*
X23648Y445741D01*
X23684Y445839D01*
X23723Y445936D01*
X23765Y446031D01*
X23811Y446125D01*
X23861Y446217D01*
X23913Y446307D01*
X23969Y446395D01*
X24029Y446481D01*
X24091Y446565D01*
X24156Y446646D01*
X24224Y446725D01*
X24296Y446802D01*
X24369Y446875D01*
X24446Y446947D01*
X24525Y447015D01*
X24606Y447080D01*
X24690Y447142D01*
X24776Y447202D01*
X24864Y447258D01*
X24954Y447310D01*
X25046Y447360D01*
X25140Y447406D01*
X25235Y447448D01*
X25332Y447487D01*
X25430Y447523D01*
X25530Y447555D01*
X25630Y447583D01*
X25732Y447608D01*
X25834Y447628D01*
X25937Y447646D01*
X26040Y447659D01*
X26144Y447668D01*
X26249Y447674D01*
X26353Y447676D01*
X23495Y444818D02*
X23497Y444700D01*
X23503Y444581D01*
X23512Y444463D01*
X23525Y444346D01*
X23543Y444229D01*
X23563Y444112D01*
X23588Y443996D01*
X23616Y443881D01*
X23649Y443768D01*
X23684Y443655D01*
X23724Y443543D01*
X23766Y443433D01*
X23813Y443324D01*
X23863Y443216D01*
X23916Y443111D01*
X23973Y443007D01*
X24033Y442905D01*
X24096Y442805D01*
X24163Y442707D01*
X24232Y442611D01*
X24305Y442518D01*
X24381Y442427D01*
X24459Y442338D01*
X24541Y442252D01*
X24625Y442169D01*
X24711Y442088D01*
X24801Y442011D01*
X24892Y441936D01*
X24986Y441864D01*
X25083Y441795D01*
X25181Y441730D01*
X25282Y441667D01*
X25385Y441608D01*
X25489Y441552D01*
X25595Y441500D01*
X25703Y441451D01*
X25812Y441406D01*
X25923Y441364D01*
X26035Y441326D01*
X28575Y446723D02*
X28500Y446799D01*
X28421Y446874D01*
X28340Y446945D01*
X28256Y447014D01*
X28170Y447079D01*
X28082Y447141D01*
X27992Y447201D01*
X27900Y447257D01*
X27805Y447310D01*
X27709Y447359D01*
X27611Y447405D01*
X27512Y447448D01*
X27411Y447487D01*
X27309Y447522D01*
X27206Y447554D01*
X27102Y447582D01*
X26997Y447607D01*
X26890Y447628D01*
X26784Y447645D01*
X26677Y447658D01*
X26569Y447667D01*
X26461Y447673D01*
X26353Y447675D01*
X28575Y446723D02*
X34925Y441325D01*
X34925Y447675D01*
X34925Y452755D02*
X34925Y456565D01*
X34923Y456665D01*
X34917Y456764D01*
X34907Y456864D01*
X34894Y456962D01*
X34876Y457061D01*
X34855Y457158D01*
X34830Y457254D01*
X34801Y457350D01*
X34768Y457444D01*
X34732Y457537D01*
X34692Y457628D01*
X34648Y457718D01*
X34601Y457806D01*
X34551Y457892D01*
X34497Y457976D01*
X34440Y458058D01*
X34380Y458137D01*
X34316Y458215D01*
X34250Y458289D01*
X34181Y458361D01*
X34109Y458430D01*
X34035Y458496D01*
X33957Y458560D01*
X33878Y458620D01*
X33796Y458677D01*
X33712Y458731D01*
X33626Y458781D01*
X33538Y458828D01*
X33448Y458872D01*
X33357Y458912D01*
X33264Y458948D01*
X33170Y458981D01*
X33074Y459010D01*
X32978Y459035D01*
X32881Y459056D01*
X32782Y459074D01*
X32684Y459087D01*
X32584Y459097D01*
X32485Y459103D01*
X32385Y459105D01*
X31115Y459105D01*
X31015Y459103D01*
X30916Y459097D01*
X30816Y459087D01*
X30718Y459074D01*
X30619Y459056D01*
X30522Y459035D01*
X30426Y459010D01*
X30330Y458981D01*
X30236Y458948D01*
X30143Y458912D01*
X30052Y458872D01*
X29962Y458828D01*
X29874Y458781D01*
X29788Y458731D01*
X29704Y458677D01*
X29622Y458620D01*
X29543Y458560D01*
X29465Y458496D01*
X29391Y458430D01*
X29319Y458361D01*
X29250Y458289D01*
X29184Y458215D01*
X29120Y458137D01*
X29060Y458058D01*
X29003Y457976D01*
X28949Y457892D01*
X28899Y457806D01*
X28852Y457718D01*
X28808Y457628D01*
X28768Y457537D01*
X28732Y457444D01*
X28699Y457350D01*
X28670Y457254D01*
X28645Y457158D01*
X28624Y457061D01*
X28606Y456962D01*
X28593Y456864D01*
X28583Y456764D01*
X28577Y456665D01*
X28575Y456565D01*
X28575Y452755D01*
X23495Y452755D01*
X23495Y459105D01*
D16*
X26035Y64770D03*
X26035Y481330D03*
D17*
X52705Y37338D03*
X52705Y508762D03*
D18*
X6350Y273050D03*
D19*
X48260Y273050D03*
D20*
X88265Y438658D03*
D21*
X75565Y424942D03*
D20*
X88265Y410972D03*
D21*
X75565Y397256D03*
D20*
X88265Y383540D03*
D21*
X75565Y369570D03*
D20*
X88265Y355854D03*
D21*
X75565Y342138D03*
D20*
X88265Y328168D03*
D21*
X75565Y314452D03*
D20*
X88265Y300736D03*
D21*
X75565Y286766D03*
D20*
X88265Y273050D03*
D21*
X75565Y259334D03*
D20*
X88265Y245364D03*
D21*
X75565Y231648D03*
D20*
X88265Y217932D03*
D21*
X75565Y203962D03*
D20*
X88265Y190246D03*
D21*
X75565Y176530D03*
D20*
X88265Y162560D03*
D21*
X75565Y148844D03*
D20*
X88265Y135128D03*
D21*
X75565Y121158D03*
D20*
X88265Y107442D03*
D22*
X74041Y509641D02*
X58039Y520309D01*
X58039Y509641D02*
X74041Y520309D01*
X61595Y526161D02*
X58039Y530606D01*
X74041Y530606D01*
X74041Y526161D02*
X74041Y535051D01*
D23*
X269300Y213300D03*
D11*
X274300Y276300D02*
X276300Y276300D01*
X276300Y274300D01*
X206300Y274300D02*
X206300Y276300D01*
X208300Y276300D01*
X208300Y206300D02*
X206300Y206300D01*
X206300Y208300D01*
X273300Y207300D02*
X275300Y209300D01*
D10*
X281206Y202692D02*
X281206Y191008D01*
X279908Y191008D02*
X282504Y191008D01*
X282504Y202692D02*
X279908Y202692D01*
X289668Y191008D02*
X292264Y191008D01*
X289668Y191008D02*
X289569Y191010D01*
X289469Y191016D01*
X289370Y191025D01*
X289272Y191038D01*
X289174Y191055D01*
X289076Y191076D01*
X288980Y191101D01*
X288885Y191129D01*
X288791Y191161D01*
X288698Y191196D01*
X288606Y191235D01*
X288516Y191278D01*
X288428Y191323D01*
X288341Y191373D01*
X288257Y191425D01*
X288174Y191481D01*
X288094Y191539D01*
X288016Y191601D01*
X287941Y191666D01*
X287868Y191734D01*
X287798Y191804D01*
X287730Y191877D01*
X287665Y191952D01*
X287603Y192030D01*
X287545Y192110D01*
X287489Y192193D01*
X287437Y192277D01*
X287387Y192364D01*
X287342Y192452D01*
X287299Y192542D01*
X287260Y192634D01*
X287225Y192727D01*
X287193Y192821D01*
X287165Y192916D01*
X287140Y193012D01*
X287119Y193110D01*
X287102Y193208D01*
X287089Y193306D01*
X287080Y193405D01*
X287074Y193505D01*
X287072Y193604D01*
X287071Y193604D02*
X287071Y200096D01*
X287072Y200096D02*
X287074Y200195D01*
X287080Y200295D01*
X287089Y200394D01*
X287102Y200492D01*
X287119Y200590D01*
X287140Y200688D01*
X287165Y200784D01*
X287193Y200879D01*
X287225Y200973D01*
X287260Y201066D01*
X287299Y201158D01*
X287342Y201248D01*
X287387Y201336D01*
X287437Y201423D01*
X287489Y201507D01*
X287545Y201590D01*
X287603Y201670D01*
X287665Y201748D01*
X287730Y201823D01*
X287798Y201896D01*
X287868Y201966D01*
X287941Y202034D01*
X288016Y202099D01*
X288094Y202161D01*
X288174Y202219D01*
X288257Y202275D01*
X288341Y202327D01*
X288428Y202377D01*
X288516Y202422D01*
X288606Y202465D01*
X288698Y202504D01*
X288790Y202539D01*
X288885Y202571D01*
X288980Y202599D01*
X289076Y202624D01*
X289174Y202645D01*
X289272Y202662D01*
X289370Y202675D01*
X289469Y202684D01*
X289569Y202690D01*
X289668Y202692D01*
X292264Y202692D01*
X300200Y202692D02*
X300307Y202690D01*
X300413Y202684D01*
X300519Y202674D01*
X300625Y202661D01*
X300731Y202643D01*
X300835Y202622D01*
X300939Y202597D01*
X301042Y202568D01*
X301143Y202536D01*
X301243Y202499D01*
X301342Y202459D01*
X301440Y202416D01*
X301536Y202369D01*
X301630Y202318D01*
X301722Y202264D01*
X301812Y202207D01*
X301900Y202147D01*
X301985Y202083D01*
X302068Y202016D01*
X302149Y201946D01*
X302227Y201874D01*
X302303Y201798D01*
X302375Y201720D01*
X302445Y201639D01*
X302512Y201556D01*
X302576Y201471D01*
X302636Y201383D01*
X302693Y201293D01*
X302747Y201201D01*
X302798Y201107D01*
X302845Y201011D01*
X302888Y200913D01*
X302928Y200814D01*
X302965Y200714D01*
X302997Y200613D01*
X303026Y200510D01*
X303051Y200406D01*
X303072Y200302D01*
X303090Y200196D01*
X303103Y200090D01*
X303113Y199984D01*
X303119Y199878D01*
X303121Y199771D01*
X300200Y202692D02*
X300079Y202690D01*
X299958Y202684D01*
X299838Y202674D01*
X299717Y202661D01*
X299598Y202643D01*
X299478Y202622D01*
X299360Y202597D01*
X299243Y202568D01*
X299126Y202535D01*
X299011Y202499D01*
X298897Y202458D01*
X298784Y202415D01*
X298672Y202367D01*
X298563Y202316D01*
X298455Y202261D01*
X298348Y202203D01*
X298244Y202142D01*
X298142Y202077D01*
X298042Y202009D01*
X297944Y201938D01*
X297848Y201864D01*
X297755Y201787D01*
X297665Y201706D01*
X297577Y201623D01*
X297492Y201537D01*
X297409Y201448D01*
X297330Y201357D01*
X297253Y201263D01*
X297180Y201167D01*
X297110Y201069D01*
X297043Y200968D01*
X296979Y200865D01*
X296919Y200760D01*
X296862Y200653D01*
X296808Y200545D01*
X296758Y200435D01*
X296712Y200323D01*
X296669Y200210D01*
X296630Y200095D01*
X302147Y197499D02*
X302226Y197576D01*
X302302Y197657D01*
X302375Y197740D01*
X302445Y197825D01*
X302512Y197913D01*
X302576Y198003D01*
X302636Y198095D01*
X302693Y198190D01*
X302747Y198286D01*
X302798Y198384D01*
X302845Y198484D01*
X302889Y198586D01*
X302929Y198689D01*
X302965Y198793D01*
X302997Y198899D01*
X303026Y199005D01*
X303051Y199113D01*
X303073Y199221D01*
X303090Y199331D01*
X303104Y199440D01*
X303113Y199550D01*
X303119Y199661D01*
X303121Y199771D01*
X302147Y197499D02*
X296630Y191008D01*
X303121Y191008D01*
X371404Y222758D02*
X374001Y222758D01*
X371404Y222758D02*
X371305Y222760D01*
X371205Y222766D01*
X371106Y222775D01*
X371008Y222788D01*
X370910Y222805D01*
X370812Y222826D01*
X370716Y222851D01*
X370621Y222879D01*
X370527Y222911D01*
X370434Y222946D01*
X370342Y222985D01*
X370252Y223028D01*
X370164Y223073D01*
X370077Y223123D01*
X369993Y223175D01*
X369910Y223231D01*
X369830Y223289D01*
X369752Y223351D01*
X369677Y223416D01*
X369604Y223484D01*
X369534Y223554D01*
X369466Y223627D01*
X369401Y223702D01*
X369339Y223780D01*
X369281Y223860D01*
X369225Y223943D01*
X369173Y224027D01*
X369123Y224114D01*
X369078Y224202D01*
X369035Y224292D01*
X368996Y224384D01*
X368961Y224477D01*
X368929Y224571D01*
X368901Y224666D01*
X368876Y224762D01*
X368855Y224860D01*
X368838Y224958D01*
X368825Y225056D01*
X368816Y225155D01*
X368810Y225255D01*
X368808Y225354D01*
X368808Y231846D01*
X368810Y231945D01*
X368816Y232045D01*
X368825Y232144D01*
X368838Y232242D01*
X368855Y232340D01*
X368876Y232438D01*
X368901Y232534D01*
X368929Y232629D01*
X368961Y232723D01*
X368996Y232816D01*
X369035Y232908D01*
X369078Y232998D01*
X369123Y233086D01*
X369173Y233173D01*
X369225Y233257D01*
X369281Y233340D01*
X369339Y233420D01*
X369401Y233498D01*
X369466Y233573D01*
X369534Y233646D01*
X369604Y233716D01*
X369677Y233784D01*
X369752Y233849D01*
X369830Y233911D01*
X369910Y233969D01*
X369993Y234025D01*
X370077Y234077D01*
X370164Y234127D01*
X370252Y234172D01*
X370342Y234215D01*
X370434Y234254D01*
X370526Y234289D01*
X370621Y234321D01*
X370716Y234349D01*
X370812Y234374D01*
X370910Y234395D01*
X371008Y234412D01*
X371106Y234425D01*
X371205Y234434D01*
X371305Y234440D01*
X371404Y234442D01*
X374001Y234442D01*
X378366Y222758D02*
X381612Y222758D01*
X381725Y222760D01*
X381838Y222766D01*
X381951Y222776D01*
X382064Y222790D01*
X382176Y222807D01*
X382287Y222829D01*
X382397Y222854D01*
X382507Y222884D01*
X382615Y222917D01*
X382722Y222954D01*
X382828Y222994D01*
X382932Y223039D01*
X383035Y223087D01*
X383136Y223138D01*
X383235Y223193D01*
X383332Y223251D01*
X383427Y223313D01*
X383520Y223378D01*
X383610Y223446D01*
X383698Y223517D01*
X383784Y223592D01*
X383867Y223669D01*
X383947Y223749D01*
X384024Y223832D01*
X384099Y223918D01*
X384170Y224006D01*
X384238Y224096D01*
X384303Y224189D01*
X384365Y224284D01*
X384423Y224381D01*
X384478Y224480D01*
X384529Y224581D01*
X384577Y224684D01*
X384622Y224788D01*
X384662Y224894D01*
X384699Y225001D01*
X384732Y225109D01*
X384762Y225219D01*
X384787Y225329D01*
X384809Y225440D01*
X384826Y225552D01*
X384840Y225665D01*
X384850Y225778D01*
X384856Y225891D01*
X384858Y226004D01*
X384856Y226117D01*
X384850Y226230D01*
X384840Y226343D01*
X384826Y226456D01*
X384809Y226568D01*
X384787Y226679D01*
X384762Y226789D01*
X384732Y226899D01*
X384699Y227007D01*
X384662Y227114D01*
X384622Y227220D01*
X384577Y227324D01*
X384529Y227427D01*
X384478Y227528D01*
X384423Y227627D01*
X384365Y227724D01*
X384303Y227819D01*
X384238Y227912D01*
X384170Y228002D01*
X384099Y228090D01*
X384024Y228176D01*
X383947Y228259D01*
X383867Y228339D01*
X383784Y228416D01*
X383698Y228491D01*
X383610Y228562D01*
X383520Y228630D01*
X383427Y228695D01*
X383332Y228757D01*
X383235Y228815D01*
X383136Y228870D01*
X383035Y228921D01*
X382932Y228969D01*
X382828Y229014D01*
X382722Y229054D01*
X382615Y229091D01*
X382507Y229124D01*
X382397Y229154D01*
X382287Y229179D01*
X382176Y229201D01*
X382064Y229218D01*
X381951Y229232D01*
X381838Y229242D01*
X381725Y229248D01*
X381612Y229250D01*
X382261Y234442D02*
X378366Y234442D01*
X382261Y234442D02*
X382362Y234440D01*
X382462Y234434D01*
X382562Y234424D01*
X382662Y234411D01*
X382761Y234393D01*
X382860Y234372D01*
X382957Y234347D01*
X383054Y234318D01*
X383149Y234285D01*
X383243Y234249D01*
X383335Y234209D01*
X383426Y234166D01*
X383515Y234119D01*
X383602Y234069D01*
X383688Y234015D01*
X383771Y233958D01*
X383851Y233898D01*
X383930Y233835D01*
X384006Y233768D01*
X384079Y233699D01*
X384149Y233627D01*
X384217Y233553D01*
X384282Y233476D01*
X384343Y233396D01*
X384402Y233314D01*
X384457Y233230D01*
X384509Y233144D01*
X384558Y233056D01*
X384603Y232966D01*
X384645Y232874D01*
X384683Y232781D01*
X384717Y232686D01*
X384748Y232591D01*
X384775Y232494D01*
X384798Y232396D01*
X384818Y232297D01*
X384833Y232197D01*
X384845Y232097D01*
X384853Y231997D01*
X384857Y231896D01*
X384857Y231796D01*
X384853Y231695D01*
X384845Y231595D01*
X384833Y231495D01*
X384818Y231395D01*
X384798Y231296D01*
X384775Y231198D01*
X384748Y231101D01*
X384717Y231006D01*
X384683Y230911D01*
X384645Y230818D01*
X384603Y230726D01*
X384558Y230636D01*
X384509Y230548D01*
X384457Y230462D01*
X384402Y230378D01*
X384343Y230296D01*
X384282Y230216D01*
X384217Y230139D01*
X384149Y230065D01*
X384079Y229993D01*
X384006Y229924D01*
X383930Y229857D01*
X383851Y229794D01*
X383771Y229734D01*
X383688Y229677D01*
X383602Y229623D01*
X383515Y229573D01*
X383426Y229526D01*
X383335Y229483D01*
X383243Y229443D01*
X383149Y229407D01*
X383054Y229374D01*
X382957Y229345D01*
X382860Y229320D01*
X382761Y229299D01*
X382662Y229281D01*
X382562Y229268D01*
X382462Y229258D01*
X382362Y229252D01*
X382261Y229250D01*
X382261Y229249D02*
X379664Y229249D01*
X310642Y250754D02*
X310642Y253351D01*
X310642Y250754D02*
X310640Y250655D01*
X310634Y250555D01*
X310625Y250456D01*
X310612Y250358D01*
X310595Y250260D01*
X310574Y250162D01*
X310549Y250066D01*
X310521Y249971D01*
X310489Y249877D01*
X310454Y249784D01*
X310415Y249692D01*
X310372Y249602D01*
X310327Y249514D01*
X310277Y249427D01*
X310225Y249343D01*
X310169Y249260D01*
X310111Y249180D01*
X310049Y249102D01*
X309984Y249027D01*
X309916Y248954D01*
X309846Y248884D01*
X309773Y248816D01*
X309698Y248751D01*
X309620Y248689D01*
X309540Y248631D01*
X309457Y248575D01*
X309373Y248523D01*
X309286Y248473D01*
X309198Y248428D01*
X309108Y248385D01*
X309016Y248346D01*
X308923Y248311D01*
X308829Y248279D01*
X308734Y248251D01*
X308638Y248226D01*
X308540Y248205D01*
X308442Y248188D01*
X308344Y248175D01*
X308245Y248166D01*
X308145Y248160D01*
X308046Y248158D01*
X301554Y248158D01*
X301455Y248160D01*
X301355Y248166D01*
X301256Y248175D01*
X301158Y248188D01*
X301060Y248206D01*
X300962Y248226D01*
X300866Y248251D01*
X300770Y248279D01*
X300676Y248311D01*
X300583Y248346D01*
X300492Y248385D01*
X300402Y248428D01*
X300313Y248473D01*
X300227Y248523D01*
X300142Y248575D01*
X300060Y248631D01*
X299980Y248690D01*
X299902Y248751D01*
X299826Y248816D01*
X299753Y248884D01*
X299683Y248954D01*
X299615Y249027D01*
X299550Y249103D01*
X299489Y249181D01*
X299430Y249261D01*
X299374Y249343D01*
X299322Y249428D01*
X299273Y249514D01*
X299227Y249603D01*
X299184Y249693D01*
X299145Y249784D01*
X299110Y249877D01*
X299078Y249971D01*
X299050Y250067D01*
X299025Y250163D01*
X299005Y250261D01*
X298987Y250359D01*
X298974Y250457D01*
X298965Y250556D01*
X298959Y250655D01*
X298957Y250755D01*
X298958Y250754D02*
X298958Y253351D01*
X298958Y260313D02*
X308046Y257716D01*
X308046Y264207D01*
X305449Y262260D02*
X310642Y262260D01*
X422250Y350000D02*
X445250Y350000D01*
X445250Y302000D01*
X428250Y285000D01*
X422250Y285000D01*
X403250Y285000D02*
X397250Y285000D01*
X380250Y302000D01*
X380250Y350000D01*
X403250Y350000D01*
X422250Y347000D02*
X422968Y346759D01*
X423681Y346500D01*
X424386Y346224D01*
X425085Y345931D01*
X425777Y345621D01*
X426460Y345294D01*
X427136Y344951D01*
X427803Y344591D01*
X428461Y344215D01*
X429109Y343823D01*
X429748Y343415D01*
X430376Y342992D01*
X430994Y342553D01*
X431601Y342100D01*
X432197Y341631D01*
X432781Y341149D01*
X433353Y340652D01*
X433913Y340141D01*
X434460Y339617D01*
X434995Y339080D01*
X435516Y338529D01*
X436023Y337966D01*
X436516Y337391D01*
X436996Y336804D01*
X437460Y336206D01*
X437910Y335596D01*
X438345Y334975D01*
X438765Y334344D01*
X439169Y333703D01*
X439557Y333053D01*
X439929Y332392D01*
X440285Y331724D01*
X440625Y331046D01*
X440948Y330360D01*
X441254Y329667D01*
X441543Y328967D01*
X441814Y328259D01*
X442069Y327546D01*
X442306Y326826D01*
X442525Y326100D01*
X442726Y325370D01*
X442910Y324635D01*
X443075Y323895D01*
X443222Y323152D01*
X443351Y322405D01*
X443462Y321655D01*
X443555Y320903D01*
X443629Y320149D01*
X443684Y319393D01*
X443721Y318636D01*
X443740Y317879D01*
X443740Y317121D01*
X443721Y316364D01*
X443684Y315607D01*
X443629Y314851D01*
X443555Y314097D01*
X443462Y313345D01*
X443351Y312595D01*
X443222Y311848D01*
X443075Y311105D01*
X442910Y310365D01*
X442726Y309630D01*
X442525Y308900D01*
X442306Y308174D01*
X442069Y307454D01*
X441814Y306741D01*
X441543Y306033D01*
X441254Y305333D01*
X440948Y304640D01*
X440625Y303954D01*
X440285Y303276D01*
X439929Y302608D01*
X439557Y301947D01*
X439169Y301297D01*
X438765Y300656D01*
X438345Y300025D01*
X437910Y299404D01*
X437460Y298794D01*
X436996Y298196D01*
X436516Y297609D01*
X436023Y297034D01*
X435516Y296471D01*
X434995Y295920D01*
X434460Y295383D01*
X433913Y294859D01*
X433353Y294348D01*
X432781Y293851D01*
X432197Y293369D01*
X431601Y292900D01*
X430994Y292447D01*
X430376Y292008D01*
X429748Y291585D01*
X429109Y291177D01*
X428461Y290785D01*
X427803Y290409D01*
X427136Y290049D01*
X426460Y289706D01*
X425777Y289379D01*
X425085Y289069D01*
X424386Y288776D01*
X423681Y288500D01*
X422968Y288241D01*
X422250Y288000D01*
X403250Y288000D02*
X402532Y288241D01*
X401819Y288500D01*
X401114Y288776D01*
X400415Y289069D01*
X399723Y289379D01*
X399040Y289706D01*
X398364Y290049D01*
X397697Y290409D01*
X397039Y290785D01*
X396391Y291177D01*
X395752Y291585D01*
X395124Y292008D01*
X394506Y292447D01*
X393899Y292900D01*
X393303Y293369D01*
X392719Y293851D01*
X392147Y294348D01*
X391587Y294859D01*
X391040Y295383D01*
X390505Y295920D01*
X389984Y296471D01*
X389477Y297034D01*
X388984Y297609D01*
X388504Y298196D01*
X388040Y298794D01*
X387590Y299404D01*
X387155Y300025D01*
X386735Y300656D01*
X386331Y301297D01*
X385943Y301947D01*
X385571Y302608D01*
X385215Y303276D01*
X384875Y303954D01*
X384552Y304640D01*
X384246Y305333D01*
X383957Y306033D01*
X383686Y306741D01*
X383431Y307454D01*
X383194Y308174D01*
X382975Y308900D01*
X382774Y309630D01*
X382590Y310365D01*
X382425Y311105D01*
X382278Y311848D01*
X382149Y312595D01*
X382038Y313345D01*
X381945Y314097D01*
X381871Y314851D01*
X381816Y315607D01*
X381779Y316364D01*
X381760Y317121D01*
X381760Y317879D01*
X381779Y318636D01*
X381816Y319393D01*
X381871Y320149D01*
X381945Y320903D01*
X382038Y321655D01*
X382149Y322405D01*
X382278Y323152D01*
X382425Y323895D01*
X382590Y324635D01*
X382774Y325370D01*
X382975Y326100D01*
X383194Y326826D01*
X383431Y327546D01*
X383686Y328259D01*
X383957Y328967D01*
X384246Y329667D01*
X384552Y330360D01*
X384875Y331046D01*
X385215Y331724D01*
X385571Y332392D01*
X385943Y333053D01*
X386331Y333703D01*
X386735Y334344D01*
X387155Y334975D01*
X387590Y335596D01*
X388040Y336206D01*
X388504Y336804D01*
X388984Y337391D01*
X389477Y337966D01*
X389984Y338529D01*
X390505Y339080D01*
X391040Y339617D01*
X391587Y340141D01*
X392147Y340652D01*
X392719Y341149D01*
X393303Y341631D01*
X393899Y342100D01*
X394506Y342553D01*
X395124Y342992D01*
X395752Y343415D01*
X396391Y343823D01*
X397039Y344215D01*
X397697Y344591D01*
X398364Y344951D01*
X399040Y345294D01*
X399723Y345621D01*
X400415Y345931D01*
X401114Y346224D01*
X401819Y346500D01*
X402532Y346759D01*
X403250Y347000D01*
D24*
X445529Y329929D02*
X445529Y327841D01*
X445527Y327752D01*
X445521Y327664D01*
X445512Y327576D01*
X445499Y327488D01*
X445482Y327401D01*
X445462Y327315D01*
X445437Y327230D01*
X445410Y327145D01*
X445378Y327062D01*
X445344Y326981D01*
X445305Y326901D01*
X445264Y326823D01*
X445219Y326746D01*
X445171Y326672D01*
X445120Y326599D01*
X445066Y326529D01*
X445008Y326462D01*
X444948Y326396D01*
X444886Y326334D01*
X444820Y326274D01*
X444753Y326216D01*
X444683Y326162D01*
X444610Y326111D01*
X444536Y326063D01*
X444459Y326018D01*
X444381Y325977D01*
X444301Y325938D01*
X444220Y325904D01*
X444137Y325872D01*
X444052Y325845D01*
X443967Y325820D01*
X443881Y325800D01*
X443794Y325783D01*
X443706Y325770D01*
X443618Y325761D01*
X443530Y325755D01*
X443441Y325753D01*
X443441Y325752D02*
X438219Y325752D01*
X438128Y325754D01*
X438037Y325760D01*
X437946Y325770D01*
X437856Y325784D01*
X437767Y325802D01*
X437678Y325823D01*
X437591Y325849D01*
X437505Y325878D01*
X437420Y325911D01*
X437336Y325948D01*
X437254Y325988D01*
X437175Y326032D01*
X437097Y326079D01*
X437021Y326130D01*
X436947Y326184D01*
X436876Y326241D01*
X436808Y326301D01*
X436742Y326364D01*
X436679Y326430D01*
X436619Y326498D01*
X436562Y326569D01*
X436508Y326643D01*
X436457Y326719D01*
X436410Y326796D01*
X436366Y326876D01*
X436326Y326958D01*
X436289Y327042D01*
X436256Y327126D01*
X436227Y327213D01*
X436201Y327300D01*
X436180Y327389D01*
X436162Y327478D01*
X436148Y327568D01*
X436138Y327659D01*
X436132Y327750D01*
X436130Y327841D01*
X436131Y327841D02*
X436131Y329929D01*
X445529Y333398D02*
X445529Y336531D01*
X445527Y336620D01*
X445521Y336708D01*
X445512Y336796D01*
X445499Y336884D01*
X445482Y336971D01*
X445462Y337057D01*
X445437Y337142D01*
X445410Y337227D01*
X445378Y337310D01*
X445344Y337391D01*
X445305Y337471D01*
X445264Y337549D01*
X445219Y337626D01*
X445171Y337700D01*
X445120Y337773D01*
X445066Y337843D01*
X445008Y337910D01*
X444948Y337976D01*
X444886Y338038D01*
X444820Y338098D01*
X444753Y338156D01*
X444683Y338210D01*
X444610Y338261D01*
X444536Y338309D01*
X444459Y338354D01*
X444381Y338395D01*
X444301Y338434D01*
X444220Y338468D01*
X444137Y338500D01*
X444052Y338527D01*
X443967Y338552D01*
X443881Y338572D01*
X443794Y338589D01*
X443706Y338602D01*
X443618Y338611D01*
X443530Y338617D01*
X443441Y338619D01*
X442396Y338619D01*
X442307Y338617D01*
X442219Y338611D01*
X442131Y338602D01*
X442043Y338589D01*
X441956Y338572D01*
X441870Y338552D01*
X441785Y338527D01*
X441700Y338500D01*
X441617Y338468D01*
X441536Y338434D01*
X441456Y338395D01*
X441378Y338354D01*
X441301Y338309D01*
X441227Y338261D01*
X441154Y338210D01*
X441084Y338156D01*
X441017Y338098D01*
X440951Y338038D01*
X440889Y337976D01*
X440829Y337910D01*
X440771Y337843D01*
X440717Y337773D01*
X440666Y337700D01*
X440618Y337626D01*
X440573Y337549D01*
X440532Y337471D01*
X440493Y337391D01*
X440459Y337310D01*
X440427Y337227D01*
X440400Y337142D01*
X440375Y337057D01*
X440355Y336971D01*
X440338Y336884D01*
X440325Y336796D01*
X440316Y336708D01*
X440310Y336620D01*
X440308Y336531D01*
X440308Y333398D01*
X436131Y333398D01*
X436131Y338619D01*
D10*
X362550Y387950D02*
X346050Y387950D01*
X362550Y387950D02*
X362550Y349450D01*
X349050Y335950D01*
X346050Y335950D01*
X327050Y335950D02*
X324050Y335950D01*
X310550Y349450D01*
X310550Y387950D01*
X327050Y387950D01*
X345050Y384950D02*
X345607Y384736D01*
X346159Y384509D01*
X346705Y384268D01*
X347245Y384015D01*
X347779Y383748D01*
X348306Y383468D01*
X348826Y383176D01*
X349339Y382871D01*
X349844Y382553D01*
X350342Y382224D01*
X350831Y381882D01*
X351312Y381529D01*
X351784Y381164D01*
X352247Y380787D01*
X352700Y380400D01*
X353145Y380001D01*
X353579Y379592D01*
X354003Y379173D01*
X354417Y378743D01*
X354820Y378303D01*
X355213Y377854D01*
X355594Y377395D01*
X355965Y376927D01*
X356323Y376450D01*
X356670Y375965D01*
X357005Y375471D01*
X357328Y374969D01*
X357639Y374460D01*
X357937Y373943D01*
X358223Y373419D01*
X358495Y372888D01*
X358755Y372351D01*
X359001Y371807D01*
X359235Y371258D01*
X359454Y370703D01*
X359661Y370143D01*
X359853Y369579D01*
X360032Y369009D01*
X360197Y368436D01*
X360347Y367858D01*
X360484Y367278D01*
X360607Y366694D01*
X360715Y366107D01*
X360809Y365518D01*
X360889Y364926D01*
X360954Y364333D01*
X361005Y363739D01*
X361041Y363143D01*
X361063Y362547D01*
X361070Y361950D01*
X361063Y361353D01*
X361041Y360757D01*
X361005Y360161D01*
X360954Y359567D01*
X360889Y358974D01*
X360809Y358382D01*
X360715Y357793D01*
X360607Y357206D01*
X360484Y356622D01*
X360347Y356042D01*
X360197Y355464D01*
X360032Y354891D01*
X359853Y354321D01*
X359661Y353757D01*
X359454Y353197D01*
X359235Y352642D01*
X359001Y352093D01*
X358755Y351549D01*
X358495Y351012D01*
X358223Y350481D01*
X357937Y349957D01*
X357639Y349440D01*
X357328Y348931D01*
X357005Y348429D01*
X356670Y347935D01*
X356323Y347450D01*
X355965Y346973D01*
X355594Y346505D01*
X355213Y346046D01*
X354820Y345597D01*
X354417Y345157D01*
X354003Y344727D01*
X353579Y344308D01*
X353145Y343899D01*
X352700Y343500D01*
X352247Y343113D01*
X351784Y342736D01*
X351312Y342371D01*
X350831Y342018D01*
X350342Y341676D01*
X349844Y341347D01*
X349339Y341029D01*
X348826Y340724D01*
X348306Y340432D01*
X347779Y340152D01*
X347245Y339885D01*
X346705Y339632D01*
X346159Y339391D01*
X345607Y339164D01*
X345050Y338950D01*
X328050Y338950D02*
X327493Y339164D01*
X326941Y339391D01*
X326395Y339632D01*
X325855Y339885D01*
X325321Y340152D01*
X324794Y340432D01*
X324274Y340724D01*
X323761Y341029D01*
X323256Y341347D01*
X322758Y341676D01*
X322269Y342018D01*
X321788Y342371D01*
X321316Y342736D01*
X320853Y343113D01*
X320400Y343500D01*
X319955Y343899D01*
X319521Y344308D01*
X319097Y344727D01*
X318683Y345157D01*
X318280Y345597D01*
X317887Y346046D01*
X317506Y346505D01*
X317135Y346973D01*
X316777Y347450D01*
X316430Y347935D01*
X316095Y348429D01*
X315772Y348931D01*
X315461Y349440D01*
X315163Y349957D01*
X314877Y350481D01*
X314605Y351012D01*
X314345Y351549D01*
X314099Y352093D01*
X313865Y352642D01*
X313646Y353197D01*
X313439Y353757D01*
X313247Y354321D01*
X313068Y354891D01*
X312903Y355464D01*
X312753Y356042D01*
X312616Y356622D01*
X312493Y357206D01*
X312385Y357793D01*
X312291Y358382D01*
X312211Y358974D01*
X312146Y359567D01*
X312095Y360161D01*
X312059Y360757D01*
X312037Y361353D01*
X312030Y361950D01*
X312037Y362547D01*
X312059Y363143D01*
X312095Y363739D01*
X312146Y364333D01*
X312211Y364926D01*
X312291Y365518D01*
X312385Y366107D01*
X312493Y366694D01*
X312616Y367278D01*
X312753Y367858D01*
X312903Y368436D01*
X313068Y369009D01*
X313247Y369579D01*
X313439Y370143D01*
X313646Y370703D01*
X313865Y371258D01*
X314099Y371807D01*
X314345Y372351D01*
X314605Y372888D01*
X314877Y373419D01*
X315163Y373943D01*
X315461Y374460D01*
X315772Y374969D01*
X316095Y375471D01*
X316430Y375965D01*
X316777Y376450D01*
X317135Y376927D01*
X317506Y377395D01*
X317887Y377854D01*
X318280Y378303D01*
X318683Y378743D01*
X319097Y379173D01*
X319521Y379592D01*
X319955Y380001D01*
X320400Y380400D01*
X320853Y380787D01*
X321316Y381164D01*
X321788Y381529D01*
X322269Y381882D01*
X322758Y382224D01*
X323256Y382553D01*
X323761Y382871D01*
X324274Y383176D01*
X324794Y383468D01*
X325321Y383748D01*
X325855Y384015D01*
X326395Y384268D01*
X326941Y384509D01*
X327493Y384736D01*
X328050Y384950D01*
D24*
X369329Y374379D02*
X369329Y372291D01*
X369327Y372202D01*
X369321Y372114D01*
X369312Y372026D01*
X369299Y371938D01*
X369282Y371851D01*
X369262Y371765D01*
X369237Y371680D01*
X369210Y371595D01*
X369178Y371512D01*
X369144Y371431D01*
X369105Y371351D01*
X369064Y371273D01*
X369019Y371196D01*
X368971Y371122D01*
X368920Y371049D01*
X368866Y370979D01*
X368808Y370912D01*
X368748Y370846D01*
X368686Y370784D01*
X368620Y370724D01*
X368553Y370666D01*
X368483Y370612D01*
X368410Y370561D01*
X368336Y370513D01*
X368259Y370468D01*
X368181Y370427D01*
X368101Y370388D01*
X368020Y370354D01*
X367937Y370322D01*
X367852Y370295D01*
X367767Y370270D01*
X367681Y370250D01*
X367594Y370233D01*
X367506Y370220D01*
X367418Y370211D01*
X367330Y370205D01*
X367241Y370203D01*
X367241Y370202D02*
X362019Y370202D01*
X361928Y370204D01*
X361837Y370210D01*
X361746Y370220D01*
X361656Y370234D01*
X361567Y370252D01*
X361478Y370273D01*
X361391Y370299D01*
X361305Y370328D01*
X361220Y370361D01*
X361136Y370398D01*
X361054Y370438D01*
X360975Y370482D01*
X360897Y370529D01*
X360821Y370580D01*
X360747Y370634D01*
X360676Y370691D01*
X360608Y370751D01*
X360542Y370814D01*
X360479Y370880D01*
X360419Y370948D01*
X360362Y371019D01*
X360308Y371093D01*
X360257Y371169D01*
X360210Y371246D01*
X360166Y371326D01*
X360126Y371408D01*
X360089Y371492D01*
X360056Y371576D01*
X360027Y371663D01*
X360001Y371750D01*
X359980Y371839D01*
X359962Y371928D01*
X359948Y372018D01*
X359938Y372109D01*
X359932Y372200D01*
X359930Y372291D01*
X359931Y372291D02*
X359931Y374379D01*
X364108Y377848D02*
X364108Y380981D01*
X364110Y381070D01*
X364116Y381158D01*
X364125Y381246D01*
X364138Y381334D01*
X364155Y381421D01*
X364175Y381507D01*
X364200Y381592D01*
X364227Y381677D01*
X364259Y381760D01*
X364293Y381841D01*
X364332Y381921D01*
X364373Y381999D01*
X364418Y382076D01*
X364466Y382150D01*
X364517Y382223D01*
X364571Y382293D01*
X364629Y382360D01*
X364689Y382426D01*
X364751Y382488D01*
X364817Y382548D01*
X364884Y382606D01*
X364954Y382660D01*
X365027Y382711D01*
X365101Y382759D01*
X365178Y382804D01*
X365256Y382845D01*
X365336Y382884D01*
X365417Y382918D01*
X365500Y382950D01*
X365585Y382977D01*
X365670Y383002D01*
X365756Y383022D01*
X365843Y383039D01*
X365931Y383052D01*
X366019Y383061D01*
X366107Y383067D01*
X366196Y383069D01*
X366718Y383069D01*
X366819Y383067D01*
X366920Y383061D01*
X367021Y383051D01*
X367121Y383038D01*
X367221Y383020D01*
X367320Y382999D01*
X367418Y382973D01*
X367515Y382944D01*
X367611Y382912D01*
X367705Y382875D01*
X367798Y382835D01*
X367890Y382791D01*
X367979Y382744D01*
X368067Y382693D01*
X368153Y382639D01*
X368236Y382582D01*
X368318Y382522D01*
X368396Y382458D01*
X368473Y382392D01*
X368546Y382322D01*
X368617Y382250D01*
X368685Y382175D01*
X368750Y382097D01*
X368812Y382017D01*
X368871Y381935D01*
X368927Y381850D01*
X368979Y381763D01*
X369028Y381675D01*
X369074Y381584D01*
X369115Y381492D01*
X369154Y381398D01*
X369188Y381303D01*
X369219Y381207D01*
X369246Y381109D01*
X369270Y381011D01*
X369289Y380911D01*
X369305Y380811D01*
X369317Y380711D01*
X369325Y380610D01*
X369329Y380509D01*
X369329Y380407D01*
X369325Y380306D01*
X369317Y380205D01*
X369305Y380105D01*
X369289Y380005D01*
X369270Y379905D01*
X369246Y379807D01*
X369219Y379709D01*
X369188Y379613D01*
X369154Y379518D01*
X369115Y379424D01*
X369074Y379332D01*
X369028Y379241D01*
X368979Y379153D01*
X368927Y379066D01*
X368871Y378981D01*
X368812Y378899D01*
X368750Y378819D01*
X368685Y378741D01*
X368617Y378666D01*
X368546Y378594D01*
X368473Y378524D01*
X368396Y378458D01*
X368318Y378394D01*
X368236Y378334D01*
X368153Y378277D01*
X368067Y378223D01*
X367979Y378172D01*
X367890Y378125D01*
X367798Y378081D01*
X367705Y378041D01*
X367611Y378004D01*
X367515Y377972D01*
X367418Y377943D01*
X367320Y377917D01*
X367221Y377896D01*
X367121Y377878D01*
X367021Y377865D01*
X366920Y377855D01*
X366819Y377849D01*
X366718Y377847D01*
X366718Y377848D02*
X364108Y377848D01*
X363979Y377850D01*
X363851Y377856D01*
X363723Y377866D01*
X363595Y377880D01*
X363467Y377897D01*
X363340Y377919D01*
X363214Y377945D01*
X363089Y377974D01*
X362965Y378007D01*
X362842Y378045D01*
X362720Y378085D01*
X362599Y378130D01*
X362480Y378178D01*
X362362Y378230D01*
X362246Y378286D01*
X362132Y378345D01*
X362020Y378408D01*
X361909Y378474D01*
X361801Y378543D01*
X361695Y378616D01*
X361591Y378692D01*
X361489Y378771D01*
X361390Y378853D01*
X361294Y378938D01*
X361200Y379026D01*
X361109Y379117D01*
X361021Y379211D01*
X360936Y379307D01*
X360854Y379406D01*
X360775Y379508D01*
X360699Y379612D01*
X360626Y379718D01*
X360557Y379826D01*
X360491Y379936D01*
X360428Y380049D01*
X360369Y380163D01*
X360313Y380279D01*
X360261Y380397D01*
X360213Y380516D01*
X360168Y380637D01*
X360128Y380759D01*
X360090Y380882D01*
X360057Y381006D01*
X360028Y381131D01*
X360002Y381257D01*
X359980Y381384D01*
X359963Y381512D01*
X359949Y381640D01*
X359939Y381768D01*
X359933Y381896D01*
X359931Y382025D01*
D14*
X378460Y313690D02*
X378460Y270510D01*
X358140Y313690D02*
X358142Y313790D01*
X358148Y313889D01*
X358158Y313989D01*
X358171Y314087D01*
X358189Y314186D01*
X358210Y314283D01*
X358235Y314379D01*
X358264Y314475D01*
X358297Y314569D01*
X358333Y314662D01*
X358373Y314753D01*
X358417Y314843D01*
X358464Y314931D01*
X358514Y315017D01*
X358568Y315101D01*
X358625Y315183D01*
X358685Y315262D01*
X358749Y315340D01*
X358815Y315414D01*
X358884Y315486D01*
X358956Y315555D01*
X359030Y315621D01*
X359108Y315685D01*
X359187Y315745D01*
X359269Y315802D01*
X359353Y315856D01*
X359439Y315906D01*
X359527Y315953D01*
X359617Y315997D01*
X359708Y316037D01*
X359801Y316073D01*
X359895Y316106D01*
X359991Y316135D01*
X360087Y316160D01*
X360184Y316181D01*
X360283Y316199D01*
X360381Y316212D01*
X360481Y316222D01*
X360580Y316228D01*
X360680Y316230D01*
X358140Y270510D02*
X358142Y270410D01*
X358148Y270311D01*
X358158Y270211D01*
X358171Y270113D01*
X358189Y270014D01*
X358210Y269917D01*
X358235Y269821D01*
X358264Y269725D01*
X358297Y269631D01*
X358333Y269538D01*
X358373Y269447D01*
X358417Y269357D01*
X358464Y269269D01*
X358514Y269183D01*
X358568Y269099D01*
X358625Y269017D01*
X358685Y268938D01*
X358749Y268860D01*
X358815Y268786D01*
X358884Y268714D01*
X358956Y268645D01*
X359030Y268579D01*
X359108Y268515D01*
X359187Y268455D01*
X359269Y268398D01*
X359353Y268344D01*
X359439Y268294D01*
X359527Y268247D01*
X359617Y268203D01*
X359708Y268163D01*
X359801Y268127D01*
X359895Y268094D01*
X359991Y268065D01*
X360087Y268040D01*
X360184Y268019D01*
X360283Y268001D01*
X360381Y267988D01*
X360481Y267978D01*
X360580Y267972D01*
X360680Y267970D01*
X375920Y267970D02*
X376020Y267972D01*
X376119Y267978D01*
X376219Y267988D01*
X376317Y268001D01*
X376416Y268019D01*
X376513Y268040D01*
X376609Y268065D01*
X376705Y268094D01*
X376799Y268127D01*
X376892Y268163D01*
X376983Y268203D01*
X377073Y268247D01*
X377161Y268294D01*
X377247Y268344D01*
X377331Y268398D01*
X377413Y268455D01*
X377492Y268515D01*
X377570Y268579D01*
X377644Y268645D01*
X377716Y268714D01*
X377785Y268786D01*
X377851Y268860D01*
X377915Y268938D01*
X377975Y269017D01*
X378032Y269099D01*
X378086Y269183D01*
X378136Y269269D01*
X378183Y269357D01*
X378227Y269447D01*
X378267Y269538D01*
X378303Y269631D01*
X378336Y269725D01*
X378365Y269821D01*
X378390Y269917D01*
X378411Y270014D01*
X378429Y270113D01*
X378442Y270211D01*
X378452Y270311D01*
X378458Y270410D01*
X378460Y270510D01*
X378460Y313690D02*
X378458Y313790D01*
X378452Y313889D01*
X378442Y313989D01*
X378429Y314087D01*
X378411Y314186D01*
X378390Y314283D01*
X378365Y314379D01*
X378336Y314475D01*
X378303Y314569D01*
X378267Y314662D01*
X378227Y314753D01*
X378183Y314843D01*
X378136Y314931D01*
X378086Y315017D01*
X378032Y315101D01*
X377975Y315183D01*
X377915Y315262D01*
X377851Y315340D01*
X377785Y315414D01*
X377716Y315486D01*
X377644Y315555D01*
X377570Y315621D01*
X377492Y315685D01*
X377413Y315745D01*
X377331Y315802D01*
X377247Y315856D01*
X377161Y315906D01*
X377073Y315953D01*
X376983Y315997D01*
X376892Y316037D01*
X376799Y316073D01*
X376705Y316106D01*
X376609Y316135D01*
X376513Y316160D01*
X376416Y316181D01*
X376317Y316199D01*
X376219Y316212D01*
X376119Y316222D01*
X376020Y316228D01*
X375920Y316230D01*
X360680Y316230D01*
X360680Y267970D02*
X375920Y267970D01*
X358140Y270510D02*
X358140Y313690D01*
D15*
X346837Y257683D02*
X337947Y257683D01*
X346837Y257683D02*
X346937Y257681D01*
X347036Y257675D01*
X347136Y257665D01*
X347234Y257652D01*
X347333Y257634D01*
X347430Y257613D01*
X347526Y257588D01*
X347622Y257559D01*
X347716Y257526D01*
X347809Y257490D01*
X347900Y257450D01*
X347990Y257406D01*
X348078Y257359D01*
X348164Y257309D01*
X348248Y257255D01*
X348330Y257198D01*
X348409Y257138D01*
X348487Y257074D01*
X348561Y257008D01*
X348633Y256939D01*
X348702Y256867D01*
X348768Y256793D01*
X348832Y256715D01*
X348892Y256636D01*
X348949Y256554D01*
X349003Y256470D01*
X349053Y256384D01*
X349100Y256296D01*
X349144Y256206D01*
X349184Y256115D01*
X349220Y256022D01*
X349253Y255928D01*
X349282Y255832D01*
X349307Y255736D01*
X349328Y255639D01*
X349346Y255540D01*
X349359Y255442D01*
X349369Y255342D01*
X349375Y255243D01*
X349377Y255143D01*
X349377Y253873D01*
X349377Y263663D02*
X337947Y263663D01*
X337947Y266838D01*
X337949Y266949D01*
X337955Y267059D01*
X337964Y267170D01*
X337978Y267280D01*
X337995Y267389D01*
X338016Y267498D01*
X338041Y267606D01*
X338070Y267713D01*
X338102Y267819D01*
X338138Y267924D01*
X338178Y268027D01*
X338221Y268129D01*
X338268Y268230D01*
X338319Y268329D01*
X338372Y268426D01*
X338429Y268520D01*
X338490Y268613D01*
X338553Y268704D01*
X338620Y268793D01*
X338690Y268879D01*
X338763Y268962D01*
X338838Y269044D01*
X338916Y269122D01*
X338998Y269197D01*
X339081Y269270D01*
X339167Y269340D01*
X339256Y269407D01*
X339347Y269470D01*
X339440Y269531D01*
X339535Y269588D01*
X339631Y269641D01*
X339730Y269692D01*
X339831Y269739D01*
X339933Y269782D01*
X340036Y269822D01*
X340141Y269858D01*
X340247Y269890D01*
X340354Y269919D01*
X340462Y269944D01*
X340571Y269965D01*
X340680Y269982D01*
X340790Y269996D01*
X340901Y270005D01*
X341011Y270011D01*
X341122Y270013D01*
X341233Y270011D01*
X341343Y270005D01*
X341454Y269996D01*
X341564Y269982D01*
X341673Y269965D01*
X341782Y269944D01*
X341890Y269919D01*
X341997Y269890D01*
X342103Y269858D01*
X342208Y269822D01*
X342311Y269782D01*
X342413Y269739D01*
X342514Y269692D01*
X342613Y269641D01*
X342710Y269588D01*
X342804Y269531D01*
X342897Y269470D01*
X342988Y269407D01*
X343077Y269340D01*
X343163Y269270D01*
X343246Y269197D01*
X343328Y269122D01*
X343406Y269044D01*
X343481Y268962D01*
X343554Y268879D01*
X343624Y268793D01*
X343691Y268704D01*
X343754Y268613D01*
X343815Y268520D01*
X343872Y268426D01*
X343925Y268329D01*
X343976Y268230D01*
X344023Y268129D01*
X344066Y268027D01*
X344106Y267924D01*
X344142Y267819D01*
X344174Y267713D01*
X344203Y267606D01*
X344228Y267498D01*
X344249Y267389D01*
X344266Y267280D01*
X344280Y267170D01*
X344289Y267059D01*
X344295Y266949D01*
X344297Y266838D01*
X344297Y263663D01*
X340487Y274522D02*
X337947Y277697D01*
X349377Y277697D01*
X349377Y274522D02*
X349377Y280872D01*
D14*
X226060Y412750D02*
X228600Y415290D01*
X231140Y412750D01*
X228600Y435610D02*
X226060Y438150D01*
X228600Y435610D02*
X231140Y438150D01*
X251460Y438150D01*
X254000Y435610D01*
X205740Y438150D02*
X203200Y435610D01*
X205740Y438150D02*
X226060Y438150D01*
X203200Y435610D02*
X203200Y415290D01*
X205740Y412750D01*
X226060Y412750D01*
X231140Y412750D02*
X251460Y412750D01*
X254000Y415290D01*
X254000Y435610D01*
D15*
X230176Y408305D02*
X230176Y399415D01*
X230174Y399315D01*
X230168Y399216D01*
X230158Y399116D01*
X230145Y399018D01*
X230127Y398919D01*
X230106Y398822D01*
X230081Y398726D01*
X230052Y398630D01*
X230019Y398536D01*
X229983Y398443D01*
X229943Y398352D01*
X229899Y398262D01*
X229852Y398174D01*
X229802Y398088D01*
X229748Y398004D01*
X229691Y397922D01*
X229631Y397843D01*
X229567Y397765D01*
X229501Y397691D01*
X229432Y397619D01*
X229360Y397550D01*
X229286Y397484D01*
X229208Y397420D01*
X229129Y397360D01*
X229047Y397303D01*
X228963Y397249D01*
X228877Y397199D01*
X228789Y397152D01*
X228699Y397108D01*
X228608Y397068D01*
X228515Y397032D01*
X228421Y396999D01*
X228325Y396970D01*
X228229Y396945D01*
X228132Y396924D01*
X228033Y396906D01*
X227935Y396893D01*
X227835Y396883D01*
X227736Y396877D01*
X227636Y396875D01*
X226366Y396875D01*
X236157Y396875D02*
X236157Y408305D01*
X239332Y408305D01*
X239443Y408303D01*
X239553Y408297D01*
X239664Y408288D01*
X239774Y408274D01*
X239883Y408257D01*
X239992Y408236D01*
X240100Y408211D01*
X240207Y408182D01*
X240313Y408150D01*
X240418Y408114D01*
X240521Y408074D01*
X240623Y408031D01*
X240724Y407984D01*
X240823Y407933D01*
X240920Y407880D01*
X241014Y407823D01*
X241107Y407762D01*
X241198Y407699D01*
X241287Y407632D01*
X241373Y407562D01*
X241456Y407489D01*
X241538Y407414D01*
X241616Y407336D01*
X241691Y407254D01*
X241764Y407171D01*
X241834Y407085D01*
X241901Y406996D01*
X241964Y406905D01*
X242025Y406812D01*
X242082Y406717D01*
X242135Y406621D01*
X242186Y406522D01*
X242233Y406421D01*
X242276Y406319D01*
X242316Y406216D01*
X242352Y406111D01*
X242384Y406005D01*
X242413Y405898D01*
X242438Y405790D01*
X242459Y405681D01*
X242476Y405572D01*
X242490Y405462D01*
X242499Y405351D01*
X242505Y405241D01*
X242507Y405130D01*
X242505Y405019D01*
X242499Y404909D01*
X242490Y404798D01*
X242476Y404688D01*
X242459Y404579D01*
X242438Y404470D01*
X242413Y404362D01*
X242384Y404255D01*
X242352Y404149D01*
X242316Y404044D01*
X242276Y403941D01*
X242233Y403839D01*
X242186Y403738D01*
X242135Y403639D01*
X242082Y403542D01*
X242025Y403448D01*
X241964Y403355D01*
X241901Y403264D01*
X241834Y403175D01*
X241764Y403089D01*
X241691Y403006D01*
X241616Y402924D01*
X241538Y402846D01*
X241456Y402771D01*
X241373Y402698D01*
X241287Y402628D01*
X241198Y402561D01*
X241107Y402498D01*
X241014Y402437D01*
X240919Y402380D01*
X240823Y402327D01*
X240724Y402276D01*
X240623Y402229D01*
X240521Y402186D01*
X240418Y402146D01*
X240313Y402110D01*
X240207Y402078D01*
X240100Y402049D01*
X239992Y402024D01*
X239883Y402003D01*
X239774Y401986D01*
X239664Y401972D01*
X239553Y401963D01*
X239443Y401957D01*
X239332Y401955D01*
X236157Y401955D01*
X250508Y408306D02*
X250612Y408304D01*
X250717Y408298D01*
X250821Y408289D01*
X250924Y408276D01*
X251027Y408258D01*
X251129Y408238D01*
X251231Y408213D01*
X251331Y408185D01*
X251431Y408153D01*
X251529Y408117D01*
X251626Y408078D01*
X251721Y408036D01*
X251815Y407990D01*
X251907Y407940D01*
X251997Y407888D01*
X252085Y407832D01*
X252171Y407772D01*
X252255Y407710D01*
X252336Y407645D01*
X252415Y407577D01*
X252492Y407505D01*
X252565Y407432D01*
X252637Y407355D01*
X252705Y407276D01*
X252770Y407195D01*
X252832Y407111D01*
X252892Y407025D01*
X252948Y406937D01*
X253000Y406847D01*
X253050Y406755D01*
X253096Y406661D01*
X253138Y406566D01*
X253177Y406469D01*
X253213Y406371D01*
X253245Y406271D01*
X253273Y406171D01*
X253298Y406069D01*
X253318Y405967D01*
X253336Y405864D01*
X253349Y405761D01*
X253358Y405657D01*
X253364Y405552D01*
X253366Y405448D01*
X250508Y408305D02*
X250390Y408303D01*
X250271Y408297D01*
X250153Y408288D01*
X250036Y408275D01*
X249919Y408257D01*
X249802Y408237D01*
X249686Y408212D01*
X249571Y408184D01*
X249458Y408151D01*
X249345Y408116D01*
X249233Y408076D01*
X249123Y408034D01*
X249014Y407987D01*
X248906Y407937D01*
X248801Y407884D01*
X248697Y407827D01*
X248595Y407767D01*
X248495Y407704D01*
X248397Y407637D01*
X248301Y407568D01*
X248208Y407495D01*
X248117Y407419D01*
X248028Y407341D01*
X247942Y407259D01*
X247859Y407175D01*
X247778Y407089D01*
X247701Y406999D01*
X247626Y406908D01*
X247554Y406814D01*
X247485Y406717D01*
X247420Y406619D01*
X247357Y406518D01*
X247298Y406415D01*
X247242Y406311D01*
X247190Y406205D01*
X247141Y406097D01*
X247096Y405988D01*
X247054Y405877D01*
X247016Y405765D01*
X252413Y403226D02*
X252489Y403301D01*
X252564Y403380D01*
X252635Y403461D01*
X252704Y403545D01*
X252769Y403631D01*
X252831Y403719D01*
X252891Y403809D01*
X252947Y403901D01*
X253000Y403996D01*
X253049Y404092D01*
X253095Y404190D01*
X253138Y404289D01*
X253177Y404390D01*
X253212Y404492D01*
X253244Y404595D01*
X253272Y404699D01*
X253297Y404804D01*
X253318Y404911D01*
X253335Y405017D01*
X253348Y405124D01*
X253357Y405232D01*
X253363Y405340D01*
X253365Y405448D01*
X252413Y403225D02*
X247015Y396875D01*
X253365Y396875D01*
D10*
X349758Y266192D02*
X349758Y254508D01*
X349758Y266192D02*
X353004Y266192D01*
X353117Y266190D01*
X353230Y266184D01*
X353343Y266174D01*
X353456Y266160D01*
X353568Y266143D01*
X353679Y266121D01*
X353789Y266096D01*
X353899Y266066D01*
X354007Y266033D01*
X354114Y265996D01*
X354220Y265956D01*
X354324Y265911D01*
X354427Y265863D01*
X354528Y265812D01*
X354627Y265757D01*
X354724Y265699D01*
X354819Y265637D01*
X354912Y265572D01*
X355002Y265504D01*
X355090Y265433D01*
X355176Y265358D01*
X355259Y265281D01*
X355339Y265201D01*
X355416Y265118D01*
X355491Y265032D01*
X355562Y264944D01*
X355630Y264854D01*
X355695Y264761D01*
X355757Y264666D01*
X355815Y264569D01*
X355870Y264470D01*
X355921Y264369D01*
X355969Y264266D01*
X356014Y264162D01*
X356054Y264056D01*
X356091Y263949D01*
X356124Y263841D01*
X356154Y263731D01*
X356179Y263621D01*
X356201Y263510D01*
X356218Y263398D01*
X356232Y263285D01*
X356242Y263172D01*
X356248Y263059D01*
X356250Y262946D01*
X356248Y262833D01*
X356242Y262720D01*
X356232Y262607D01*
X356218Y262494D01*
X356201Y262382D01*
X356179Y262271D01*
X356154Y262161D01*
X356124Y262051D01*
X356091Y261943D01*
X356054Y261836D01*
X356014Y261730D01*
X355969Y261626D01*
X355921Y261523D01*
X355870Y261422D01*
X355815Y261323D01*
X355757Y261226D01*
X355695Y261131D01*
X355630Y261038D01*
X355562Y260948D01*
X355491Y260860D01*
X355416Y260774D01*
X355339Y260691D01*
X355259Y260611D01*
X355176Y260534D01*
X355090Y260459D01*
X355002Y260388D01*
X354912Y260320D01*
X354819Y260255D01*
X354724Y260193D01*
X354627Y260135D01*
X354528Y260080D01*
X354427Y260029D01*
X354324Y259981D01*
X354220Y259936D01*
X354114Y259896D01*
X354007Y259859D01*
X353899Y259826D01*
X353789Y259796D01*
X353679Y259771D01*
X353568Y259749D01*
X353456Y259732D01*
X353343Y259718D01*
X353230Y259708D01*
X353117Y259702D01*
X353004Y259700D01*
X353004Y259701D02*
X349758Y259701D01*
X353653Y259701D02*
X356249Y254508D01*
X361114Y263596D02*
X364360Y266192D01*
X364360Y254508D01*
X367605Y254508D02*
X361114Y254508D01*
X234442Y321254D02*
X222758Y321254D01*
X222758Y324499D02*
X222758Y318008D01*
X225354Y328676D02*
X222758Y331922D01*
X234442Y331922D01*
X234442Y335167D02*
X234442Y328676D01*
X267208Y305308D02*
X278892Y305308D01*
X267208Y305308D02*
X267208Y308554D01*
X267210Y308667D01*
X267216Y308780D01*
X267226Y308893D01*
X267240Y309006D01*
X267257Y309118D01*
X267279Y309229D01*
X267304Y309339D01*
X267334Y309449D01*
X267367Y309557D01*
X267404Y309664D01*
X267444Y309770D01*
X267489Y309874D01*
X267537Y309977D01*
X267588Y310078D01*
X267643Y310177D01*
X267701Y310274D01*
X267763Y310369D01*
X267828Y310462D01*
X267896Y310552D01*
X267967Y310640D01*
X268042Y310726D01*
X268119Y310809D01*
X268199Y310889D01*
X268282Y310966D01*
X268368Y311041D01*
X268456Y311112D01*
X268546Y311180D01*
X268639Y311245D01*
X268734Y311307D01*
X268831Y311365D01*
X268930Y311420D01*
X269031Y311471D01*
X269134Y311519D01*
X269238Y311564D01*
X269344Y311604D01*
X269451Y311641D01*
X269559Y311674D01*
X269669Y311704D01*
X269779Y311729D01*
X269890Y311751D01*
X270002Y311768D01*
X270115Y311782D01*
X270228Y311792D01*
X270341Y311798D01*
X270454Y311800D01*
X270567Y311798D01*
X270680Y311792D01*
X270793Y311782D01*
X270906Y311768D01*
X271018Y311751D01*
X271129Y311729D01*
X271239Y311704D01*
X271349Y311674D01*
X271457Y311641D01*
X271564Y311604D01*
X271670Y311564D01*
X271774Y311519D01*
X271877Y311471D01*
X271978Y311420D01*
X272077Y311365D01*
X272174Y311307D01*
X272269Y311245D01*
X272362Y311180D01*
X272452Y311112D01*
X272540Y311041D01*
X272626Y310966D01*
X272709Y310889D01*
X272789Y310809D01*
X272866Y310726D01*
X272941Y310640D01*
X273012Y310552D01*
X273080Y310462D01*
X273145Y310369D01*
X273207Y310274D01*
X273265Y310177D01*
X273320Y310078D01*
X273371Y309977D01*
X273419Y309874D01*
X273464Y309770D01*
X273504Y309664D01*
X273541Y309557D01*
X273574Y309449D01*
X273604Y309339D01*
X273629Y309229D01*
X273651Y309118D01*
X273668Y309006D01*
X273682Y308893D01*
X273692Y308780D01*
X273698Y308667D01*
X273700Y308554D01*
X273699Y308554D02*
X273699Y305308D01*
X273699Y309203D02*
X278892Y311799D01*
X270129Y323155D02*
X270022Y323153D01*
X269916Y323147D01*
X269810Y323137D01*
X269704Y323124D01*
X269598Y323106D01*
X269494Y323085D01*
X269390Y323060D01*
X269287Y323031D01*
X269186Y322999D01*
X269086Y322962D01*
X268987Y322922D01*
X268889Y322879D01*
X268793Y322832D01*
X268699Y322781D01*
X268607Y322727D01*
X268517Y322670D01*
X268429Y322610D01*
X268344Y322546D01*
X268261Y322479D01*
X268180Y322409D01*
X268102Y322337D01*
X268026Y322261D01*
X267954Y322183D01*
X267884Y322102D01*
X267817Y322019D01*
X267753Y321934D01*
X267693Y321846D01*
X267636Y321756D01*
X267582Y321664D01*
X267531Y321570D01*
X267484Y321474D01*
X267441Y321376D01*
X267401Y321277D01*
X267364Y321177D01*
X267332Y321076D01*
X267303Y320973D01*
X267278Y320869D01*
X267257Y320765D01*
X267239Y320659D01*
X267226Y320553D01*
X267216Y320447D01*
X267210Y320341D01*
X267208Y320234D01*
X267210Y320113D01*
X267216Y319992D01*
X267226Y319872D01*
X267239Y319751D01*
X267257Y319632D01*
X267278Y319512D01*
X267303Y319394D01*
X267332Y319277D01*
X267365Y319160D01*
X267401Y319045D01*
X267442Y318931D01*
X267485Y318818D01*
X267533Y318706D01*
X267584Y318597D01*
X267639Y318489D01*
X267697Y318382D01*
X267758Y318278D01*
X267823Y318176D01*
X267891Y318076D01*
X267962Y317978D01*
X268036Y317882D01*
X268113Y317789D01*
X268194Y317699D01*
X268277Y317611D01*
X268363Y317526D01*
X268452Y317443D01*
X268543Y317364D01*
X268637Y317287D01*
X268733Y317214D01*
X268831Y317144D01*
X268932Y317077D01*
X269035Y317013D01*
X269140Y316953D01*
X269247Y316895D01*
X269355Y316842D01*
X269465Y316792D01*
X269577Y316746D01*
X269690Y316703D01*
X269805Y316664D01*
X272401Y322181D02*
X272323Y322260D01*
X272243Y322336D01*
X272160Y322409D01*
X272074Y322479D01*
X271987Y322546D01*
X271896Y322610D01*
X271804Y322670D01*
X271710Y322728D01*
X271613Y322782D01*
X271515Y322832D01*
X271415Y322879D01*
X271314Y322923D01*
X271211Y322963D01*
X271106Y322999D01*
X271001Y323031D01*
X270894Y323060D01*
X270787Y323085D01*
X270678Y323107D01*
X270569Y323124D01*
X270460Y323138D01*
X270350Y323147D01*
X270239Y323153D01*
X270129Y323155D01*
X272401Y322182D02*
X278892Y316664D01*
X278892Y323155D01*
D14*
X406400Y520700D02*
X533400Y520700D01*
X533400Y457200D01*
X406400Y457200D02*
X406400Y520700D01*
X406400Y533400D02*
X393700Y533400D01*
X546100Y533400D02*
X546100Y444500D01*
X393700Y444500D02*
X393700Y533400D01*
X490220Y464820D02*
X490220Y457200D01*
X490220Y464820D02*
X449580Y464820D01*
X449580Y457200D01*
X406400Y457200D01*
X449580Y457200D02*
X449580Y454660D01*
X533400Y533400D02*
X533400Y535940D01*
X520700Y535940D01*
X520700Y533400D01*
X533400Y533400D02*
X546100Y533400D01*
X476250Y535940D02*
X463550Y535940D01*
X476250Y535940D02*
X476250Y533400D01*
X520700Y533400D01*
X463550Y533400D02*
X463550Y535940D01*
X419100Y535940D02*
X406400Y535940D01*
X406400Y533400D01*
X419100Y533400D02*
X419100Y535940D01*
X419100Y533400D02*
X463550Y533400D01*
X490220Y444500D02*
X546100Y444500D01*
X490220Y444500D02*
X449580Y444500D01*
X490220Y457200D02*
X533400Y457200D01*
X490220Y457200D02*
X490220Y454660D01*
X490220Y444500D01*
D13*
X490220Y454660D02*
X535940Y454660D01*
X535940Y523240D01*
X403860Y523240D01*
X403860Y454660D01*
X449580Y454660D01*
D14*
X449580Y444500D01*
X444500Y444500D01*
X444500Y445770D01*
X431800Y445770D01*
X431800Y444500D01*
X393700Y444500D01*
D15*
X419735Y479425D02*
X422910Y481965D01*
X422910Y470535D01*
X419735Y470535D02*
X426085Y470535D01*
X426086Y504508D02*
X426084Y504612D01*
X426078Y504717D01*
X426069Y504821D01*
X426056Y504924D01*
X426038Y505027D01*
X426018Y505129D01*
X425993Y505231D01*
X425965Y505331D01*
X425933Y505431D01*
X425897Y505529D01*
X425858Y505626D01*
X425816Y505721D01*
X425770Y505815D01*
X425720Y505907D01*
X425668Y505997D01*
X425612Y506085D01*
X425552Y506171D01*
X425490Y506255D01*
X425425Y506336D01*
X425357Y506415D01*
X425285Y506492D01*
X425212Y506565D01*
X425135Y506637D01*
X425056Y506705D01*
X424975Y506770D01*
X424891Y506832D01*
X424805Y506892D01*
X424717Y506948D01*
X424627Y507000D01*
X424535Y507050D01*
X424441Y507096D01*
X424346Y507138D01*
X424249Y507177D01*
X424151Y507213D01*
X424051Y507245D01*
X423951Y507273D01*
X423849Y507298D01*
X423747Y507318D01*
X423644Y507336D01*
X423541Y507349D01*
X423437Y507358D01*
X423332Y507364D01*
X423228Y507366D01*
X423228Y507365D02*
X423110Y507363D01*
X422991Y507357D01*
X422873Y507348D01*
X422756Y507335D01*
X422639Y507317D01*
X422522Y507297D01*
X422406Y507272D01*
X422291Y507244D01*
X422178Y507211D01*
X422065Y507176D01*
X421953Y507136D01*
X421843Y507094D01*
X421734Y507047D01*
X421626Y506997D01*
X421521Y506944D01*
X421417Y506887D01*
X421315Y506827D01*
X421215Y506764D01*
X421117Y506697D01*
X421021Y506628D01*
X420928Y506555D01*
X420837Y506479D01*
X420748Y506401D01*
X420662Y506319D01*
X420579Y506235D01*
X420498Y506149D01*
X420421Y506059D01*
X420346Y505968D01*
X420274Y505874D01*
X420205Y505777D01*
X420140Y505679D01*
X420077Y505578D01*
X420018Y505475D01*
X419962Y505371D01*
X419910Y505265D01*
X419861Y505157D01*
X419816Y505048D01*
X419774Y504937D01*
X419736Y504825D01*
X425133Y502286D02*
X425209Y502361D01*
X425284Y502440D01*
X425355Y502521D01*
X425424Y502605D01*
X425489Y502691D01*
X425551Y502779D01*
X425611Y502869D01*
X425667Y502961D01*
X425720Y503056D01*
X425769Y503152D01*
X425815Y503250D01*
X425858Y503349D01*
X425897Y503450D01*
X425932Y503552D01*
X425964Y503655D01*
X425992Y503759D01*
X426017Y503864D01*
X426038Y503971D01*
X426055Y504077D01*
X426068Y504184D01*
X426077Y504292D01*
X426083Y504400D01*
X426085Y504508D01*
X425133Y502285D02*
X419735Y495935D01*
X426085Y495935D01*
X466725Y455295D02*
X470535Y455295D01*
X470635Y455293D01*
X470734Y455287D01*
X470834Y455277D01*
X470932Y455264D01*
X471031Y455246D01*
X471128Y455225D01*
X471224Y455200D01*
X471320Y455171D01*
X471414Y455138D01*
X471507Y455102D01*
X471598Y455062D01*
X471688Y455018D01*
X471776Y454971D01*
X471862Y454921D01*
X471946Y454867D01*
X472028Y454810D01*
X472107Y454750D01*
X472185Y454686D01*
X472259Y454620D01*
X472331Y454551D01*
X472400Y454479D01*
X472466Y454405D01*
X472530Y454327D01*
X472590Y454248D01*
X472647Y454166D01*
X472701Y454082D01*
X472751Y453996D01*
X472798Y453908D01*
X472842Y453818D01*
X472882Y453727D01*
X472918Y453634D01*
X472951Y453540D01*
X472980Y453444D01*
X473005Y453348D01*
X473026Y453251D01*
X473044Y453152D01*
X473057Y453054D01*
X473067Y452954D01*
X473073Y452855D01*
X473075Y452755D01*
X473075Y452120D01*
X473073Y452009D01*
X473067Y451899D01*
X473058Y451788D01*
X473044Y451678D01*
X473027Y451569D01*
X473006Y451460D01*
X472981Y451352D01*
X472952Y451245D01*
X472920Y451139D01*
X472884Y451034D01*
X472844Y450931D01*
X472801Y450829D01*
X472754Y450728D01*
X472703Y450629D01*
X472650Y450532D01*
X472593Y450438D01*
X472532Y450345D01*
X472469Y450254D01*
X472402Y450165D01*
X472332Y450079D01*
X472259Y449996D01*
X472184Y449914D01*
X472106Y449836D01*
X472024Y449761D01*
X471941Y449688D01*
X471855Y449618D01*
X471766Y449551D01*
X471675Y449488D01*
X471582Y449427D01*
X471487Y449370D01*
X471391Y449317D01*
X471292Y449266D01*
X471191Y449219D01*
X471089Y449176D01*
X470986Y449136D01*
X470881Y449100D01*
X470775Y449068D01*
X470668Y449039D01*
X470560Y449014D01*
X470451Y448993D01*
X470342Y448976D01*
X470232Y448962D01*
X470121Y448953D01*
X470011Y448947D01*
X469900Y448945D01*
X469789Y448947D01*
X469679Y448953D01*
X469568Y448962D01*
X469458Y448976D01*
X469349Y448993D01*
X469240Y449014D01*
X469132Y449039D01*
X469025Y449068D01*
X468919Y449100D01*
X468814Y449136D01*
X468711Y449176D01*
X468609Y449219D01*
X468508Y449266D01*
X468409Y449317D01*
X468313Y449370D01*
X468218Y449427D01*
X468125Y449488D01*
X468034Y449551D01*
X467945Y449618D01*
X467859Y449688D01*
X467776Y449761D01*
X467694Y449836D01*
X467616Y449914D01*
X467541Y449996D01*
X467468Y450079D01*
X467398Y450165D01*
X467331Y450254D01*
X467268Y450345D01*
X467207Y450438D01*
X467150Y450533D01*
X467097Y450629D01*
X467046Y450728D01*
X466999Y450829D01*
X466956Y450931D01*
X466916Y451034D01*
X466880Y451139D01*
X466848Y451245D01*
X466819Y451352D01*
X466794Y451460D01*
X466773Y451569D01*
X466756Y451678D01*
X466742Y451788D01*
X466733Y451899D01*
X466727Y452009D01*
X466725Y452120D01*
X466725Y455295D01*
X466727Y455435D01*
X466733Y455575D01*
X466742Y455715D01*
X466756Y455854D01*
X466773Y455993D01*
X466794Y456131D01*
X466819Y456269D01*
X466848Y456406D01*
X466880Y456542D01*
X466917Y456677D01*
X466957Y456811D01*
X467000Y456944D01*
X467048Y457076D01*
X467098Y457207D01*
X467153Y457336D01*
X467211Y457463D01*
X467272Y457589D01*
X467337Y457713D01*
X467406Y457835D01*
X467477Y457955D01*
X467552Y458073D01*
X467630Y458190D01*
X467712Y458304D01*
X467796Y458415D01*
X467884Y458524D01*
X467974Y458631D01*
X468068Y458736D01*
X468164Y458837D01*
X468263Y458936D01*
X468364Y459032D01*
X468469Y459126D01*
X468576Y459216D01*
X468685Y459304D01*
X468796Y459388D01*
X468910Y459470D01*
X469027Y459548D01*
X469145Y459623D01*
X469265Y459694D01*
X469387Y459763D01*
X469511Y459828D01*
X469637Y459889D01*
X469764Y459947D01*
X469893Y460002D01*
X470024Y460052D01*
X470156Y460100D01*
X470289Y460143D01*
X470423Y460183D01*
X470558Y460220D01*
X470694Y460252D01*
X470831Y460281D01*
X470969Y460306D01*
X471107Y460327D01*
X471246Y460344D01*
X471385Y460358D01*
X471525Y460367D01*
X471665Y460373D01*
X471805Y460375D01*
D22*
X399923Y540639D02*
X400039Y540641D01*
X400156Y540647D01*
X400272Y540656D01*
X400387Y540669D01*
X400502Y540686D01*
X400617Y540707D01*
X400730Y540732D01*
X400843Y540760D01*
X400955Y540792D01*
X401066Y540828D01*
X401176Y540867D01*
X401284Y540910D01*
X401391Y540956D01*
X401496Y541006D01*
X401599Y541059D01*
X401701Y541115D01*
X401801Y541175D01*
X401899Y541238D01*
X401994Y541305D01*
X402088Y541374D01*
X402179Y541446D01*
X402268Y541521D01*
X402354Y541600D01*
X402437Y541681D01*
X402518Y541764D01*
X402597Y541850D01*
X402672Y541939D01*
X402744Y542030D01*
X402813Y542124D01*
X402880Y542219D01*
X402943Y542317D01*
X403003Y542417D01*
X403059Y542519D01*
X403112Y542622D01*
X403162Y542727D01*
X403208Y542834D01*
X403251Y542942D01*
X403290Y543052D01*
X403326Y543163D01*
X403358Y543275D01*
X403386Y543388D01*
X403411Y543501D01*
X403432Y543616D01*
X403449Y543731D01*
X403462Y543846D01*
X403471Y543962D01*
X403477Y544079D01*
X403479Y544195D01*
X399923Y540639D02*
X399743Y540641D01*
X399564Y540648D01*
X399384Y540658D01*
X399205Y540673D01*
X399026Y540693D01*
X398848Y540716D01*
X398671Y540744D01*
X398494Y540776D01*
X398318Y540812D01*
X398143Y540853D01*
X397969Y540898D01*
X397796Y540947D01*
X397624Y540999D01*
X397453Y541057D01*
X397284Y541118D01*
X397117Y541183D01*
X396951Y541252D01*
X396787Y541325D01*
X396624Y541402D01*
X396464Y541483D01*
X396305Y541567D01*
X396149Y541656D01*
X395995Y541748D01*
X395843Y541844D01*
X395693Y541943D01*
X395545Y542046D01*
X395401Y542153D01*
X395258Y542263D01*
X395119Y542376D01*
X394982Y542493D01*
X394848Y542612D01*
X394717Y542735D01*
X394589Y542861D01*
X395034Y553085D02*
X395036Y553201D01*
X395042Y553318D01*
X395051Y553434D01*
X395064Y553549D01*
X395081Y553664D01*
X395102Y553779D01*
X395127Y553892D01*
X395155Y554005D01*
X395187Y554117D01*
X395223Y554228D01*
X395262Y554338D01*
X395305Y554446D01*
X395351Y554553D01*
X395401Y554658D01*
X395454Y554761D01*
X395510Y554863D01*
X395570Y554963D01*
X395633Y555061D01*
X395700Y555156D01*
X395769Y555250D01*
X395841Y555341D01*
X395916Y555430D01*
X395995Y555516D01*
X396076Y555599D01*
X396159Y555680D01*
X396245Y555759D01*
X396334Y555834D01*
X396425Y555906D01*
X396519Y555975D01*
X396614Y556042D01*
X396712Y556105D01*
X396812Y556165D01*
X396914Y556221D01*
X397017Y556274D01*
X397122Y556324D01*
X397229Y556370D01*
X397337Y556413D01*
X397447Y556452D01*
X397558Y556488D01*
X397670Y556520D01*
X397783Y556548D01*
X397896Y556573D01*
X398011Y556594D01*
X398126Y556611D01*
X398241Y556624D01*
X398357Y556633D01*
X398474Y556639D01*
X398590Y556641D01*
X398590Y556642D02*
X398749Y556640D01*
X398908Y556634D01*
X399066Y556625D01*
X399225Y556612D01*
X399383Y556595D01*
X399540Y556574D01*
X399697Y556549D01*
X399854Y556521D01*
X400009Y556489D01*
X400164Y556454D01*
X400318Y556414D01*
X400471Y556371D01*
X400623Y556324D01*
X400774Y556274D01*
X400923Y556220D01*
X401072Y556163D01*
X401218Y556102D01*
X401364Y556038D01*
X401507Y555970D01*
X401649Y555899D01*
X401790Y555824D01*
X401928Y555746D01*
X402065Y555665D01*
X402199Y555581D01*
X402332Y555493D01*
X402463Y555402D01*
X402591Y555308D01*
X396811Y549973D02*
X396711Y550034D01*
X396613Y550099D01*
X396517Y550166D01*
X396424Y550237D01*
X396333Y550310D01*
X396244Y550387D01*
X396158Y550466D01*
X396074Y550548D01*
X395993Y550633D01*
X395915Y550720D01*
X395840Y550810D01*
X395767Y550902D01*
X395698Y550997D01*
X395632Y551093D01*
X395569Y551192D01*
X395509Y551293D01*
X395452Y551396D01*
X395399Y551500D01*
X395350Y551606D01*
X395303Y551714D01*
X395261Y551823D01*
X395221Y551933D01*
X395186Y552045D01*
X395154Y552158D01*
X395126Y552272D01*
X395101Y552386D01*
X395080Y552502D01*
X395063Y552618D01*
X395050Y552734D01*
X395041Y552851D01*
X395035Y552968D01*
X395033Y553085D01*
X401701Y547307D02*
X401801Y547246D01*
X401899Y547181D01*
X401995Y547114D01*
X402088Y547043D01*
X402179Y546970D01*
X402268Y546893D01*
X402354Y546814D01*
X402438Y546732D01*
X402519Y546647D01*
X402597Y546560D01*
X402672Y546470D01*
X402745Y546378D01*
X402814Y546283D01*
X402880Y546187D01*
X402943Y546088D01*
X403003Y545987D01*
X403060Y545884D01*
X403113Y545780D01*
X403162Y545674D01*
X403209Y545566D01*
X403251Y545457D01*
X403291Y545347D01*
X403326Y545235D01*
X403358Y545122D01*
X403386Y545008D01*
X403411Y544894D01*
X403432Y544778D01*
X403449Y544662D01*
X403462Y544546D01*
X403471Y544429D01*
X403477Y544312D01*
X403479Y544195D01*
X401701Y547307D02*
X396812Y549974D01*
X408810Y556641D02*
X414144Y540639D01*
X419478Y556641D01*
X425330Y553085D02*
X429775Y556641D01*
X429775Y540639D01*
X425330Y540639D02*
X434220Y540639D01*
D15*
X361950Y520700D02*
X184150Y520700D01*
X361950Y520700D02*
X361950Y457200D01*
X184150Y457200D02*
X184150Y520700D01*
X184150Y533400D02*
X171450Y533400D01*
X327660Y444500D02*
X374650Y444500D01*
X374650Y533400D01*
X171450Y533400D02*
X171450Y444500D01*
X318770Y457200D02*
X361950Y457200D01*
X293370Y464820D02*
X252730Y464820D01*
X252730Y457200D01*
X184150Y457200D01*
X252730Y457200D02*
X252730Y454660D01*
X293370Y457200D02*
X293370Y464820D01*
X293370Y457200D02*
X293370Y454660D01*
X361950Y533400D02*
X361950Y535940D01*
X349250Y535940D01*
X349250Y533400D01*
X361950Y533400D02*
X374650Y533400D01*
X279400Y535940D02*
X266700Y535940D01*
X279400Y535940D02*
X279400Y533400D01*
X349250Y533400D01*
X266700Y533400D02*
X266700Y535940D01*
X196850Y535940D02*
X184150Y535940D01*
X184150Y533400D01*
X196850Y533400D02*
X196850Y535940D01*
X196850Y533400D02*
X266700Y533400D01*
X293370Y444500D02*
X294640Y444500D01*
X293370Y444500D02*
X252730Y444500D01*
X303530Y454660D02*
X303530Y457200D01*
X293370Y457200D01*
X318770Y457200D02*
X318770Y454660D01*
X318770Y457200D02*
X303530Y457200D01*
X298450Y449580D02*
X294640Y444500D01*
X323850Y449580D02*
X327660Y444500D01*
X323850Y449580D02*
X318770Y449580D01*
D13*
X303530Y454660D02*
X293370Y454660D01*
D15*
X293370Y444500D01*
D13*
X318770Y454660D02*
X364490Y454660D01*
X364490Y523240D01*
X181610Y523240D01*
X181610Y454660D01*
X252730Y454660D01*
D15*
X252730Y444500D01*
X303530Y449580D02*
X303530Y454660D01*
X303530Y449580D02*
X298450Y449580D01*
X318770Y449580D02*
X318770Y454660D01*
X318770Y449580D02*
X303530Y449580D01*
X252730Y444500D02*
X228600Y444500D01*
X228600Y445770D01*
X215900Y445770D01*
X215900Y444500D01*
X171450Y444500D01*
X263525Y457835D02*
X266700Y460375D01*
X266700Y448945D01*
X263525Y448945D02*
X269875Y448945D01*
X274955Y454660D02*
X274958Y454885D01*
X274966Y455110D01*
X274979Y455334D01*
X274998Y455558D01*
X275022Y455782D01*
X275051Y456005D01*
X275086Y456227D01*
X275126Y456448D01*
X275172Y456668D01*
X275222Y456887D01*
X275278Y457105D01*
X275339Y457322D01*
X275405Y457537D01*
X275476Y457750D01*
X275553Y457961D01*
X275634Y458171D01*
X275720Y458379D01*
X275811Y458584D01*
X275907Y458787D01*
X275907Y458788D02*
X275939Y458876D01*
X275975Y458963D01*
X276014Y459049D01*
X276057Y459133D01*
X276103Y459215D01*
X276152Y459295D01*
X276204Y459373D01*
X276260Y459449D01*
X276318Y459523D01*
X276380Y459594D01*
X276444Y459663D01*
X276511Y459729D01*
X276580Y459792D01*
X276652Y459853D01*
X276726Y459911D01*
X276803Y459965D01*
X276881Y460017D01*
X276962Y460065D01*
X277044Y460110D01*
X277129Y460152D01*
X277215Y460190D01*
X277302Y460225D01*
X277390Y460257D01*
X277480Y460284D01*
X277571Y460309D01*
X277663Y460329D01*
X277755Y460346D01*
X277849Y460359D01*
X277942Y460368D01*
X278036Y460374D01*
X278130Y460376D01*
X278224Y460374D01*
X278318Y460368D01*
X278411Y460359D01*
X278505Y460346D01*
X278597Y460329D01*
X278689Y460309D01*
X278780Y460284D01*
X278870Y460257D01*
X278958Y460225D01*
X279045Y460190D01*
X279131Y460152D01*
X279216Y460110D01*
X279298Y460065D01*
X279379Y460017D01*
X279457Y459965D01*
X279534Y459911D01*
X279608Y459853D01*
X279680Y459792D01*
X279749Y459729D01*
X279816Y459663D01*
X279880Y459594D01*
X279942Y459523D01*
X280000Y459449D01*
X280056Y459373D01*
X280108Y459295D01*
X280157Y459215D01*
X280203Y459133D01*
X280246Y459049D01*
X280285Y458963D01*
X280321Y458876D01*
X280353Y458788D01*
X280353Y458787D02*
X280449Y458584D01*
X280540Y458379D01*
X280626Y458171D01*
X280707Y457961D01*
X280784Y457750D01*
X280855Y457537D01*
X280921Y457322D01*
X280982Y457105D01*
X281038Y456887D01*
X281088Y456668D01*
X281134Y456448D01*
X281174Y456227D01*
X281209Y456005D01*
X281238Y455782D01*
X281262Y455558D01*
X281281Y455334D01*
X281294Y455110D01*
X281302Y454885D01*
X281305Y454660D01*
X274955Y454660D02*
X274958Y454435D01*
X274966Y454210D01*
X274979Y453986D01*
X274998Y453762D01*
X275022Y453538D01*
X275051Y453315D01*
X275086Y453093D01*
X275126Y452872D01*
X275172Y452652D01*
X275222Y452433D01*
X275278Y452215D01*
X275339Y451998D01*
X275405Y451783D01*
X275476Y451570D01*
X275553Y451359D01*
X275634Y451149D01*
X275720Y450941D01*
X275811Y450736D01*
X275907Y450533D01*
X275939Y450445D01*
X275975Y450358D01*
X276014Y450272D01*
X276057Y450188D01*
X276103Y450106D01*
X276152Y450026D01*
X276204Y449948D01*
X276260Y449872D01*
X276318Y449798D01*
X276380Y449727D01*
X276444Y449658D01*
X276511Y449592D01*
X276580Y449529D01*
X276652Y449468D01*
X276726Y449410D01*
X276803Y449356D01*
X276881Y449304D01*
X276962Y449256D01*
X277044Y449211D01*
X277129Y449169D01*
X277215Y449131D01*
X277302Y449096D01*
X277390Y449064D01*
X277480Y449037D01*
X277571Y449012D01*
X277663Y448992D01*
X277755Y448975D01*
X277849Y448962D01*
X277942Y448953D01*
X278036Y448947D01*
X278130Y448945D01*
X280353Y450533D02*
X280449Y450736D01*
X280540Y450941D01*
X280626Y451149D01*
X280707Y451359D01*
X280784Y451570D01*
X280855Y451783D01*
X280921Y451998D01*
X280982Y452215D01*
X281038Y452433D01*
X281088Y452652D01*
X281134Y452872D01*
X281174Y453093D01*
X281209Y453315D01*
X281238Y453538D01*
X281262Y453762D01*
X281281Y453986D01*
X281294Y454210D01*
X281302Y454435D01*
X281305Y454660D01*
X280353Y450533D02*
X280321Y450445D01*
X280285Y450358D01*
X280246Y450272D01*
X280203Y450188D01*
X280157Y450106D01*
X280108Y450026D01*
X280056Y449948D01*
X280000Y449872D01*
X279942Y449798D01*
X279880Y449727D01*
X279816Y449658D01*
X279749Y449592D01*
X279680Y449529D01*
X279608Y449468D01*
X279534Y449410D01*
X279457Y449356D01*
X279379Y449304D01*
X279298Y449256D01*
X279216Y449211D01*
X279131Y449169D01*
X279045Y449131D01*
X278958Y449096D01*
X278870Y449064D01*
X278780Y449037D01*
X278689Y449012D01*
X278597Y448992D01*
X278505Y448975D01*
X278411Y448962D01*
X278318Y448953D01*
X278224Y448947D01*
X278130Y448945D01*
X275590Y451485D02*
X280670Y457835D01*
X200660Y481965D02*
X197485Y479425D01*
X200660Y481965D02*
X200660Y470535D01*
X197485Y470535D02*
X203835Y470535D01*
X203836Y504508D02*
X203834Y504612D01*
X203828Y504717D01*
X203819Y504821D01*
X203806Y504924D01*
X203788Y505027D01*
X203768Y505129D01*
X203743Y505231D01*
X203715Y505331D01*
X203683Y505431D01*
X203647Y505529D01*
X203608Y505626D01*
X203566Y505721D01*
X203520Y505815D01*
X203470Y505907D01*
X203418Y505997D01*
X203362Y506085D01*
X203302Y506171D01*
X203240Y506255D01*
X203175Y506336D01*
X203107Y506415D01*
X203035Y506492D01*
X202962Y506565D01*
X202885Y506637D01*
X202806Y506705D01*
X202725Y506770D01*
X202641Y506832D01*
X202555Y506892D01*
X202467Y506948D01*
X202377Y507000D01*
X202285Y507050D01*
X202191Y507096D01*
X202096Y507138D01*
X201999Y507177D01*
X201901Y507213D01*
X201801Y507245D01*
X201701Y507273D01*
X201599Y507298D01*
X201497Y507318D01*
X201394Y507336D01*
X201291Y507349D01*
X201187Y507358D01*
X201082Y507364D01*
X200978Y507366D01*
X200978Y507365D02*
X200860Y507363D01*
X200741Y507357D01*
X200623Y507348D01*
X200506Y507335D01*
X200389Y507317D01*
X200272Y507297D01*
X200156Y507272D01*
X200041Y507244D01*
X199928Y507211D01*
X199815Y507176D01*
X199703Y507136D01*
X199593Y507094D01*
X199484Y507047D01*
X199376Y506997D01*
X199271Y506944D01*
X199167Y506887D01*
X199065Y506827D01*
X198965Y506764D01*
X198867Y506697D01*
X198771Y506628D01*
X198678Y506555D01*
X198587Y506479D01*
X198498Y506401D01*
X198412Y506319D01*
X198329Y506235D01*
X198248Y506149D01*
X198171Y506059D01*
X198096Y505968D01*
X198024Y505874D01*
X197955Y505777D01*
X197890Y505679D01*
X197827Y505578D01*
X197768Y505475D01*
X197712Y505371D01*
X197660Y505265D01*
X197611Y505157D01*
X197566Y505048D01*
X197524Y504937D01*
X197486Y504825D01*
X202883Y502286D02*
X202959Y502361D01*
X203034Y502440D01*
X203105Y502521D01*
X203174Y502605D01*
X203239Y502691D01*
X203301Y502779D01*
X203361Y502869D01*
X203417Y502961D01*
X203470Y503056D01*
X203519Y503152D01*
X203565Y503250D01*
X203608Y503349D01*
X203647Y503450D01*
X203682Y503552D01*
X203714Y503655D01*
X203742Y503759D01*
X203767Y503864D01*
X203788Y503971D01*
X203805Y504077D01*
X203818Y504184D01*
X203827Y504292D01*
X203833Y504400D01*
X203835Y504508D01*
X202883Y502285D02*
X197485Y495935D01*
X203835Y495935D01*
D22*
X177673Y540639D02*
X177789Y540641D01*
X177906Y540647D01*
X178022Y540656D01*
X178137Y540669D01*
X178252Y540686D01*
X178367Y540707D01*
X178480Y540732D01*
X178593Y540760D01*
X178705Y540792D01*
X178816Y540828D01*
X178926Y540867D01*
X179034Y540910D01*
X179141Y540956D01*
X179246Y541006D01*
X179349Y541059D01*
X179451Y541115D01*
X179551Y541175D01*
X179649Y541238D01*
X179744Y541305D01*
X179838Y541374D01*
X179929Y541446D01*
X180018Y541521D01*
X180104Y541600D01*
X180187Y541681D01*
X180268Y541764D01*
X180347Y541850D01*
X180422Y541939D01*
X180494Y542030D01*
X180563Y542124D01*
X180630Y542219D01*
X180693Y542317D01*
X180753Y542417D01*
X180809Y542519D01*
X180862Y542622D01*
X180912Y542727D01*
X180958Y542834D01*
X181001Y542942D01*
X181040Y543052D01*
X181076Y543163D01*
X181108Y543275D01*
X181136Y543388D01*
X181161Y543501D01*
X181182Y543616D01*
X181199Y543731D01*
X181212Y543846D01*
X181221Y543962D01*
X181227Y544079D01*
X181229Y544195D01*
X177673Y540639D02*
X177493Y540641D01*
X177314Y540648D01*
X177134Y540658D01*
X176955Y540673D01*
X176776Y540693D01*
X176598Y540716D01*
X176421Y540744D01*
X176244Y540776D01*
X176068Y540812D01*
X175893Y540853D01*
X175719Y540898D01*
X175546Y540947D01*
X175374Y540999D01*
X175203Y541057D01*
X175034Y541118D01*
X174867Y541183D01*
X174701Y541252D01*
X174537Y541325D01*
X174374Y541402D01*
X174214Y541483D01*
X174055Y541567D01*
X173899Y541656D01*
X173745Y541748D01*
X173593Y541844D01*
X173443Y541943D01*
X173295Y542046D01*
X173151Y542153D01*
X173008Y542263D01*
X172869Y542376D01*
X172732Y542493D01*
X172598Y542612D01*
X172467Y542735D01*
X172339Y542861D01*
X172784Y553085D02*
X172786Y553201D01*
X172792Y553318D01*
X172801Y553434D01*
X172814Y553549D01*
X172831Y553664D01*
X172852Y553779D01*
X172877Y553892D01*
X172905Y554005D01*
X172937Y554117D01*
X172973Y554228D01*
X173012Y554338D01*
X173055Y554446D01*
X173101Y554553D01*
X173151Y554658D01*
X173204Y554761D01*
X173260Y554863D01*
X173320Y554963D01*
X173383Y555061D01*
X173450Y555156D01*
X173519Y555250D01*
X173591Y555341D01*
X173666Y555430D01*
X173745Y555516D01*
X173826Y555599D01*
X173909Y555680D01*
X173995Y555759D01*
X174084Y555834D01*
X174175Y555906D01*
X174269Y555975D01*
X174364Y556042D01*
X174462Y556105D01*
X174562Y556165D01*
X174664Y556221D01*
X174767Y556274D01*
X174872Y556324D01*
X174979Y556370D01*
X175087Y556413D01*
X175197Y556452D01*
X175308Y556488D01*
X175420Y556520D01*
X175533Y556548D01*
X175646Y556573D01*
X175761Y556594D01*
X175876Y556611D01*
X175991Y556624D01*
X176107Y556633D01*
X176224Y556639D01*
X176340Y556641D01*
X176340Y556642D02*
X176499Y556640D01*
X176658Y556634D01*
X176816Y556625D01*
X176975Y556612D01*
X177133Y556595D01*
X177290Y556574D01*
X177447Y556549D01*
X177604Y556521D01*
X177759Y556489D01*
X177914Y556454D01*
X178068Y556414D01*
X178221Y556371D01*
X178373Y556324D01*
X178524Y556274D01*
X178673Y556220D01*
X178822Y556163D01*
X178968Y556102D01*
X179114Y556038D01*
X179257Y555970D01*
X179399Y555899D01*
X179540Y555824D01*
X179678Y555746D01*
X179815Y555665D01*
X179949Y555581D01*
X180082Y555493D01*
X180213Y555402D01*
X180341Y555308D01*
X174561Y549973D02*
X174461Y550034D01*
X174363Y550099D01*
X174267Y550166D01*
X174174Y550237D01*
X174083Y550310D01*
X173994Y550387D01*
X173908Y550466D01*
X173824Y550548D01*
X173743Y550633D01*
X173665Y550720D01*
X173590Y550810D01*
X173517Y550902D01*
X173448Y550997D01*
X173382Y551093D01*
X173319Y551192D01*
X173259Y551293D01*
X173202Y551396D01*
X173149Y551500D01*
X173100Y551606D01*
X173053Y551714D01*
X173011Y551823D01*
X172971Y551933D01*
X172936Y552045D01*
X172904Y552158D01*
X172876Y552272D01*
X172851Y552386D01*
X172830Y552502D01*
X172813Y552618D01*
X172800Y552734D01*
X172791Y552851D01*
X172785Y552968D01*
X172783Y553085D01*
X179451Y547307D02*
X179551Y547246D01*
X179649Y547181D01*
X179745Y547114D01*
X179838Y547043D01*
X179929Y546970D01*
X180018Y546893D01*
X180104Y546814D01*
X180188Y546732D01*
X180269Y546647D01*
X180347Y546560D01*
X180422Y546470D01*
X180495Y546378D01*
X180564Y546283D01*
X180630Y546187D01*
X180693Y546088D01*
X180753Y545987D01*
X180810Y545884D01*
X180863Y545780D01*
X180912Y545674D01*
X180959Y545566D01*
X181001Y545457D01*
X181041Y545347D01*
X181076Y545235D01*
X181108Y545122D01*
X181136Y545008D01*
X181161Y544894D01*
X181182Y544778D01*
X181199Y544662D01*
X181212Y544546D01*
X181221Y544429D01*
X181227Y544312D01*
X181229Y544195D01*
X179451Y547307D02*
X174562Y549974D01*
X186560Y556641D02*
X191894Y540639D01*
X197228Y556641D01*
X207970Y556642D02*
X208096Y556640D01*
X208221Y556634D01*
X208347Y556624D01*
X208471Y556610D01*
X208596Y556593D01*
X208720Y556571D01*
X208843Y556546D01*
X208965Y556516D01*
X209086Y556483D01*
X209206Y556446D01*
X209325Y556405D01*
X209443Y556361D01*
X209559Y556313D01*
X209674Y556261D01*
X209786Y556206D01*
X209897Y556147D01*
X210007Y556085D01*
X210114Y556019D01*
X210219Y555950D01*
X210322Y555878D01*
X210422Y555802D01*
X210520Y555724D01*
X210616Y555642D01*
X210709Y555558D01*
X210799Y555470D01*
X210887Y555380D01*
X210971Y555287D01*
X211053Y555191D01*
X211131Y555093D01*
X211207Y554993D01*
X211279Y554890D01*
X211348Y554785D01*
X211414Y554678D01*
X211476Y554568D01*
X211535Y554457D01*
X211590Y554345D01*
X211642Y554230D01*
X211690Y554114D01*
X211734Y553996D01*
X211775Y553877D01*
X211812Y553757D01*
X211845Y553636D01*
X211875Y553514D01*
X211900Y553391D01*
X211922Y553267D01*
X211939Y553142D01*
X211953Y553018D01*
X211963Y552892D01*
X211969Y552767D01*
X211971Y552641D01*
X207970Y556641D02*
X207829Y556639D01*
X207689Y556633D01*
X207549Y556624D01*
X207409Y556610D01*
X207270Y556593D01*
X207131Y556572D01*
X206992Y556547D01*
X206855Y556519D01*
X206718Y556486D01*
X206582Y556450D01*
X206447Y556410D01*
X206314Y556367D01*
X206181Y556320D01*
X206050Y556269D01*
X205921Y556215D01*
X205793Y556157D01*
X205666Y556096D01*
X205541Y556031D01*
X205419Y555963D01*
X205298Y555892D01*
X205178Y555817D01*
X205062Y555739D01*
X204947Y555658D01*
X204834Y555574D01*
X204724Y555486D01*
X204616Y555396D01*
X204511Y555303D01*
X204409Y555207D01*
X204309Y555108D01*
X204211Y555007D01*
X204117Y554903D01*
X204025Y554796D01*
X203937Y554687D01*
X203851Y554576D01*
X203769Y554462D01*
X203689Y554346D01*
X203613Y554228D01*
X203540Y554108D01*
X203471Y553986D01*
X203404Y553862D01*
X203341Y553736D01*
X203282Y553609D01*
X203226Y553480D01*
X203174Y553350D01*
X203125Y553218D01*
X203080Y553085D01*
X210637Y549529D02*
X210729Y549620D01*
X210819Y549713D01*
X210905Y549808D01*
X210989Y549906D01*
X211069Y550007D01*
X211147Y550110D01*
X211221Y550215D01*
X211292Y550323D01*
X211360Y550432D01*
X211424Y550544D01*
X211486Y550657D01*
X211543Y550772D01*
X211598Y550889D01*
X211649Y551008D01*
X211696Y551128D01*
X211739Y551249D01*
X211779Y551371D01*
X211815Y551495D01*
X211848Y551620D01*
X211877Y551745D01*
X211902Y551872D01*
X211923Y551999D01*
X211940Y552127D01*
X211954Y552255D01*
X211963Y552383D01*
X211969Y552512D01*
X211971Y552641D01*
X210637Y549529D02*
X203080Y540639D01*
X211970Y540639D01*
D10*
X398789Y44958D02*
X401386Y44958D01*
X398789Y44958D02*
X398690Y44960D01*
X398590Y44966D01*
X398491Y44975D01*
X398393Y44988D01*
X398295Y45005D01*
X398197Y45026D01*
X398101Y45051D01*
X398006Y45079D01*
X397912Y45111D01*
X397819Y45146D01*
X397727Y45185D01*
X397637Y45228D01*
X397549Y45273D01*
X397462Y45323D01*
X397378Y45375D01*
X397295Y45431D01*
X397215Y45489D01*
X397137Y45551D01*
X397062Y45616D01*
X396989Y45684D01*
X396919Y45754D01*
X396851Y45827D01*
X396786Y45902D01*
X396724Y45980D01*
X396666Y46060D01*
X396610Y46143D01*
X396558Y46227D01*
X396508Y46314D01*
X396463Y46402D01*
X396420Y46492D01*
X396381Y46584D01*
X396346Y46677D01*
X396314Y46771D01*
X396286Y46866D01*
X396261Y46962D01*
X396240Y47060D01*
X396223Y47158D01*
X396210Y47256D01*
X396201Y47355D01*
X396195Y47455D01*
X396193Y47554D01*
X396193Y54046D01*
X396195Y54145D01*
X396201Y54245D01*
X396210Y54344D01*
X396223Y54442D01*
X396240Y54540D01*
X396261Y54638D01*
X396286Y54734D01*
X396314Y54829D01*
X396346Y54923D01*
X396381Y55016D01*
X396420Y55108D01*
X396463Y55198D01*
X396508Y55286D01*
X396558Y55373D01*
X396610Y55457D01*
X396666Y55540D01*
X396724Y55620D01*
X396786Y55698D01*
X396851Y55773D01*
X396919Y55846D01*
X396989Y55916D01*
X397062Y55984D01*
X397137Y56049D01*
X397215Y56111D01*
X397295Y56169D01*
X397378Y56225D01*
X397462Y56277D01*
X397549Y56327D01*
X397637Y56372D01*
X397727Y56415D01*
X397819Y56454D01*
X397911Y56489D01*
X398006Y56521D01*
X398101Y56549D01*
X398197Y56574D01*
X398295Y56595D01*
X398393Y56612D01*
X398491Y56625D01*
X398590Y56634D01*
X398690Y56640D01*
X398789Y56642D01*
X401386Y56642D01*
X405751Y56642D02*
X405751Y55344D01*
X405751Y56642D02*
X412242Y56642D01*
X408996Y44958D01*
D25*
X464075Y235675D03*
X450325Y235675D03*
D26*
X457200Y239550D03*
D10*
X470408Y228101D02*
X482092Y228101D01*
X482092Y233293D01*
X482092Y238007D02*
X482092Y243199D01*
X482092Y238007D02*
X470408Y238007D01*
X470408Y243199D01*
X475601Y241901D02*
X475601Y238007D01*
X470408Y247890D02*
X482092Y247890D01*
X470408Y247890D02*
X470408Y251135D01*
X470410Y251248D01*
X470416Y251361D01*
X470426Y251474D01*
X470440Y251587D01*
X470457Y251699D01*
X470479Y251810D01*
X470504Y251920D01*
X470534Y252030D01*
X470567Y252138D01*
X470604Y252245D01*
X470644Y252351D01*
X470689Y252455D01*
X470737Y252558D01*
X470788Y252659D01*
X470843Y252758D01*
X470901Y252855D01*
X470963Y252950D01*
X471028Y253043D01*
X471096Y253133D01*
X471167Y253221D01*
X471242Y253307D01*
X471319Y253390D01*
X471399Y253470D01*
X471482Y253547D01*
X471568Y253622D01*
X471656Y253693D01*
X471746Y253761D01*
X471839Y253826D01*
X471934Y253888D01*
X472031Y253946D01*
X472130Y254001D01*
X472231Y254052D01*
X472334Y254100D01*
X472438Y254145D01*
X472544Y254185D01*
X472651Y254222D01*
X472759Y254255D01*
X472869Y254285D01*
X472979Y254310D01*
X473090Y254332D01*
X473202Y254349D01*
X473315Y254363D01*
X473428Y254373D01*
X473541Y254379D01*
X473654Y254381D01*
X478846Y254381D01*
X478846Y254382D02*
X478959Y254380D01*
X479072Y254374D01*
X479185Y254364D01*
X479298Y254350D01*
X479410Y254333D01*
X479521Y254311D01*
X479631Y254286D01*
X479741Y254256D01*
X479849Y254223D01*
X479956Y254186D01*
X480062Y254146D01*
X480166Y254101D01*
X480269Y254053D01*
X480370Y254002D01*
X480469Y253947D01*
X480566Y253889D01*
X480661Y253827D01*
X480754Y253762D01*
X480844Y253694D01*
X480932Y253623D01*
X481018Y253548D01*
X481101Y253471D01*
X481181Y253391D01*
X481258Y253308D01*
X481333Y253222D01*
X481404Y253134D01*
X481472Y253044D01*
X481537Y252951D01*
X481599Y252856D01*
X481657Y252759D01*
X481712Y252660D01*
X481763Y252559D01*
X481811Y252456D01*
X481856Y252352D01*
X481896Y252246D01*
X481933Y252139D01*
X481966Y252031D01*
X481996Y251921D01*
X482021Y251811D01*
X482043Y251700D01*
X482060Y251588D01*
X482074Y251475D01*
X482084Y251362D01*
X482090Y251249D01*
X482092Y251136D01*
X482092Y251135D02*
X482092Y247890D01*
X473004Y259701D02*
X470408Y262946D01*
X482092Y262946D01*
X482092Y259701D02*
X482092Y266192D01*
D25*
X502175Y235675D03*
X488425Y235675D03*
D26*
X495300Y239550D03*
D10*
X508508Y228101D02*
X520192Y228101D01*
X520192Y233293D01*
X520192Y238007D02*
X520192Y243199D01*
X520192Y238007D02*
X508508Y238007D01*
X508508Y243199D01*
X513701Y241901D02*
X513701Y238007D01*
X508508Y247890D02*
X520192Y247890D01*
X508508Y247890D02*
X508508Y251135D01*
X508510Y251248D01*
X508516Y251361D01*
X508526Y251474D01*
X508540Y251587D01*
X508557Y251699D01*
X508579Y251810D01*
X508604Y251920D01*
X508634Y252030D01*
X508667Y252138D01*
X508704Y252245D01*
X508744Y252351D01*
X508789Y252455D01*
X508837Y252558D01*
X508888Y252659D01*
X508943Y252758D01*
X509001Y252855D01*
X509063Y252950D01*
X509128Y253043D01*
X509196Y253133D01*
X509267Y253221D01*
X509342Y253307D01*
X509419Y253390D01*
X509499Y253470D01*
X509582Y253547D01*
X509668Y253622D01*
X509756Y253693D01*
X509846Y253761D01*
X509939Y253826D01*
X510034Y253888D01*
X510131Y253946D01*
X510230Y254001D01*
X510331Y254052D01*
X510434Y254100D01*
X510538Y254145D01*
X510644Y254185D01*
X510751Y254222D01*
X510859Y254255D01*
X510969Y254285D01*
X511079Y254310D01*
X511190Y254332D01*
X511302Y254349D01*
X511415Y254363D01*
X511528Y254373D01*
X511641Y254379D01*
X511754Y254381D01*
X516946Y254381D01*
X516946Y254382D02*
X517059Y254380D01*
X517172Y254374D01*
X517285Y254364D01*
X517398Y254350D01*
X517510Y254333D01*
X517621Y254311D01*
X517731Y254286D01*
X517841Y254256D01*
X517949Y254223D01*
X518056Y254186D01*
X518162Y254146D01*
X518266Y254101D01*
X518369Y254053D01*
X518470Y254002D01*
X518569Y253947D01*
X518666Y253889D01*
X518761Y253827D01*
X518854Y253762D01*
X518944Y253694D01*
X519032Y253623D01*
X519118Y253548D01*
X519201Y253471D01*
X519281Y253391D01*
X519358Y253308D01*
X519433Y253222D01*
X519504Y253134D01*
X519572Y253044D01*
X519637Y252951D01*
X519699Y252856D01*
X519757Y252759D01*
X519812Y252660D01*
X519863Y252559D01*
X519911Y252456D01*
X519956Y252352D01*
X519996Y252246D01*
X520033Y252139D01*
X520066Y252031D01*
X520096Y251921D01*
X520121Y251811D01*
X520143Y251700D01*
X520160Y251588D01*
X520174Y251475D01*
X520184Y251362D01*
X520190Y251249D01*
X520192Y251136D01*
X520192Y251135D02*
X520192Y247890D01*
X508508Y263271D02*
X508510Y263378D01*
X508516Y263484D01*
X508526Y263590D01*
X508539Y263696D01*
X508557Y263802D01*
X508578Y263906D01*
X508603Y264010D01*
X508632Y264113D01*
X508664Y264214D01*
X508701Y264314D01*
X508741Y264413D01*
X508784Y264511D01*
X508831Y264607D01*
X508882Y264701D01*
X508936Y264793D01*
X508993Y264883D01*
X509053Y264971D01*
X509117Y265056D01*
X509184Y265139D01*
X509254Y265220D01*
X509326Y265298D01*
X509402Y265374D01*
X509480Y265446D01*
X509561Y265516D01*
X509644Y265583D01*
X509729Y265647D01*
X509817Y265707D01*
X509907Y265764D01*
X509999Y265818D01*
X510093Y265869D01*
X510189Y265916D01*
X510287Y265959D01*
X510386Y265999D01*
X510486Y266036D01*
X510587Y266068D01*
X510690Y266097D01*
X510794Y266122D01*
X510898Y266143D01*
X511004Y266161D01*
X511110Y266174D01*
X511216Y266184D01*
X511322Y266190D01*
X511429Y266192D01*
X508508Y263271D02*
X508510Y263150D01*
X508516Y263029D01*
X508526Y262909D01*
X508539Y262788D01*
X508557Y262669D01*
X508578Y262549D01*
X508603Y262431D01*
X508632Y262314D01*
X508665Y262197D01*
X508701Y262082D01*
X508742Y261968D01*
X508785Y261855D01*
X508833Y261743D01*
X508884Y261634D01*
X508939Y261526D01*
X508997Y261419D01*
X509058Y261315D01*
X509123Y261213D01*
X509191Y261113D01*
X509262Y261015D01*
X509336Y260919D01*
X509413Y260826D01*
X509494Y260736D01*
X509577Y260648D01*
X509663Y260563D01*
X509752Y260480D01*
X509843Y260401D01*
X509937Y260324D01*
X510033Y260251D01*
X510131Y260181D01*
X510232Y260114D01*
X510335Y260050D01*
X510440Y259990D01*
X510547Y259932D01*
X510655Y259879D01*
X510765Y259829D01*
X510877Y259783D01*
X510990Y259740D01*
X511105Y259701D01*
X513701Y265218D02*
X513623Y265297D01*
X513543Y265373D01*
X513460Y265446D01*
X513374Y265516D01*
X513287Y265583D01*
X513196Y265647D01*
X513104Y265707D01*
X513010Y265765D01*
X512913Y265819D01*
X512815Y265869D01*
X512715Y265916D01*
X512614Y265960D01*
X512511Y266000D01*
X512406Y266036D01*
X512301Y266068D01*
X512194Y266097D01*
X512087Y266122D01*
X511978Y266144D01*
X511869Y266161D01*
X511760Y266175D01*
X511650Y266184D01*
X511539Y266190D01*
X511429Y266192D01*
X513701Y265218D02*
X520192Y259701D01*
X520192Y266192D01*
X469392Y146745D02*
X457708Y146745D01*
X457708Y149990D01*
X457710Y150103D01*
X457716Y150216D01*
X457726Y150329D01*
X457740Y150442D01*
X457757Y150554D01*
X457779Y150665D01*
X457804Y150775D01*
X457834Y150885D01*
X457867Y150993D01*
X457904Y151100D01*
X457944Y151206D01*
X457989Y151310D01*
X458037Y151413D01*
X458088Y151514D01*
X458143Y151613D01*
X458201Y151710D01*
X458263Y151805D01*
X458328Y151898D01*
X458396Y151988D01*
X458467Y152076D01*
X458542Y152162D01*
X458619Y152245D01*
X458699Y152325D01*
X458782Y152402D01*
X458868Y152477D01*
X458956Y152548D01*
X459046Y152616D01*
X459139Y152681D01*
X459234Y152743D01*
X459331Y152801D01*
X459430Y152856D01*
X459531Y152907D01*
X459634Y152955D01*
X459738Y153000D01*
X459844Y153040D01*
X459951Y153077D01*
X460059Y153110D01*
X460169Y153140D01*
X460279Y153165D01*
X460390Y153187D01*
X460502Y153204D01*
X460615Y153218D01*
X460728Y153228D01*
X460841Y153234D01*
X460954Y153236D01*
X461067Y153234D01*
X461180Y153228D01*
X461293Y153218D01*
X461406Y153204D01*
X461518Y153187D01*
X461629Y153165D01*
X461739Y153140D01*
X461849Y153110D01*
X461957Y153077D01*
X462064Y153040D01*
X462170Y153000D01*
X462274Y152955D01*
X462377Y152907D01*
X462478Y152856D01*
X462577Y152801D01*
X462674Y152743D01*
X462769Y152681D01*
X462862Y152616D01*
X462952Y152548D01*
X463040Y152477D01*
X463126Y152402D01*
X463209Y152325D01*
X463289Y152245D01*
X463366Y152162D01*
X463441Y152076D01*
X463512Y151988D01*
X463580Y151898D01*
X463645Y151805D01*
X463707Y151710D01*
X463765Y151613D01*
X463820Y151514D01*
X463871Y151413D01*
X463919Y151310D01*
X463964Y151206D01*
X464004Y151100D01*
X464041Y150993D01*
X464074Y150885D01*
X464104Y150775D01*
X464129Y150665D01*
X464151Y150554D01*
X464168Y150442D01*
X464182Y150329D01*
X464192Y150216D01*
X464198Y150103D01*
X464200Y149990D01*
X464199Y149990D02*
X464199Y146745D01*
X464199Y150639D02*
X469392Y153236D01*
X469392Y158101D02*
X469392Y161346D01*
X469390Y161459D01*
X469384Y161572D01*
X469374Y161685D01*
X469360Y161798D01*
X469343Y161910D01*
X469321Y162021D01*
X469296Y162131D01*
X469266Y162241D01*
X469233Y162349D01*
X469196Y162456D01*
X469156Y162562D01*
X469111Y162666D01*
X469063Y162769D01*
X469012Y162870D01*
X468957Y162969D01*
X468899Y163066D01*
X468837Y163161D01*
X468772Y163254D01*
X468704Y163344D01*
X468633Y163432D01*
X468558Y163518D01*
X468481Y163601D01*
X468401Y163681D01*
X468318Y163758D01*
X468232Y163833D01*
X468144Y163904D01*
X468054Y163972D01*
X467961Y164037D01*
X467866Y164099D01*
X467769Y164157D01*
X467670Y164212D01*
X467569Y164263D01*
X467466Y164311D01*
X467362Y164356D01*
X467256Y164396D01*
X467149Y164433D01*
X467041Y164466D01*
X466931Y164496D01*
X466821Y164521D01*
X466710Y164543D01*
X466598Y164560D01*
X466485Y164574D01*
X466372Y164584D01*
X466259Y164590D01*
X466146Y164592D01*
X466033Y164590D01*
X465920Y164584D01*
X465807Y164574D01*
X465694Y164560D01*
X465582Y164543D01*
X465471Y164521D01*
X465361Y164496D01*
X465251Y164466D01*
X465143Y164433D01*
X465036Y164396D01*
X464930Y164356D01*
X464826Y164311D01*
X464723Y164263D01*
X464622Y164212D01*
X464523Y164157D01*
X464426Y164099D01*
X464331Y164037D01*
X464238Y163972D01*
X464148Y163904D01*
X464060Y163833D01*
X463974Y163758D01*
X463891Y163681D01*
X463811Y163601D01*
X463734Y163518D01*
X463659Y163432D01*
X463588Y163344D01*
X463520Y163254D01*
X463455Y163161D01*
X463393Y163066D01*
X463335Y162969D01*
X463280Y162870D01*
X463229Y162769D01*
X463181Y162666D01*
X463136Y162562D01*
X463096Y162456D01*
X463059Y162349D01*
X463026Y162241D01*
X462996Y162131D01*
X462971Y162021D01*
X462949Y161910D01*
X462932Y161798D01*
X462918Y161685D01*
X462908Y161572D01*
X462902Y161459D01*
X462900Y161346D01*
X457708Y161996D02*
X457708Y158101D01*
X457708Y161996D02*
X457710Y162097D01*
X457716Y162197D01*
X457726Y162297D01*
X457739Y162397D01*
X457757Y162496D01*
X457778Y162595D01*
X457803Y162692D01*
X457832Y162789D01*
X457865Y162884D01*
X457901Y162978D01*
X457941Y163070D01*
X457984Y163161D01*
X458031Y163250D01*
X458081Y163337D01*
X458135Y163423D01*
X458192Y163506D01*
X458252Y163586D01*
X458315Y163665D01*
X458382Y163741D01*
X458451Y163814D01*
X458523Y163884D01*
X458597Y163952D01*
X458674Y164017D01*
X458754Y164078D01*
X458836Y164137D01*
X458920Y164192D01*
X459006Y164244D01*
X459094Y164293D01*
X459184Y164338D01*
X459276Y164380D01*
X459369Y164418D01*
X459464Y164452D01*
X459559Y164483D01*
X459656Y164510D01*
X459754Y164533D01*
X459853Y164553D01*
X459953Y164568D01*
X460053Y164580D01*
X460153Y164588D01*
X460254Y164592D01*
X460354Y164592D01*
X460455Y164588D01*
X460555Y164580D01*
X460655Y164568D01*
X460755Y164553D01*
X460854Y164533D01*
X460952Y164510D01*
X461049Y164483D01*
X461144Y164452D01*
X461239Y164418D01*
X461332Y164380D01*
X461424Y164338D01*
X461514Y164293D01*
X461602Y164244D01*
X461688Y164192D01*
X461772Y164137D01*
X461854Y164078D01*
X461934Y164017D01*
X462011Y163952D01*
X462085Y163884D01*
X462157Y163814D01*
X462226Y163741D01*
X462293Y163665D01*
X462356Y163586D01*
X462416Y163506D01*
X462473Y163423D01*
X462527Y163337D01*
X462577Y163250D01*
X462624Y163161D01*
X462667Y163070D01*
X462707Y162978D01*
X462743Y162884D01*
X462776Y162789D01*
X462805Y162692D01*
X462830Y162595D01*
X462851Y162496D01*
X462869Y162397D01*
X462882Y162297D01*
X462892Y162197D01*
X462898Y162097D01*
X462900Y161996D01*
X462901Y161996D02*
X462901Y159399D01*
X489458Y146745D02*
X501142Y146745D01*
X489458Y146745D02*
X489458Y149990D01*
X489460Y150103D01*
X489466Y150216D01*
X489476Y150329D01*
X489490Y150442D01*
X489507Y150554D01*
X489529Y150665D01*
X489554Y150775D01*
X489584Y150885D01*
X489617Y150993D01*
X489654Y151100D01*
X489694Y151206D01*
X489739Y151310D01*
X489787Y151413D01*
X489838Y151514D01*
X489893Y151613D01*
X489951Y151710D01*
X490013Y151805D01*
X490078Y151898D01*
X490146Y151988D01*
X490217Y152076D01*
X490292Y152162D01*
X490369Y152245D01*
X490449Y152325D01*
X490532Y152402D01*
X490618Y152477D01*
X490706Y152548D01*
X490796Y152616D01*
X490889Y152681D01*
X490984Y152743D01*
X491081Y152801D01*
X491180Y152856D01*
X491281Y152907D01*
X491384Y152955D01*
X491488Y153000D01*
X491594Y153040D01*
X491701Y153077D01*
X491809Y153110D01*
X491919Y153140D01*
X492029Y153165D01*
X492140Y153187D01*
X492252Y153204D01*
X492365Y153218D01*
X492478Y153228D01*
X492591Y153234D01*
X492704Y153236D01*
X492817Y153234D01*
X492930Y153228D01*
X493043Y153218D01*
X493156Y153204D01*
X493268Y153187D01*
X493379Y153165D01*
X493489Y153140D01*
X493599Y153110D01*
X493707Y153077D01*
X493814Y153040D01*
X493920Y153000D01*
X494024Y152955D01*
X494127Y152907D01*
X494228Y152856D01*
X494327Y152801D01*
X494424Y152743D01*
X494519Y152681D01*
X494612Y152616D01*
X494702Y152548D01*
X494790Y152477D01*
X494876Y152402D01*
X494959Y152325D01*
X495039Y152245D01*
X495116Y152162D01*
X495191Y152076D01*
X495262Y151988D01*
X495330Y151898D01*
X495395Y151805D01*
X495457Y151710D01*
X495515Y151613D01*
X495570Y151514D01*
X495621Y151413D01*
X495669Y151310D01*
X495714Y151206D01*
X495754Y151100D01*
X495791Y150993D01*
X495824Y150885D01*
X495854Y150775D01*
X495879Y150665D01*
X495901Y150554D01*
X495918Y150442D01*
X495932Y150329D01*
X495942Y150216D01*
X495948Y150103D01*
X495950Y149990D01*
X495949Y149990D02*
X495949Y146745D01*
X495949Y150639D02*
X501142Y153236D01*
X498546Y158101D02*
X489458Y160697D01*
X498546Y158101D02*
X498546Y164592D01*
X495949Y162645D02*
X501142Y162645D01*
X418592Y396249D02*
X406908Y396249D01*
X418592Y396249D02*
X418592Y401441D01*
X409504Y405751D02*
X406908Y408996D01*
X418592Y408996D01*
X418592Y405751D02*
X418592Y412242D01*
D14*
X426212Y371856D02*
X428752Y371856D01*
X434848Y371856D01*
X437388Y371856D01*
X434848Y371856D02*
X434846Y371965D01*
X434840Y372073D01*
X434831Y372182D01*
X434817Y372290D01*
X434800Y372397D01*
X434778Y372504D01*
X434753Y372610D01*
X434725Y372715D01*
X434692Y372819D01*
X434656Y372921D01*
X434616Y373022D01*
X434573Y373122D01*
X434526Y373220D01*
X434475Y373317D01*
X434421Y373411D01*
X434364Y373504D01*
X434304Y373594D01*
X434240Y373683D01*
X434173Y373769D01*
X434104Y373852D01*
X434031Y373933D01*
X433955Y374011D01*
X433877Y374087D01*
X433796Y374160D01*
X433713Y374229D01*
X433627Y374296D01*
X433538Y374360D01*
X433448Y374420D01*
X433355Y374477D01*
X433261Y374531D01*
X433164Y374582D01*
X433066Y374629D01*
X432966Y374672D01*
X432865Y374712D01*
X432763Y374748D01*
X432659Y374781D01*
X432554Y374809D01*
X432448Y374834D01*
X432341Y374856D01*
X432234Y374873D01*
X432126Y374887D01*
X432017Y374896D01*
X431909Y374902D01*
X431800Y374904D01*
X431691Y374902D01*
X431583Y374896D01*
X431474Y374887D01*
X431366Y374873D01*
X431259Y374856D01*
X431152Y374834D01*
X431046Y374809D01*
X430941Y374781D01*
X430837Y374748D01*
X430735Y374712D01*
X430634Y374672D01*
X430534Y374629D01*
X430436Y374582D01*
X430339Y374531D01*
X430245Y374477D01*
X430152Y374420D01*
X430062Y374360D01*
X429973Y374296D01*
X429887Y374229D01*
X429804Y374160D01*
X429723Y374087D01*
X429645Y374011D01*
X429569Y373933D01*
X429496Y373852D01*
X429427Y373769D01*
X429360Y373683D01*
X429296Y373594D01*
X429236Y373504D01*
X429179Y373411D01*
X429125Y373317D01*
X429074Y373220D01*
X429027Y373122D01*
X428984Y373022D01*
X428944Y372921D01*
X428908Y372819D01*
X428875Y372715D01*
X428847Y372610D01*
X428822Y372504D01*
X428800Y372397D01*
X428783Y372290D01*
X428769Y372182D01*
X428760Y372073D01*
X428754Y371965D01*
X428752Y371856D01*
D11*
X465330Y355711D02*
X465330Y342135D01*
X465329Y355711D02*
X465327Y355854D01*
X465321Y355996D01*
X465311Y356138D01*
X465298Y356280D01*
X465280Y356422D01*
X465259Y356563D01*
X465234Y356703D01*
X465205Y356843D01*
X465172Y356982D01*
X465135Y357120D01*
X465095Y357256D01*
X465051Y357392D01*
X465003Y357526D01*
X464952Y357659D01*
X464897Y357791D01*
X464838Y357921D01*
X464776Y358049D01*
X464710Y358176D01*
X464641Y358301D01*
X464569Y358424D01*
X464493Y358545D01*
X464414Y358663D01*
X464332Y358780D01*
X464246Y358894D01*
X464158Y359006D01*
X464066Y359115D01*
X463972Y359222D01*
X463875Y359326D01*
X463775Y359428D01*
X463672Y359527D01*
X463566Y359623D01*
X463458Y359716D01*
X463347Y359806D01*
X463234Y359893D01*
X463119Y359976D01*
X463001Y360057D01*
X462881Y360134D01*
X462760Y360209D01*
X462636Y360279D01*
X462510Y360347D01*
X462382Y360411D01*
X462253Y360471D01*
X462122Y360528D01*
X461990Y360581D01*
X461856Y360631D01*
X461721Y360676D01*
X461585Y360719D01*
X461448Y360757D01*
X461309Y360792D01*
X461170Y360823D01*
X461030Y360850D01*
X460890Y360873D01*
X460748Y360893D01*
X460606Y360908D01*
X460464Y360920D01*
X460322Y360928D01*
X460179Y360932D01*
X460037Y360932D01*
X459894Y360928D01*
X459752Y360920D01*
X459610Y360908D01*
X459468Y360893D01*
X459326Y360873D01*
X459186Y360850D01*
X459046Y360823D01*
X458907Y360792D01*
X458768Y360757D01*
X458631Y360719D01*
X458495Y360676D01*
X458360Y360631D01*
X458226Y360581D01*
X458094Y360528D01*
X457963Y360471D01*
X457834Y360411D01*
X457706Y360347D01*
X457580Y360279D01*
X457456Y360209D01*
X457335Y360134D01*
X457215Y360057D01*
X457097Y359976D01*
X456982Y359893D01*
X456869Y359806D01*
X456758Y359716D01*
X456650Y359623D01*
X456544Y359527D01*
X456441Y359428D01*
X456341Y359326D01*
X456244Y359222D01*
X456150Y359115D01*
X456058Y359006D01*
X455970Y358894D01*
X455884Y358780D01*
X455802Y358663D01*
X455723Y358545D01*
X455647Y358424D01*
X455575Y358301D01*
X455506Y358176D01*
X455440Y358049D01*
X455378Y357921D01*
X455319Y357791D01*
X455264Y357659D01*
X455213Y357526D01*
X455165Y357392D01*
X455121Y357256D01*
X455081Y357120D01*
X455044Y356982D01*
X455011Y356843D01*
X454982Y356703D01*
X454957Y356563D01*
X454936Y356422D01*
X454918Y356280D01*
X454905Y356138D01*
X454895Y355996D01*
X454889Y355854D01*
X454887Y355711D01*
X454887Y342135D01*
X446900Y346313D02*
X441678Y342135D01*
X441678Y360933D01*
X436457Y360933D02*
X446900Y360933D01*
D10*
X520192Y58486D02*
X520192Y55889D01*
X520190Y55790D01*
X520184Y55690D01*
X520175Y55591D01*
X520162Y55493D01*
X520145Y55395D01*
X520124Y55297D01*
X520099Y55201D01*
X520071Y55106D01*
X520039Y55012D01*
X520004Y54919D01*
X519965Y54827D01*
X519922Y54737D01*
X519877Y54649D01*
X519827Y54562D01*
X519775Y54478D01*
X519719Y54395D01*
X519661Y54315D01*
X519599Y54237D01*
X519534Y54162D01*
X519466Y54089D01*
X519396Y54019D01*
X519323Y53951D01*
X519248Y53886D01*
X519170Y53824D01*
X519090Y53766D01*
X519007Y53710D01*
X518923Y53658D01*
X518836Y53608D01*
X518748Y53563D01*
X518658Y53520D01*
X518566Y53481D01*
X518473Y53446D01*
X518379Y53414D01*
X518284Y53386D01*
X518188Y53361D01*
X518090Y53340D01*
X517992Y53323D01*
X517894Y53310D01*
X517795Y53301D01*
X517695Y53295D01*
X517596Y53293D01*
X511104Y53293D01*
X511104Y53292D02*
X511005Y53294D01*
X510905Y53300D01*
X510806Y53309D01*
X510708Y53322D01*
X510610Y53340D01*
X510512Y53360D01*
X510416Y53385D01*
X510320Y53413D01*
X510226Y53445D01*
X510133Y53480D01*
X510042Y53519D01*
X509952Y53562D01*
X509863Y53607D01*
X509777Y53657D01*
X509692Y53709D01*
X509610Y53765D01*
X509530Y53824D01*
X509452Y53885D01*
X509376Y53950D01*
X509303Y54018D01*
X509233Y54088D01*
X509165Y54161D01*
X509100Y54237D01*
X509039Y54315D01*
X508980Y54395D01*
X508924Y54477D01*
X508872Y54562D01*
X508823Y54648D01*
X508777Y54737D01*
X508734Y54827D01*
X508695Y54918D01*
X508660Y55011D01*
X508628Y55105D01*
X508600Y55201D01*
X508575Y55297D01*
X508555Y55395D01*
X508537Y55493D01*
X508524Y55591D01*
X508515Y55690D01*
X508509Y55789D01*
X508507Y55889D01*
X508508Y55889D02*
X508508Y58486D01*
X516946Y62850D02*
X516833Y62852D01*
X516720Y62858D01*
X516607Y62868D01*
X516494Y62882D01*
X516382Y62899D01*
X516271Y62921D01*
X516161Y62946D01*
X516051Y62976D01*
X515943Y63009D01*
X515836Y63046D01*
X515730Y63086D01*
X515626Y63131D01*
X515523Y63179D01*
X515422Y63230D01*
X515323Y63285D01*
X515226Y63343D01*
X515131Y63405D01*
X515038Y63470D01*
X514948Y63538D01*
X514860Y63609D01*
X514774Y63684D01*
X514691Y63761D01*
X514611Y63841D01*
X514534Y63924D01*
X514459Y64010D01*
X514388Y64098D01*
X514320Y64188D01*
X514255Y64281D01*
X514193Y64376D01*
X514135Y64473D01*
X514080Y64572D01*
X514029Y64673D01*
X513981Y64776D01*
X513936Y64880D01*
X513896Y64986D01*
X513859Y65093D01*
X513826Y65201D01*
X513796Y65311D01*
X513771Y65421D01*
X513749Y65532D01*
X513732Y65644D01*
X513718Y65757D01*
X513708Y65870D01*
X513702Y65983D01*
X513700Y66096D01*
X513702Y66209D01*
X513708Y66322D01*
X513718Y66435D01*
X513732Y66548D01*
X513749Y66660D01*
X513771Y66771D01*
X513796Y66881D01*
X513826Y66991D01*
X513859Y67099D01*
X513896Y67206D01*
X513936Y67312D01*
X513981Y67416D01*
X514029Y67519D01*
X514080Y67620D01*
X514135Y67719D01*
X514193Y67816D01*
X514255Y67911D01*
X514320Y68004D01*
X514388Y68094D01*
X514459Y68182D01*
X514534Y68268D01*
X514611Y68351D01*
X514691Y68431D01*
X514774Y68508D01*
X514860Y68583D01*
X514948Y68654D01*
X515038Y68722D01*
X515131Y68787D01*
X515226Y68849D01*
X515323Y68907D01*
X515422Y68962D01*
X515523Y69013D01*
X515626Y69061D01*
X515730Y69106D01*
X515836Y69146D01*
X515943Y69183D01*
X516051Y69216D01*
X516161Y69246D01*
X516271Y69271D01*
X516382Y69293D01*
X516494Y69310D01*
X516607Y69324D01*
X516720Y69334D01*
X516833Y69340D01*
X516946Y69342D01*
X517059Y69340D01*
X517172Y69334D01*
X517285Y69324D01*
X517398Y69310D01*
X517510Y69293D01*
X517621Y69271D01*
X517731Y69246D01*
X517841Y69216D01*
X517949Y69183D01*
X518056Y69146D01*
X518162Y69106D01*
X518266Y69061D01*
X518369Y69013D01*
X518470Y68962D01*
X518569Y68907D01*
X518666Y68849D01*
X518761Y68787D01*
X518854Y68722D01*
X518944Y68654D01*
X519032Y68583D01*
X519118Y68508D01*
X519201Y68431D01*
X519281Y68351D01*
X519358Y68268D01*
X519433Y68182D01*
X519504Y68094D01*
X519572Y68004D01*
X519637Y67911D01*
X519699Y67816D01*
X519757Y67719D01*
X519812Y67620D01*
X519863Y67519D01*
X519911Y67416D01*
X519956Y67312D01*
X519996Y67206D01*
X520033Y67099D01*
X520066Y66991D01*
X520096Y66881D01*
X520121Y66771D01*
X520143Y66660D01*
X520160Y66548D01*
X520174Y66435D01*
X520184Y66322D01*
X520190Y66209D01*
X520192Y66096D01*
X520190Y65983D01*
X520184Y65870D01*
X520174Y65757D01*
X520160Y65644D01*
X520143Y65532D01*
X520121Y65421D01*
X520096Y65311D01*
X520066Y65201D01*
X520033Y65093D01*
X519996Y64986D01*
X519956Y64880D01*
X519911Y64776D01*
X519863Y64673D01*
X519812Y64572D01*
X519757Y64473D01*
X519699Y64376D01*
X519637Y64281D01*
X519572Y64188D01*
X519504Y64098D01*
X519433Y64010D01*
X519358Y63924D01*
X519281Y63841D01*
X519201Y63761D01*
X519118Y63684D01*
X519032Y63609D01*
X518944Y63538D01*
X518854Y63470D01*
X518761Y63405D01*
X518666Y63343D01*
X518569Y63285D01*
X518470Y63230D01*
X518369Y63179D01*
X518266Y63131D01*
X518162Y63086D01*
X518056Y63046D01*
X517949Y63009D01*
X517841Y62976D01*
X517731Y62946D01*
X517621Y62921D01*
X517510Y62899D01*
X517398Y62882D01*
X517285Y62868D01*
X517172Y62858D01*
X517059Y62852D01*
X516946Y62850D01*
X511104Y63500D02*
X511003Y63502D01*
X510903Y63508D01*
X510803Y63518D01*
X510703Y63531D01*
X510604Y63549D01*
X510505Y63570D01*
X510408Y63595D01*
X510311Y63624D01*
X510216Y63657D01*
X510122Y63693D01*
X510030Y63733D01*
X509939Y63776D01*
X509850Y63823D01*
X509763Y63873D01*
X509677Y63927D01*
X509594Y63984D01*
X509514Y64044D01*
X509435Y64107D01*
X509359Y64174D01*
X509286Y64243D01*
X509216Y64315D01*
X509148Y64389D01*
X509083Y64466D01*
X509022Y64546D01*
X508963Y64628D01*
X508908Y64712D01*
X508856Y64798D01*
X508807Y64886D01*
X508762Y64976D01*
X508720Y65068D01*
X508682Y65161D01*
X508648Y65256D01*
X508617Y65351D01*
X508590Y65448D01*
X508567Y65546D01*
X508547Y65645D01*
X508532Y65745D01*
X508520Y65845D01*
X508512Y65945D01*
X508508Y66046D01*
X508508Y66146D01*
X508512Y66247D01*
X508520Y66347D01*
X508532Y66447D01*
X508547Y66547D01*
X508567Y66646D01*
X508590Y66744D01*
X508617Y66841D01*
X508648Y66936D01*
X508682Y67031D01*
X508720Y67124D01*
X508762Y67216D01*
X508807Y67306D01*
X508856Y67394D01*
X508908Y67480D01*
X508963Y67564D01*
X509022Y67646D01*
X509083Y67726D01*
X509148Y67803D01*
X509216Y67877D01*
X509286Y67949D01*
X509359Y68018D01*
X509435Y68085D01*
X509514Y68148D01*
X509594Y68208D01*
X509677Y68265D01*
X509763Y68319D01*
X509850Y68369D01*
X509939Y68416D01*
X510030Y68459D01*
X510122Y68499D01*
X510216Y68535D01*
X510311Y68568D01*
X510408Y68597D01*
X510505Y68622D01*
X510604Y68643D01*
X510703Y68661D01*
X510803Y68674D01*
X510903Y68684D01*
X511003Y68690D01*
X511104Y68692D01*
X511205Y68690D01*
X511305Y68684D01*
X511405Y68674D01*
X511505Y68661D01*
X511604Y68643D01*
X511703Y68622D01*
X511800Y68597D01*
X511897Y68568D01*
X511992Y68535D01*
X512086Y68499D01*
X512178Y68459D01*
X512269Y68416D01*
X512358Y68369D01*
X512445Y68319D01*
X512531Y68265D01*
X512614Y68208D01*
X512694Y68148D01*
X512773Y68085D01*
X512849Y68018D01*
X512922Y67949D01*
X512992Y67877D01*
X513060Y67803D01*
X513125Y67726D01*
X513186Y67646D01*
X513245Y67564D01*
X513300Y67480D01*
X513352Y67394D01*
X513401Y67306D01*
X513446Y67216D01*
X513488Y67124D01*
X513526Y67031D01*
X513560Y66936D01*
X513591Y66841D01*
X513618Y66744D01*
X513641Y66646D01*
X513661Y66547D01*
X513676Y66447D01*
X513688Y66347D01*
X513696Y66247D01*
X513700Y66146D01*
X513700Y66046D01*
X513696Y65945D01*
X513688Y65845D01*
X513676Y65745D01*
X513661Y65645D01*
X513641Y65546D01*
X513618Y65448D01*
X513591Y65351D01*
X513560Y65256D01*
X513526Y65161D01*
X513488Y65068D01*
X513446Y64976D01*
X513401Y64886D01*
X513352Y64798D01*
X513300Y64712D01*
X513245Y64628D01*
X513186Y64546D01*
X513125Y64466D01*
X513060Y64389D01*
X512992Y64315D01*
X512922Y64243D01*
X512849Y64174D01*
X512773Y64107D01*
X512694Y64044D01*
X512614Y63984D01*
X512531Y63927D01*
X512445Y63873D01*
X512358Y63823D01*
X512269Y63776D01*
X512178Y63733D01*
X512086Y63693D01*
X511992Y63657D01*
X511897Y63624D01*
X511800Y63595D01*
X511703Y63570D01*
X511604Y63549D01*
X511505Y63531D01*
X511405Y63518D01*
X511305Y63508D01*
X511205Y63502D01*
X511104Y63500D01*
X482092Y58486D02*
X482092Y55889D01*
X482090Y55790D01*
X482084Y55690D01*
X482075Y55591D01*
X482062Y55493D01*
X482045Y55395D01*
X482024Y55297D01*
X481999Y55201D01*
X481971Y55106D01*
X481939Y55012D01*
X481904Y54919D01*
X481865Y54827D01*
X481822Y54737D01*
X481777Y54649D01*
X481727Y54562D01*
X481675Y54478D01*
X481619Y54395D01*
X481561Y54315D01*
X481499Y54237D01*
X481434Y54162D01*
X481366Y54089D01*
X481296Y54019D01*
X481223Y53951D01*
X481148Y53886D01*
X481070Y53824D01*
X480990Y53766D01*
X480907Y53710D01*
X480823Y53658D01*
X480736Y53608D01*
X480648Y53563D01*
X480558Y53520D01*
X480466Y53481D01*
X480373Y53446D01*
X480279Y53414D01*
X480184Y53386D01*
X480088Y53361D01*
X479990Y53340D01*
X479892Y53323D01*
X479794Y53310D01*
X479695Y53301D01*
X479595Y53295D01*
X479496Y53293D01*
X473004Y53293D01*
X473004Y53292D02*
X472905Y53294D01*
X472805Y53300D01*
X472706Y53309D01*
X472608Y53322D01*
X472510Y53340D01*
X472412Y53360D01*
X472316Y53385D01*
X472220Y53413D01*
X472126Y53445D01*
X472033Y53480D01*
X471942Y53519D01*
X471852Y53562D01*
X471763Y53607D01*
X471677Y53657D01*
X471592Y53709D01*
X471510Y53765D01*
X471430Y53824D01*
X471352Y53885D01*
X471276Y53950D01*
X471203Y54018D01*
X471133Y54088D01*
X471065Y54161D01*
X471000Y54237D01*
X470939Y54315D01*
X470880Y54395D01*
X470824Y54477D01*
X470772Y54562D01*
X470723Y54648D01*
X470677Y54737D01*
X470634Y54827D01*
X470595Y54918D01*
X470560Y55011D01*
X470528Y55105D01*
X470500Y55201D01*
X470475Y55297D01*
X470455Y55395D01*
X470437Y55493D01*
X470424Y55591D01*
X470415Y55690D01*
X470409Y55789D01*
X470407Y55889D01*
X470408Y55889D02*
X470408Y58486D01*
X476899Y65447D02*
X476899Y69342D01*
X476899Y65447D02*
X476897Y65348D01*
X476891Y65248D01*
X476882Y65149D01*
X476869Y65051D01*
X476852Y64953D01*
X476831Y64855D01*
X476806Y64759D01*
X476778Y64664D01*
X476746Y64570D01*
X476711Y64477D01*
X476672Y64385D01*
X476629Y64295D01*
X476584Y64207D01*
X476534Y64120D01*
X476482Y64036D01*
X476426Y63953D01*
X476368Y63873D01*
X476306Y63795D01*
X476241Y63720D01*
X476173Y63647D01*
X476103Y63577D01*
X476030Y63509D01*
X475955Y63444D01*
X475877Y63382D01*
X475797Y63324D01*
X475714Y63268D01*
X475630Y63216D01*
X475543Y63166D01*
X475455Y63121D01*
X475365Y63078D01*
X475273Y63039D01*
X475180Y63004D01*
X475086Y62972D01*
X474991Y62944D01*
X474895Y62919D01*
X474797Y62898D01*
X474699Y62881D01*
X474601Y62868D01*
X474502Y62859D01*
X474402Y62853D01*
X474303Y62851D01*
X473654Y62851D01*
X473654Y62850D02*
X473541Y62852D01*
X473428Y62858D01*
X473315Y62868D01*
X473202Y62882D01*
X473090Y62899D01*
X472979Y62921D01*
X472869Y62946D01*
X472759Y62976D01*
X472651Y63009D01*
X472544Y63046D01*
X472438Y63086D01*
X472334Y63131D01*
X472231Y63179D01*
X472130Y63230D01*
X472031Y63285D01*
X471934Y63343D01*
X471839Y63405D01*
X471746Y63470D01*
X471656Y63538D01*
X471568Y63609D01*
X471482Y63684D01*
X471399Y63761D01*
X471319Y63841D01*
X471242Y63924D01*
X471167Y64010D01*
X471096Y64098D01*
X471028Y64188D01*
X470963Y64281D01*
X470901Y64376D01*
X470843Y64473D01*
X470788Y64572D01*
X470737Y64673D01*
X470689Y64776D01*
X470644Y64880D01*
X470604Y64986D01*
X470567Y65093D01*
X470534Y65201D01*
X470504Y65311D01*
X470479Y65421D01*
X470457Y65532D01*
X470440Y65644D01*
X470426Y65757D01*
X470416Y65870D01*
X470410Y65983D01*
X470408Y66096D01*
X470410Y66209D01*
X470416Y66322D01*
X470426Y66435D01*
X470440Y66548D01*
X470457Y66660D01*
X470479Y66771D01*
X470504Y66881D01*
X470534Y66991D01*
X470567Y67099D01*
X470604Y67206D01*
X470644Y67312D01*
X470689Y67416D01*
X470737Y67519D01*
X470788Y67620D01*
X470843Y67719D01*
X470901Y67816D01*
X470963Y67911D01*
X471028Y68004D01*
X471096Y68094D01*
X471167Y68182D01*
X471242Y68268D01*
X471319Y68351D01*
X471399Y68431D01*
X471482Y68508D01*
X471568Y68583D01*
X471656Y68654D01*
X471746Y68722D01*
X471839Y68787D01*
X471934Y68849D01*
X472031Y68907D01*
X472130Y68962D01*
X472231Y69013D01*
X472334Y69061D01*
X472438Y69106D01*
X472544Y69146D01*
X472651Y69183D01*
X472759Y69216D01*
X472869Y69246D01*
X472979Y69271D01*
X473090Y69293D01*
X473202Y69310D01*
X473315Y69324D01*
X473428Y69334D01*
X473541Y69340D01*
X473654Y69342D01*
X476899Y69342D01*
X477042Y69340D01*
X477185Y69334D01*
X477328Y69324D01*
X477470Y69310D01*
X477612Y69293D01*
X477754Y69271D01*
X477895Y69246D01*
X478035Y69216D01*
X478174Y69183D01*
X478312Y69146D01*
X478449Y69105D01*
X478585Y69061D01*
X478720Y69012D01*
X478853Y68960D01*
X478985Y68905D01*
X479115Y68845D01*
X479244Y68782D01*
X479371Y68716D01*
X479496Y68646D01*
X479618Y68573D01*
X479739Y68496D01*
X479858Y68416D01*
X479974Y68333D01*
X480089Y68247D01*
X480200Y68158D01*
X480310Y68065D01*
X480416Y67970D01*
X480520Y67871D01*
X480621Y67770D01*
X480720Y67666D01*
X480815Y67560D01*
X480908Y67450D01*
X480997Y67339D01*
X481083Y67224D01*
X481166Y67108D01*
X481246Y66989D01*
X481323Y66868D01*
X481396Y66746D01*
X481466Y66621D01*
X481532Y66494D01*
X481595Y66365D01*
X481655Y66235D01*
X481710Y66103D01*
X481762Y65970D01*
X481811Y65835D01*
X481855Y65699D01*
X481896Y65562D01*
X481933Y65424D01*
X481966Y65285D01*
X481996Y65145D01*
X482021Y65004D01*
X482043Y64862D01*
X482060Y64720D01*
X482074Y64578D01*
X482084Y64435D01*
X482090Y64292D01*
X482092Y64149D01*
X349758Y56642D02*
X349758Y44958D01*
X349758Y56642D02*
X353004Y56642D01*
X353117Y56640D01*
X353230Y56634D01*
X353343Y56624D01*
X353456Y56610D01*
X353568Y56593D01*
X353679Y56571D01*
X353789Y56546D01*
X353899Y56516D01*
X354007Y56483D01*
X354114Y56446D01*
X354220Y56406D01*
X354324Y56361D01*
X354427Y56313D01*
X354528Y56262D01*
X354627Y56207D01*
X354724Y56149D01*
X354819Y56087D01*
X354912Y56022D01*
X355002Y55954D01*
X355090Y55883D01*
X355176Y55808D01*
X355259Y55731D01*
X355339Y55651D01*
X355416Y55568D01*
X355491Y55482D01*
X355562Y55394D01*
X355630Y55304D01*
X355695Y55211D01*
X355757Y55116D01*
X355815Y55019D01*
X355870Y54920D01*
X355921Y54819D01*
X355969Y54716D01*
X356014Y54612D01*
X356054Y54506D01*
X356091Y54399D01*
X356124Y54291D01*
X356154Y54181D01*
X356179Y54071D01*
X356201Y53960D01*
X356218Y53848D01*
X356232Y53735D01*
X356242Y53622D01*
X356248Y53509D01*
X356250Y53396D01*
X356248Y53283D01*
X356242Y53170D01*
X356232Y53057D01*
X356218Y52944D01*
X356201Y52832D01*
X356179Y52721D01*
X356154Y52611D01*
X356124Y52501D01*
X356091Y52393D01*
X356054Y52286D01*
X356014Y52180D01*
X355969Y52076D01*
X355921Y51973D01*
X355870Y51872D01*
X355815Y51773D01*
X355757Y51676D01*
X355695Y51581D01*
X355630Y51488D01*
X355562Y51398D01*
X355491Y51310D01*
X355416Y51224D01*
X355339Y51141D01*
X355259Y51061D01*
X355176Y50984D01*
X355090Y50909D01*
X355002Y50838D01*
X354912Y50770D01*
X354819Y50705D01*
X354724Y50643D01*
X354627Y50585D01*
X354528Y50530D01*
X354427Y50479D01*
X354324Y50431D01*
X354220Y50386D01*
X354114Y50346D01*
X354007Y50309D01*
X353899Y50276D01*
X353789Y50246D01*
X353679Y50221D01*
X353568Y50199D01*
X353456Y50182D01*
X353343Y50168D01*
X353230Y50158D01*
X353117Y50152D01*
X353004Y50150D01*
X353004Y50151D02*
X349758Y50151D01*
X353653Y50151D02*
X356249Y44958D01*
X361114Y44958D02*
X365009Y44958D01*
X365108Y44960D01*
X365208Y44966D01*
X365307Y44975D01*
X365405Y44988D01*
X365503Y45005D01*
X365601Y45026D01*
X365697Y45051D01*
X365792Y45079D01*
X365886Y45111D01*
X365979Y45146D01*
X366071Y45185D01*
X366161Y45228D01*
X366249Y45273D01*
X366336Y45323D01*
X366420Y45375D01*
X366503Y45431D01*
X366583Y45489D01*
X366661Y45551D01*
X366736Y45616D01*
X366809Y45684D01*
X366879Y45754D01*
X366947Y45827D01*
X367012Y45902D01*
X367074Y45980D01*
X367132Y46060D01*
X367188Y46143D01*
X367240Y46227D01*
X367290Y46314D01*
X367335Y46402D01*
X367378Y46492D01*
X367417Y46584D01*
X367452Y46677D01*
X367484Y46771D01*
X367512Y46866D01*
X367537Y46962D01*
X367558Y47060D01*
X367575Y47158D01*
X367588Y47256D01*
X367597Y47355D01*
X367603Y47455D01*
X367605Y47554D01*
X367605Y48853D01*
X367603Y48952D01*
X367597Y49052D01*
X367588Y49151D01*
X367575Y49249D01*
X367558Y49347D01*
X367537Y49445D01*
X367512Y49541D01*
X367484Y49636D01*
X367452Y49730D01*
X367417Y49823D01*
X367378Y49915D01*
X367335Y50005D01*
X367290Y50093D01*
X367240Y50180D01*
X367188Y50264D01*
X367132Y50347D01*
X367074Y50427D01*
X367012Y50505D01*
X366947Y50580D01*
X366879Y50653D01*
X366809Y50723D01*
X366736Y50791D01*
X366661Y50856D01*
X366583Y50918D01*
X366503Y50976D01*
X366420Y51032D01*
X366336Y51084D01*
X366249Y51134D01*
X366161Y51179D01*
X366071Y51222D01*
X365979Y51261D01*
X365886Y51296D01*
X365792Y51328D01*
X365697Y51356D01*
X365601Y51381D01*
X365503Y51402D01*
X365405Y51419D01*
X365307Y51432D01*
X365208Y51441D01*
X365108Y51447D01*
X365009Y51449D01*
X361114Y51449D01*
X361114Y56642D01*
X367605Y56642D01*
X622950Y295975D02*
X622950Y415225D01*
X459075Y415225D02*
X459075Y295975D01*
X539075Y295975D02*
X622950Y295975D01*
X622950Y415225D02*
X539075Y415225D01*
X502950Y295975D02*
X459075Y295975D01*
X459075Y415225D02*
X502950Y415225D01*
X585611Y291592D02*
X577822Y279908D01*
X585611Y279908D02*
X577822Y291592D01*
X593471Y291592D02*
X593578Y291590D01*
X593684Y291584D01*
X593790Y291574D01*
X593896Y291561D01*
X594002Y291543D01*
X594106Y291522D01*
X594210Y291497D01*
X594313Y291468D01*
X594414Y291436D01*
X594514Y291399D01*
X594613Y291359D01*
X594711Y291316D01*
X594807Y291269D01*
X594901Y291218D01*
X594993Y291164D01*
X595083Y291107D01*
X595171Y291047D01*
X595256Y290983D01*
X595339Y290916D01*
X595420Y290846D01*
X595498Y290774D01*
X595574Y290698D01*
X595646Y290620D01*
X595716Y290539D01*
X595783Y290456D01*
X595847Y290371D01*
X595907Y290283D01*
X595964Y290193D01*
X596018Y290101D01*
X596069Y290007D01*
X596116Y289911D01*
X596159Y289813D01*
X596199Y289714D01*
X596236Y289614D01*
X596268Y289513D01*
X596297Y289410D01*
X596322Y289306D01*
X596343Y289202D01*
X596361Y289096D01*
X596374Y288990D01*
X596384Y288884D01*
X596390Y288778D01*
X596392Y288671D01*
X593471Y291592D02*
X593350Y291590D01*
X593229Y291584D01*
X593109Y291574D01*
X592988Y291561D01*
X592869Y291543D01*
X592749Y291522D01*
X592631Y291497D01*
X592514Y291468D01*
X592397Y291435D01*
X592282Y291399D01*
X592168Y291358D01*
X592055Y291315D01*
X591943Y291267D01*
X591834Y291216D01*
X591726Y291161D01*
X591619Y291103D01*
X591515Y291042D01*
X591413Y290977D01*
X591313Y290909D01*
X591215Y290838D01*
X591119Y290764D01*
X591026Y290687D01*
X590936Y290606D01*
X590848Y290523D01*
X590763Y290437D01*
X590680Y290348D01*
X590601Y290257D01*
X590524Y290163D01*
X590451Y290067D01*
X590381Y289969D01*
X590314Y289868D01*
X590250Y289765D01*
X590190Y289660D01*
X590133Y289553D01*
X590079Y289445D01*
X590029Y289335D01*
X589983Y289223D01*
X589940Y289110D01*
X589901Y288995D01*
X595419Y286399D02*
X595498Y286476D01*
X595574Y286557D01*
X595647Y286640D01*
X595717Y286725D01*
X595784Y286813D01*
X595848Y286903D01*
X595908Y286995D01*
X595965Y287090D01*
X596019Y287186D01*
X596070Y287284D01*
X596117Y287384D01*
X596161Y287486D01*
X596201Y287589D01*
X596237Y287693D01*
X596269Y287799D01*
X596298Y287905D01*
X596323Y288013D01*
X596345Y288121D01*
X596362Y288231D01*
X596376Y288340D01*
X596385Y288450D01*
X596391Y288561D01*
X596393Y288671D01*
X595418Y286399D02*
X589901Y279908D01*
X596392Y279908D01*
M02*
