G04 EAGLE Gerber RS-274X export*
G75*
%MOMM*%
%FSLAX34Y34*%
%LPD*%
%INSoldermask Bottom*%
%IPPOS*%
%AMOC8*
5,1,8,0,0,1.08239X$1,22.5*%
G01*
%ADD10P,1.869504X8X292.500000*%
%ADD11C,5.283200*%
%ADD12C,1.625600*%
%ADD13P,1.759533X8X22.500000*%
%ADD14C,3.519200*%
%ADD15C,1.631200*%
%ADD16C,0.959600*%


D10*
X133350Y107442D03*
X133350Y135128D03*
X133350Y162560D03*
X133350Y190246D03*
X133350Y217932D03*
X133350Y245364D03*
X133350Y273050D03*
X133350Y300736D03*
X133350Y328168D03*
X133350Y355854D03*
X133350Y383540D03*
X133350Y410972D03*
X133350Y438658D03*
X107950Y121158D03*
X107950Y148844D03*
X107950Y176530D03*
X107950Y203962D03*
X107950Y231648D03*
X107950Y259334D03*
X107950Y286766D03*
X107950Y314452D03*
X107950Y342138D03*
X107950Y369570D03*
X107950Y397256D03*
X107950Y424942D03*
D11*
X120650Y508254D03*
X120650Y37846D03*
D12*
X241300Y418338D02*
X241300Y432562D01*
X215900Y432562D02*
X215900Y418338D01*
D13*
X444500Y476250D03*
X444500Y501650D03*
X469900Y476250D03*
X469900Y501650D03*
X495300Y476250D03*
X495300Y501650D03*
X222250Y476250D03*
X222250Y501650D03*
X247650Y476250D03*
X247650Y501650D03*
X273050Y476250D03*
X273050Y501650D03*
X298450Y476250D03*
X298450Y501650D03*
X323850Y476250D03*
X323850Y501650D03*
D14*
X520700Y295400D03*
X520700Y415800D03*
D15*
X473600Y343100D03*
X493600Y343100D03*
X473600Y368100D03*
X493600Y368100D03*
D16*
X222250Y234950D03*
X260350Y228600D03*
X279400Y196850D03*
X311150Y304800D03*
X247650Y311150D03*
X260350Y95250D03*
X241300Y165100D03*
X342900Y266700D03*
X228600Y381000D03*
X292100Y406400D03*
X342900Y228600D03*
X412750Y254000D03*
X450850Y285750D03*
X450850Y127000D03*
X269240Y245110D03*
X314960Y220980D03*
X314960Y195580D03*
X314960Y170180D03*
X323850Y450850D03*
X196850Y285750D03*
X171450Y298450D03*
X158750Y323850D03*
X184150Y309118D03*
X241300Y247650D03*
X285750Y279400D03*
X457200Y88900D03*
X486410Y104140D03*
X228600Y139700D03*
X298450Y269240D03*
X365000Y162560D03*
X393700Y139700D03*
X323850Y139700D03*
X304800Y254000D03*
X254000Y181610D03*
X270510Y181610D03*
X391160Y123190D03*
X323370Y213360D03*
M02*
