G04 EAGLE Gerber RS-274X export*
G75*
%MOMM*%
%FSLAX34Y34*%
%LPD*%
%INSoldermask Top*%
%IPPOS*%
%AMOC8*
5,1,8,0,0,1.08239X$1,22.5*%
G01*
%ADD10R,1.703200X1.503200*%
%ADD11R,1.703200X0.603200*%
%ADD12R,5.537200X2.133600*%
%ADD13P,1.869504X8X292.500000*%
%ADD14C,5.283200*%
%ADD15R,1.703200X0.753200*%
%ADD16R,0.753200X1.703200*%
%ADD17R,1.503200X1.703200*%
%ADD18R,1.603200X3.203200*%
%ADD19R,1.603200X2.803200*%
%ADD20R,1.803400X1.371600*%
%ADD21C,1.625600*%
%ADD22R,1.603200X1.203200*%
%ADD23P,1.759533X8X22.500000*%
%ADD24R,1.703200X1.703200*%
%ADD25R,3.603200X2.103200*%
%ADD26R,1.524000X0.762000*%
%ADD27C,3.519200*%
%ADD28C,1.631200*%
%ADD29C,0.959600*%


D10*
X292100Y66700D03*
X292100Y85700D03*
X190500Y66700D03*
X190500Y85700D03*
D11*
X344750Y181950D03*
X344750Y175450D03*
X344750Y168950D03*
X344750Y162450D03*
X344750Y155950D03*
X344750Y149450D03*
X344750Y142950D03*
X344750Y136450D03*
X344750Y129950D03*
X344750Y123450D03*
X344750Y116950D03*
X344750Y110450D03*
X344750Y103950D03*
X344750Y97450D03*
X417250Y97450D03*
X417250Y103950D03*
X417250Y110450D03*
X417250Y116950D03*
X417250Y123450D03*
X417250Y129950D03*
X417250Y136450D03*
X417250Y142950D03*
X417250Y149450D03*
X417250Y155950D03*
X417250Y162450D03*
X417250Y168950D03*
X417250Y175450D03*
X417250Y181950D03*
D12*
X193040Y139700D03*
X289560Y139700D03*
D13*
X133350Y107442D03*
X133350Y135128D03*
X133350Y162560D03*
X133350Y190246D03*
X133350Y217932D03*
X133350Y245364D03*
X133350Y273050D03*
X133350Y300736D03*
X133350Y328168D03*
X133350Y355854D03*
X133350Y383540D03*
X133350Y410972D03*
X133350Y438658D03*
X107950Y121158D03*
X107950Y148844D03*
X107950Y176530D03*
X107950Y203962D03*
X107950Y231648D03*
X107950Y259334D03*
X107950Y286766D03*
X107950Y314452D03*
X107950Y342138D03*
X107950Y369570D03*
X107950Y397256D03*
X107950Y424942D03*
D14*
X120650Y508254D03*
X120650Y37846D03*
D15*
X283300Y213300D03*
X283300Y221300D03*
X283300Y229300D03*
X283300Y237300D03*
X283300Y245300D03*
X283300Y253300D03*
X283300Y261300D03*
X283300Y269300D03*
D16*
X269300Y283300D03*
X261300Y283300D03*
X253300Y283300D03*
X245300Y283300D03*
X237300Y283300D03*
X229300Y283300D03*
X221300Y283300D03*
X213300Y283300D03*
D15*
X199300Y269300D03*
X199300Y261300D03*
X199300Y253300D03*
X199300Y245300D03*
X199300Y237300D03*
X199300Y229300D03*
X199300Y221300D03*
X199300Y213300D03*
D16*
X213300Y199300D03*
X221300Y199300D03*
X229300Y199300D03*
X237300Y199300D03*
X245300Y199300D03*
X253300Y199300D03*
X261300Y199300D03*
X269300Y199300D03*
D17*
X365150Y215900D03*
X384150Y215900D03*
D10*
X317500Y244500D03*
X317500Y263500D03*
D18*
X412750Y341500D03*
X412750Y293500D03*
D19*
X336550Y382450D03*
X336550Y341450D03*
D20*
X368300Y276860D03*
X368300Y292100D03*
X368300Y307340D03*
D21*
X241300Y418338D02*
X241300Y432562D01*
X215900Y432562D02*
X215900Y418338D01*
D17*
X346100Y247650D03*
X365100Y247650D03*
D22*
X243000Y336550D03*
X265000Y346050D03*
X265000Y327050D03*
D10*
X285750Y301650D03*
X285750Y320650D03*
D23*
X444500Y476250D03*
X444500Y501650D03*
X469900Y476250D03*
X469900Y501650D03*
X495300Y476250D03*
X495300Y501650D03*
X222250Y476250D03*
X222250Y501650D03*
X247650Y476250D03*
X247650Y501650D03*
X273050Y476250D03*
X273050Y501650D03*
X298450Y476250D03*
X298450Y501650D03*
X323850Y476250D03*
X323850Y501650D03*
D17*
X409550Y69850D03*
X390550Y69850D03*
D24*
X457200Y223800D03*
X457200Y258800D03*
X495300Y223800D03*
X495300Y258800D03*
D10*
X457200Y200000D03*
X457200Y181000D03*
X495300Y200000D03*
X495300Y181000D03*
D25*
X387350Y413200D03*
X387350Y374200D03*
D26*
X444500Y377952D03*
X444500Y387350D03*
X444500Y396748D03*
X419100Y396748D03*
X419100Y387350D03*
X419100Y377952D03*
D10*
X495300Y66650D03*
X495300Y47650D03*
X457200Y66650D03*
X457200Y47650D03*
D17*
X346100Y69850D03*
X365100Y69850D03*
D27*
X520700Y295400D03*
X520700Y415800D03*
D28*
X473600Y343100D03*
X493600Y343100D03*
X473600Y368100D03*
X493600Y368100D03*
D29*
X222250Y234950D03*
X260350Y228600D03*
X279400Y196850D03*
X311150Y304800D03*
X247650Y311150D03*
X260350Y95250D03*
X241300Y165100D03*
X342900Y266700D03*
X228600Y381000D03*
X292100Y406400D03*
X342900Y228600D03*
X412750Y254000D03*
X450850Y285750D03*
X450850Y127000D03*
X269240Y245110D03*
X314960Y220980D03*
X314960Y195580D03*
X314960Y170180D03*
X323850Y450850D03*
X196850Y285750D03*
X171450Y298450D03*
X158750Y323850D03*
X184150Y309118D03*
X241300Y247650D03*
X285750Y279400D03*
X457200Y88900D03*
X486410Y104140D03*
X228600Y139700D03*
X298450Y269240D03*
X365000Y162560D03*
X393700Y139700D03*
X323850Y139700D03*
X304800Y254000D03*
X254000Y181610D03*
X270510Y181610D03*
X391160Y123190D03*
X323370Y213360D03*
M02*
